M48
INCH,TZ
T10C0.012
T11C0.028
T12C0.031
T13C0.039
T14C0.047
T15C0.055
%
T10
X043358Y056060
X043358Y056651
X043358Y057241
X043358Y057832
X044981Y056948
X043370Y058898
X045244Y059567
X045512Y061575
X045512Y059299
X045646Y061039
X043504Y061441
X044843Y059031
X040827Y040693
X039756Y041630
X040157Y041630
X040559Y041630
X040961Y042165
X040961Y041764
X040693Y047921
X040693Y047520
X040693Y047118
X040157Y048457
X039756Y048457
X039756Y048055
X040157Y048055
X039756Y043035
X040157Y043035
X039756Y042634
X040157Y042634
X048189Y036543
X048189Y039354
X046850Y039354
X046850Y036543
X044307Y039354
X044307Y036543
X042165Y035874
X039756Y039756
X039756Y036811
X044307Y035874
X046850Y035874
X049126Y035874
X049126Y039756
X044307Y039756
X046850Y039756
X042567Y039756
X042567Y036811
X046315Y048189
X041630Y047921
X042433Y047921
X042031Y047921
X047520Y041630
X047118Y041496
X047921Y041630
X048055Y049260
X045378Y043772
X047118Y045913
X047118Y045512
X047118Y044173
X047118Y043772
X047118Y044976
X047118Y044575
X047118Y046315
X045378Y044709
X044976Y044039
X045378Y046717
X049260Y051535
X049260Y050063
X050465Y040693
X050598Y040291
X041898Y053409
X042969Y054079
X043638Y054748
X044173Y053811
X045110Y053811
X045378Y054614
X044441Y045110
X044441Y046047
X044976Y046984
X048591Y059701
X049661Y061575
X047787Y060236
X059106Y056060
X059106Y056651
X059106Y057241
X059106Y057832
X060730Y056948
X059118Y058898
X060992Y059567
X061260Y061575
X061260Y059299
X061394Y061039
X059252Y061441
X060591Y059031
X056575Y040693
X055504Y041630
X055906Y041630
X056307Y041630
X056709Y042165
X056709Y041764
X056441Y047921
X056441Y047520
X056441Y047118
X055906Y048457
X055504Y048457
X055504Y048055
X055906Y048055
X055504Y043035
X055906Y043035
X055504Y042634
X055906Y042634
X063937Y036543
X063937Y039354
X062598Y039354
X062598Y036543
X060055Y039354
X060055Y036543
X057913Y035874
X055504Y039756
X055504Y036811
X060055Y035874
X062598Y035874
X064874Y035874
X064874Y039756
X060055Y039756
X062598Y039756
X058315Y039756
X058315Y036811
X062063Y048189
X057378Y047921
X058181Y047921
X057780Y047921
X063268Y041630
X062866Y041496
X063669Y041630
X063803Y049260
X061126Y043772
X062866Y045913
X062866Y045512
X062866Y044173
X062866Y043772
X062866Y044976
X062866Y044575
X062866Y046315
X061126Y044709
X060724Y044039
X061126Y046717
X065008Y051535
X065008Y050063
X066213Y040693
X066346Y040291
X057646Y053409
X058717Y054079
X059386Y054748
X059921Y053811
X060858Y053811
X061126Y054614
X060189Y045110
X060189Y046047
X060724Y046984
X064339Y059701
X065409Y061575
X063535Y060236
T11
X040361Y060823
X040223Y060823
X040499Y060823
X040282Y060823
X040440Y060823
X042290Y060587
X042152Y060587
X042428Y060587
X042211Y060587
X042369Y060587
X040361Y054642
X040223Y054642
X040499Y054642
X040282Y054642
X040440Y054642
X042290Y054878
X042152Y054878
X042428Y054878
X042211Y054878
X042369Y054878
X056109Y060823
X055971Y060823
X056247Y060823
X056030Y060823
X056188Y060823
X058038Y060587
X057900Y060587
X058176Y060587
X057959Y060587
X058117Y060587
X056109Y054642
X055971Y054642
X056247Y054642
X056030Y054642
X056188Y054642
X058038Y054878
X057900Y054878
X058176Y054878
X057959Y054878
X058117Y054878
T12
X051264Y040654
X052264Y040654
X051264Y041654
X052264Y041654
X051264Y042654
X052264Y042654
X051264Y043654
X052264Y043654
X051264Y044654
X052264Y044654
X051264Y045654
X052264Y045654
X051264Y046654
X052264Y046654
X051264Y047654
X052264Y047654
X051264Y048654
X052264Y048654
X051264Y049654
X052264Y049654
X052264Y054654
X051264Y054654
X052264Y053654
X051264Y053654
X052264Y052654
X051264Y052654
X052264Y051654
X051264Y051654
X052264Y050654
X051264Y050654
X051264Y055654
X052264Y055654
X051264Y056654
X052264Y056654
X051264Y057654
X052264Y057654
X051264Y058654
X052264Y058654
X051264Y059654
X052264Y059654
X067012Y040654
X068012Y040654
X067012Y041654
X068012Y041654
X067012Y042654
X068012Y042654
X067012Y043654
X068012Y043654
X067012Y044654
X068012Y044654
X067012Y045654
X068012Y045654
X067012Y046654
X068012Y046654
X067012Y047654
X068012Y047654
X067012Y048654
X068012Y048654
X067012Y049654
X068012Y049654
X068012Y054654
X067012Y054654
X068012Y053654
X067012Y053654
X068012Y052654
X067012Y052654
X068012Y051654
X067012Y051654
X068012Y050654
X067012Y050654
X067012Y055654
X068012Y055654
X067012Y056654
X068012Y056654
X067012Y057654
X068012Y057654
X067012Y058654
X068012Y058654
X067012Y059654
X068012Y059654
T13
X045113Y051337
X044326Y051337
X043539Y051337
X045901Y051337
X047188Y048800
X046188Y048800
X045188Y048800
X044188Y048800
X043188Y048800
X042188Y048800
X047188Y040800
X046188Y040800
X045188Y040800
X044188Y040800
X043188Y040800
X042188Y040800
X060861Y051337
X060074Y051337
X059287Y051337
X061649Y051337
X062936Y048800
X061936Y048800
X060936Y048800
X059936Y048800
X058936Y048800
X057936Y048800
X062936Y040800
X061936Y040800
X060936Y040800
X059936Y040800
X058936Y040800
X057936Y040800
T14
X043693Y037406
X043693Y039138
X041528Y039335
X041528Y037209
X059441Y037406
X059441Y039138
X057276Y039335
X057276Y037209
T15
X043251Y050266
X043251Y052408
X046007Y052408
X046007Y050266
X058999Y050266
X058999Y052408
X061755Y052408
X061755Y050266
M30

