G71*G90*G75*D02*
%ASAXBY*%
%OFA0B0*%
%MOMM*%
%FSLAX43Y43*%
%IPPOS*%
%ADD12C,0.150*%
G54D12*
G01X104214Y105222D02*
Y103862D01*
X101406D02*
X104214D01*
X101421Y105222D02*
X104214D01*
X101114Y103968D02*
X101614D01*
X101114Y104110D02*
X101614D01*
X101114Y104252D02*
X101614D01*
X101114Y104394D02*
X101614D01*
X101114Y104536D02*
X101614D01*
X101114Y104678D02*
X101614D01*
X101114Y104820D02*
X101614D01*
X101114Y104962D02*
X101614D01*
X101114Y105104D02*
X101614D01*
X101114Y105222D02*
X101614D01*
X101114Y103862D02*
Y105222D01*
Y103862D02*
X101614D01*
Y105222D01*
X102380Y97104D02*
X103308Y97551D01*
X102380Y97998D01*
X102724Y97276D02*
Y97826D01*
X103308Y98894D02*
X103136D01*
X103239Y98826D01*
X103308Y98688D01*
Y98379D01*
X103239Y98241D01*
X103170Y98172D01*
X102998Y98104D01*
X102724D01*
X102552Y98172D01*
X102483Y98241D01*
X102414Y98379D01*
Y98688D01*
X102483Y98826D01*
X102586Y98929D01*
X103308Y99894D02*
X103136D01*
X103239Y99826D01*
X103308Y99688D01*
Y99379D01*
X103239Y99241D01*
X103170Y99172D01*
X102998Y99104D01*
X102724D01*
X102552Y99172D01*
X102483Y99241D01*
X102414Y99379D01*
Y99688D01*
X102483Y99826D01*
X102586Y99929D01*
X103308Y100172D02*
Y100894D01*
X102414D02*
Y100172D01*
Y100207D02*
X103308D01*
X102895D02*
Y100757D01*
X103170Y101894D02*
X103239Y101826D01*
X103308Y101688D01*
Y101379D01*
X103239Y101241D01*
X103136Y101172D01*
X103067D01*
X102964Y101241D01*
X102895Y101413D01*
Y101722D01*
X102827Y101860D01*
X102724Y101929D01*
X102586D01*
X102483Y101860D01*
X102414Y101722D01*
Y101379D01*
X102483Y101241D01*
X102586Y101138D01*
X103170Y102894D02*
X103239Y102826D01*
X103308Y102688D01*
Y102379D01*
X103239Y102241D01*
X103136Y102172D01*
X103067D01*
X102964Y102241D01*
X102895Y102413D01*
Y102722D01*
X102827Y102860D01*
X102724Y102929D01*
X102586D01*
X102483Y102860D01*
X102414Y102722D01*
Y102379D01*
X102483Y102241D01*
X102586Y102138D01*
X113205Y107046D02*
X116855D01*
X106805D02*
X111505D01*
X100655Y119696D02*
Y108396D01*
X116855Y118946D02*
Y120796D01*
X100955Y108146D02*
Y107846D01*
X100655Y108396D02*
X100955Y108146D01*
X116855Y117246D02*
Y117546D01*
Y107046D02*
Y107496D01*
Y120796D02*
X102755D01*
X103655Y107046D02*
X105505D01*
X117115Y140737D02*
Y147420D01*
X117257Y140532D02*
Y147319D01*
X117399Y140445D02*
Y147217D01*
X117541Y140412D02*
Y147116D01*
X117683Y140410D02*
Y147014D01*
X117825Y140410D02*
Y146913D01*
X117967Y140410D02*
Y143315D01*
Y143399D02*
Y146811D01*
X118109Y140410D02*
Y143332D01*
Y143512D02*
Y146710D01*
X118251Y140410D02*
Y143348D01*
Y143624D02*
Y146608D01*
X118393Y140410D02*
Y143365D01*
Y143737D02*
Y146507D01*
X118535Y140410D02*
Y143382D01*
Y143849D02*
Y146405D01*
X118677Y140410D02*
Y143399D01*
Y143962D02*
Y146304D01*
X118819Y140410D02*
Y143416D01*
Y144075D02*
Y144207D01*
Y145747D02*
Y146202D01*
X118961Y140410D02*
Y143432D01*
X119103Y140410D02*
Y143449D01*
X119245Y140410D02*
Y143204D01*
X119387Y140410D02*
Y142998D01*
X119529Y140410D02*
Y142822D01*
X119671Y140410D02*
Y142667D01*
X119813Y140410D02*
Y142531D01*
X119955Y140410D02*
Y142409D01*
X120097Y140410D02*
Y142301D01*
X120239Y140410D02*
Y142204D01*
X120381Y140410D02*
Y142117D01*
X120523Y140410D02*
Y142040D01*
X120665Y140410D02*
Y140584D01*
Y141442D02*
Y141972D01*
X120807Y140410D02*
Y140844D01*
X120949Y140410D02*
Y141104D01*
X121091Y140410D02*
Y141364D01*
X121233Y140410D02*
Y141624D01*
X121375Y140410D02*
Y141742D01*
X121517Y140410D02*
Y141717D01*
X121659Y140410D02*
Y141698D01*
X121801Y140410D02*
Y141685D01*
X121943Y140410D02*
Y141678D01*
X122085Y140410D02*
Y141677D01*
X122227Y140410D02*
Y141683D01*
X122369Y140410D02*
Y141695D01*
X122511Y140410D02*
Y141713D01*
X122653Y140410D02*
Y141737D01*
X122795Y140410D02*
Y141767D01*
X122937Y140410D02*
Y141805D01*
X123079Y140410D02*
Y141849D01*
X123221Y140410D02*
Y141900D01*
X123363Y140410D02*
Y141959D01*
X123505Y140410D02*
Y142026D01*
X123647Y140410D02*
Y142101D01*
X123789Y140410D02*
Y141985D01*
X123931Y140410D02*
Y141859D01*
X124073Y140410D02*
Y141733D01*
X124215Y140410D02*
Y141607D01*
X124357Y140410D02*
Y141481D01*
Y142201D02*
Y142639D01*
X124499Y140410D02*
Y141355D01*
Y141851D02*
Y142790D01*
X124641Y140410D02*
Y141229D01*
Y141500D02*
Y142962D01*
X124783Y140410D02*
Y141103D01*
Y141150D02*
Y143160D01*
X124925Y140410D02*
Y143397D01*
X125067Y140410D02*
Y143691D01*
X125209Y140410D02*
Y144099D01*
X125351Y140410D02*
Y144591D01*
X125493Y140410D02*
Y144626D01*
X125635Y140413D02*
Y144661D01*
X125777Y140449D02*
Y144695D01*
X125919Y140539D02*
Y144730D01*
X126061Y140760D02*
Y144765D01*
X126084Y140910D02*
Y144771D01*
Y140910D02*
G02X125584Y140410I-500J0D01*
G01X117584D01*
G02X117084Y140910I0J500D01*
G01Y147442D01*
X118933Y146121D02*
X117084Y147442D01*
X118933Y146121D02*
G03X118847Y144097I3095J-1144D01*
G01X117842Y143300D02*
X118847Y144097D01*
X117842Y143300D02*
X119103Y143449D01*
G03X120696Y141958I2925J1528D01*
G01X120608Y140480D02*
X120696Y141958D01*
X120608Y140480D02*
X121305Y141757D01*
G03X123654Y142105I723J3220D01*
G01X124813Y141076D02*
X123654Y142105D01*
X124813Y141076D02*
X124229Y142518D01*
G03X125304Y144579I-2201J2459D01*
G01X126084Y144771D02*
X125304Y144579D01*
X117115Y147929D02*
Y149083D01*
X117257Y147878D02*
Y149288D01*
X117399Y147826D02*
Y149375D01*
X117541Y147775D02*
Y149408D01*
X117683Y147724D02*
Y149410D01*
X117825Y147673D02*
Y149410D01*
X117967Y147621D02*
Y149410D01*
X118109Y147570D02*
Y149410D01*
X118251Y147519D02*
Y149410D01*
X118393Y147468D02*
Y149410D01*
X118535Y147417D02*
Y149410D01*
X118677Y147365D02*
Y149410D01*
X118819Y147314D02*
Y149410D01*
X118961Y147263D02*
Y149410D01*
X119103Y147212D02*
Y149410D01*
X119245Y147160D02*
Y149410D01*
X119387Y147109D02*
Y149410D01*
X119529Y147132D02*
Y149410D01*
X119671Y147287D02*
Y149410D01*
X119813Y147423D02*
Y149410D01*
X119955Y147545D02*
Y149410D01*
X120097Y147653D02*
Y149410D01*
X120239Y147750D02*
Y149410D01*
X120381Y147837D02*
Y149410D01*
X120523Y147914D02*
Y149410D01*
X120665Y147982D02*
Y149410D01*
X120807Y148043D02*
Y148850D01*
Y149284D02*
Y149410D01*
X120949Y149062D02*
Y149410D01*
X121091Y148840D02*
Y149410D01*
X121233Y148618D02*
Y149410D01*
X121375Y148396D02*
Y149410D01*
X121517Y148237D02*
Y149410D01*
X121659Y148256D02*
Y149410D01*
X121801Y148269D02*
Y149410D01*
X121943Y148276D02*
Y149410D01*
X122085Y148277D02*
Y149410D01*
X122227Y148271D02*
Y149410D01*
X122369Y148259D02*
Y149410D01*
X122511Y148241D02*
Y149410D01*
X122653Y148217D02*
Y149410D01*
X122795Y148187D02*
Y149410D01*
X122937Y148149D02*
Y149410D01*
X123079Y148105D02*
Y149410D01*
X123221Y148054D02*
Y149410D01*
X123363Y147995D02*
Y149410D01*
X123505Y147928D02*
Y149410D01*
X123647Y147853D02*
Y149410D01*
X123789Y147945D02*
Y149410D01*
X123931Y148039D02*
Y149410D01*
X124073Y148133D02*
Y149410D01*
X124215Y148228D02*
Y149410D01*
X124357Y147315D02*
Y147408D01*
Y148322D02*
Y149410D01*
X124499Y147164D02*
Y147709D01*
Y148417D02*
Y149410D01*
X124641Y146992D02*
Y148009D01*
Y148511D02*
Y149410D01*
X124783Y146794D02*
Y148309D01*
Y148605D02*
Y149410D01*
X124925Y146557D02*
Y148610D01*
Y148700D02*
Y149410D01*
X125067Y146263D02*
Y149410D01*
X125209Y145855D02*
Y149410D01*
X125351Y145308D02*
Y149410D01*
X125493Y145262D02*
Y149410D01*
X125635Y145215D02*
Y149407D01*
X125777Y145169D02*
Y149371D01*
X125919Y145122D02*
Y149281D01*
X126061Y145076D02*
Y149060D01*
X124327Y147344D02*
G02X125310Y145321I-2299J-2367D01*
G01X124987Y148741D02*
X124327Y147344D01*
X124987Y148741D02*
X123649Y147851D01*
G03X121481Y148231I-1621J-2874D01*
G01X120790Y149311D02*
X121481Y148231D01*
X120790Y149311D02*
X120836Y148054D01*
G03X119481Y147075I1192J-3077D01*
G01X117084Y147940D01*
Y148910D02*
Y147940D01*
Y148910D02*
G02X117584Y149410I500J0D01*
G01X125584D01*
G02X126084Y148910I0J-500D01*
G01Y145069D01*
X125310Y145321D01*
X123598Y145817D02*
Y146033D01*
X123740Y145778D02*
Y146282D01*
X123882Y145738D02*
Y146531D01*
X124024Y145698D02*
Y146688D01*
X124166Y145659D02*
Y146474D01*
X124308Y145619D02*
Y146203D01*
X124450Y145579D02*
Y145814D01*
X123492Y145847D02*
X123994Y146728D01*
X123492Y145847D02*
X124508Y145563D01*
G03X123994Y146728I-2671J-482D01*
G01X123582Y143974D02*
Y144232D01*
X123724Y143659D02*
Y144264D01*
X123866Y143344D02*
Y144295D01*
X124008Y143452D02*
Y144326D01*
X124150Y143661D02*
Y144358D01*
X124292Y143924D02*
Y144389D01*
X124434Y144293D02*
Y144420D01*
X123476Y144209D02*
X123886Y143301D01*
X123476Y144209D02*
X124471Y144428D01*
G02X123886Y143301I-2634J653D01*
G01X121683Y142371D02*
Y142431D01*
X121825Y142367D02*
Y142696D01*
X121967Y142370D02*
Y142960D01*
X122109Y142381D02*
Y143225D01*
X122251Y142399D02*
Y143475D01*
X122393Y142425D02*
Y143334D01*
X122535Y142458D02*
Y143194D01*
X122677Y142500D02*
Y143053D01*
X122819Y142551D02*
Y142912D01*
X122961Y142611D02*
Y142771D01*
X122246Y143480D02*
X121652Y142373D01*
X122246Y143480D02*
X123070Y142663D01*
G02X121652Y142373I-1233J2418D01*
G01X119645Y143481D02*
Y143530D01*
X119787Y143303D02*
Y143553D01*
X119929Y143151D02*
Y143577D01*
X120071Y143020D02*
Y143601D01*
X120213Y142907D02*
Y143625D01*
X120355Y142808D02*
Y143648D01*
X120497Y142721D02*
Y143672D01*
X120639Y142646D02*
Y143696D01*
X120781Y143025D02*
Y143720D01*
X120843Y143730D02*
X119614Y143525D01*
X120843Y143730D02*
X120743Y142597D01*
G02X119614Y143525I1094J2484D01*
G01X119154Y144672D02*
Y145490D01*
X119296Y144423D02*
Y145893D01*
X119438Y144530D02*
Y145783D01*
X119580Y144637D02*
Y145673D01*
X119722Y144744D02*
Y145562D01*
X119864Y144851D02*
Y145452D01*
X120006Y144958D02*
Y145341D01*
X120148Y145066D02*
Y145231D01*
X120256Y145147D02*
X119257Y145924D01*
X120256Y145147D02*
X119219Y144365D01*
G02X119257Y145924I2618J716D01*
G01X119870Y146905D02*
Y146951D01*
X120012Y146842D02*
Y147090D01*
X120154Y146780D02*
Y147210D01*
X120296Y146718D02*
Y147315D01*
X120438Y146656D02*
Y147407D01*
X120580Y146594D02*
Y147487D01*
X120722Y146532D02*
Y147556D01*
X120864Y146470D02*
Y147055D01*
X120877Y146464D02*
X119839Y146918D01*
X120877Y146464D02*
X120853Y147610D01*
G03X119839Y146918I984J-2529D01*
G01X121781Y147739D02*
Y147794D01*
X121923Y147491D02*
Y147794D01*
X122065Y147243D02*
Y147785D01*
X122207Y146994D02*
Y147770D01*
X122349Y146746D02*
Y147746D01*
X122491Y146801D02*
Y147715D01*
X122633Y146939D02*
Y147676D01*
X122775Y147077D02*
Y147628D01*
X122917Y147214D02*
Y147571D01*
X123059Y147352D02*
Y147504D01*
X122379Y146693D02*
X123160Y147450D01*
X122379Y146693D02*
X121750Y147794D01*
G02X123160Y147450I87J-2713D01*
G01X144214Y105222D02*
Y103862D01*
X141406D02*
X144214D01*
X141421Y105222D02*
X144214D01*
X141114Y103968D02*
X141614D01*
X141114Y104110D02*
X141614D01*
X141114Y104252D02*
X141614D01*
X141114Y104394D02*
X141614D01*
X141114Y104536D02*
X141614D01*
X141114Y104678D02*
X141614D01*
X141114Y104820D02*
X141614D01*
X141114Y104962D02*
X141614D01*
X141114Y105104D02*
X141614D01*
X141114Y105222D02*
X141614D01*
X141114Y103862D02*
Y105222D01*
Y103862D02*
X141614D01*
Y105222D01*
X142380Y97104D02*
X143308Y97551D01*
X142380Y97998D01*
X142724Y97276D02*
Y97826D01*
X143308Y98894D02*
X143136D01*
X143239Y98826D01*
X143308Y98688D01*
Y98379D01*
X143239Y98241D01*
X143170Y98172D01*
X142998Y98104D01*
X142724D01*
X142552Y98172D01*
X142483Y98241D01*
X142414Y98379D01*
Y98688D01*
X142483Y98826D01*
X142586Y98929D01*
X143308Y99894D02*
X143136D01*
X143239Y99826D01*
X143308Y99688D01*
Y99379D01*
X143239Y99241D01*
X143170Y99172D01*
X142998Y99104D01*
X142724D01*
X142552Y99172D01*
X142483Y99241D01*
X142414Y99379D01*
Y99688D01*
X142483Y99826D01*
X142586Y99929D01*
X143308Y100172D02*
Y100894D01*
X142414D02*
Y100172D01*
Y100207D02*
X143308D01*
X142895D02*
Y100757D01*
X143170Y101894D02*
X143239Y101826D01*
X143308Y101688D01*
Y101379D01*
X143239Y101241D01*
X143136Y101172D01*
X143067D01*
X142964Y101241D01*
X142895Y101413D01*
Y101722D01*
X142827Y101860D01*
X142724Y101929D01*
X142586D01*
X142483Y101860D01*
X142414Y101722D01*
Y101379D01*
X142483Y101241D01*
X142586Y101138D01*
X143170Y102894D02*
X143239Y102826D01*
X143308Y102688D01*
Y102379D01*
X143239Y102241D01*
X143136Y102172D01*
X143067D01*
X142964Y102241D01*
X142895Y102413D01*
Y102722D01*
X142827Y102860D01*
X142724Y102929D01*
X142586D01*
X142483Y102860D01*
X142414Y102722D01*
Y102379D01*
X142483Y102241D01*
X142586Y102138D01*
X153205Y107046D02*
X156855D01*
X146805D02*
X151505D01*
X140655Y119696D02*
Y108396D01*
X156855Y118946D02*
Y120796D01*
X140955Y108146D02*
Y107846D01*
X140655Y108396D02*
X140955Y108146D01*
X156855Y117246D02*
Y117546D01*
Y107046D02*
Y107496D01*
Y120796D02*
X142755D01*
X143655Y107046D02*
X145505D01*
X157115Y140737D02*
Y147420D01*
X157257Y140532D02*
Y147319D01*
X157399Y140445D02*
Y147217D01*
X157541Y140412D02*
Y147116D01*
X157683Y140410D02*
Y147014D01*
X157825Y140410D02*
Y146913D01*
X157967Y140410D02*
Y143315D01*
Y143399D02*
Y146811D01*
X158109Y140410D02*
Y143332D01*
Y143512D02*
Y146710D01*
X158251Y140410D02*
Y143348D01*
Y143624D02*
Y146608D01*
X158393Y140410D02*
Y143365D01*
Y143737D02*
Y146507D01*
X158535Y140410D02*
Y143382D01*
Y143849D02*
Y146405D01*
X158677Y140410D02*
Y143399D01*
Y143962D02*
Y146304D01*
X158819Y140410D02*
Y143416D01*
Y144075D02*
Y144207D01*
Y145747D02*
Y146202D01*
X158961Y140410D02*
Y143432D01*
X159103Y140410D02*
Y143449D01*
X159245Y140410D02*
Y143204D01*
X159387Y140410D02*
Y142998D01*
X159529Y140410D02*
Y142822D01*
X159671Y140410D02*
Y142667D01*
X159813Y140410D02*
Y142531D01*
X159955Y140410D02*
Y142409D01*
X160097Y140410D02*
Y142301D01*
X160239Y140410D02*
Y142204D01*
X160381Y140410D02*
Y142117D01*
X160523Y140410D02*
Y142040D01*
X160665Y140410D02*
Y140584D01*
Y141442D02*
Y141972D01*
X160807Y140410D02*
Y140844D01*
X160949Y140410D02*
Y141104D01*
X161091Y140410D02*
Y141364D01*
X161233Y140410D02*
Y141624D01*
X161375Y140410D02*
Y141742D01*
X161517Y140410D02*
Y141717D01*
X161659Y140410D02*
Y141698D01*
X161801Y140410D02*
Y141685D01*
X161943Y140410D02*
Y141678D01*
X162085Y140410D02*
Y141677D01*
X162227Y140410D02*
Y141683D01*
X162369Y140410D02*
Y141695D01*
X162511Y140410D02*
Y141713D01*
X162653Y140410D02*
Y141737D01*
X162795Y140410D02*
Y141767D01*
X162937Y140410D02*
Y141805D01*
X163079Y140410D02*
Y141849D01*
X163221Y140410D02*
Y141900D01*
X163363Y140410D02*
Y141959D01*
X163505Y140410D02*
Y142026D01*
X163647Y140410D02*
Y142101D01*
X163789Y140410D02*
Y141985D01*
X163931Y140410D02*
Y141859D01*
X164073Y140410D02*
Y141733D01*
X164215Y140410D02*
Y141607D01*
X164357Y140410D02*
Y141481D01*
Y142201D02*
Y142639D01*
X164499Y140410D02*
Y141355D01*
Y141851D02*
Y142790D01*
X164641Y140410D02*
Y141229D01*
Y141500D02*
Y142962D01*
X164783Y140410D02*
Y141103D01*
Y141150D02*
Y143160D01*
X164925Y140410D02*
Y143397D01*
X165067Y140410D02*
Y143691D01*
X165209Y140410D02*
Y144099D01*
X165351Y140410D02*
Y144591D01*
X165493Y140410D02*
Y144626D01*
X165635Y140413D02*
Y144661D01*
X165777Y140449D02*
Y144695D01*
X165919Y140539D02*
Y144730D01*
X166061Y140760D02*
Y144765D01*
X166084Y140910D02*
Y144771D01*
Y140910D02*
G02X165584Y140410I-500J0D01*
G01X157584D01*
G02X157084Y140910I0J500D01*
G01Y147442D01*
X158933Y146121D02*
X157084Y147442D01*
X158933Y146121D02*
G03X158847Y144097I3095J-1144D01*
G01X157842Y143300D02*
X158847Y144097D01*
X157842Y143300D02*
X159103Y143449D01*
G03X160696Y141958I2925J1528D01*
G01X160608Y140480D02*
X160696Y141958D01*
X160608Y140480D02*
X161305Y141757D01*
G03X163654Y142105I723J3220D01*
G01X164813Y141076D02*
X163654Y142105D01*
X164813Y141076D02*
X164229Y142518D01*
G03X165304Y144579I-2201J2459D01*
G01X166084Y144771D02*
X165304Y144579D01*
X157115Y147929D02*
Y149083D01*
X157257Y147878D02*
Y149288D01*
X157399Y147826D02*
Y149375D01*
X157541Y147775D02*
Y149408D01*
X157683Y147724D02*
Y149410D01*
X157825Y147673D02*
Y149410D01*
X157967Y147621D02*
Y149410D01*
X158109Y147570D02*
Y149410D01*
X158251Y147519D02*
Y149410D01*
X158393Y147468D02*
Y149410D01*
X158535Y147417D02*
Y149410D01*
X158677Y147365D02*
Y149410D01*
X158819Y147314D02*
Y149410D01*
X158961Y147263D02*
Y149410D01*
X159103Y147212D02*
Y149410D01*
X159245Y147160D02*
Y149410D01*
X159387Y147109D02*
Y149410D01*
X159529Y147132D02*
Y149410D01*
X159671Y147287D02*
Y149410D01*
X159813Y147423D02*
Y149410D01*
X159955Y147545D02*
Y149410D01*
X160097Y147653D02*
Y149410D01*
X160239Y147750D02*
Y149410D01*
X160381Y147837D02*
Y149410D01*
X160523Y147914D02*
Y149410D01*
X160665Y147982D02*
Y149410D01*
X160807Y148043D02*
Y148850D01*
Y149284D02*
Y149410D01*
X160949Y149062D02*
Y149410D01*
X161091Y148840D02*
Y149410D01*
X161233Y148618D02*
Y149410D01*
X161375Y148396D02*
Y149410D01*
X161517Y148237D02*
Y149410D01*
X161659Y148256D02*
Y149410D01*
X161801Y148269D02*
Y149410D01*
X161943Y148276D02*
Y149410D01*
X162085Y148277D02*
Y149410D01*
X162227Y148271D02*
Y149410D01*
X162369Y148259D02*
Y149410D01*
X162511Y148241D02*
Y149410D01*
X162653Y148217D02*
Y149410D01*
X162795Y148187D02*
Y149410D01*
X162937Y148149D02*
Y149410D01*
X163079Y148105D02*
Y149410D01*
X163221Y148054D02*
Y149410D01*
X163363Y147995D02*
Y149410D01*
X163505Y147928D02*
Y149410D01*
X163647Y147853D02*
Y149410D01*
X163789Y147945D02*
Y149410D01*
X163931Y148039D02*
Y149410D01*
X164073Y148133D02*
Y149410D01*
X164215Y148228D02*
Y149410D01*
X164357Y147315D02*
Y147408D01*
Y148322D02*
Y149410D01*
X164499Y147164D02*
Y147709D01*
Y148417D02*
Y149410D01*
X164641Y146992D02*
Y148009D01*
Y148511D02*
Y149410D01*
X164783Y146794D02*
Y148309D01*
Y148605D02*
Y149410D01*
X164925Y146557D02*
Y148610D01*
Y148700D02*
Y149410D01*
X165067Y146263D02*
Y149410D01*
X165209Y145855D02*
Y149410D01*
X165351Y145308D02*
Y149410D01*
X165493Y145262D02*
Y149410D01*
X165635Y145215D02*
Y149407D01*
X165777Y145169D02*
Y149371D01*
X165919Y145122D02*
Y149281D01*
X166061Y145076D02*
Y149060D01*
X164327Y147344D02*
G02X165310Y145321I-2299J-2367D01*
G01X164987Y148741D02*
X164327Y147344D01*
X164987Y148741D02*
X163649Y147851D01*
G03X161481Y148231I-1621J-2874D01*
G01X160790Y149311D02*
X161481Y148231D01*
X160790Y149311D02*
X160836Y148054D01*
G03X159481Y147075I1192J-3077D01*
G01X157084Y147940D01*
Y148910D02*
Y147940D01*
Y148910D02*
G02X157584Y149410I500J0D01*
G01X165584D01*
G02X166084Y148910I0J-500D01*
G01Y145069D01*
X165310Y145321D01*
X163598Y145817D02*
Y146033D01*
X163740Y145778D02*
Y146282D01*
X163882Y145738D02*
Y146531D01*
X164024Y145698D02*
Y146688D01*
X164166Y145659D02*
Y146474D01*
X164308Y145619D02*
Y146203D01*
X164450Y145579D02*
Y145814D01*
X163492Y145847D02*
X163994Y146728D01*
X163492Y145847D02*
X164508Y145563D01*
G03X163994Y146728I-2671J-482D01*
G01X163582Y143974D02*
Y144232D01*
X163724Y143659D02*
Y144264D01*
X163866Y143344D02*
Y144295D01*
X164008Y143452D02*
Y144326D01*
X164150Y143661D02*
Y144358D01*
X164292Y143924D02*
Y144389D01*
X164434Y144293D02*
Y144420D01*
X163476Y144209D02*
X163886Y143301D01*
X163476Y144209D02*
X164471Y144428D01*
G02X163886Y143301I-2634J653D01*
G01X161683Y142371D02*
Y142431D01*
X161825Y142367D02*
Y142696D01*
X161967Y142370D02*
Y142960D01*
X162109Y142381D02*
Y143225D01*
X162251Y142399D02*
Y143475D01*
X162393Y142425D02*
Y143334D01*
X162535Y142458D02*
Y143194D01*
X162677Y142500D02*
Y143053D01*
X162819Y142551D02*
Y142912D01*
X162961Y142611D02*
Y142771D01*
X162246Y143480D02*
X161652Y142373D01*
X162246Y143480D02*
X163070Y142663D01*
G02X161652Y142373I-1233J2418D01*
G01X159645Y143481D02*
Y143530D01*
X159787Y143303D02*
Y143553D01*
X159929Y143151D02*
Y143577D01*
X160071Y143020D02*
Y143601D01*
X160213Y142907D02*
Y143625D01*
X160355Y142808D02*
Y143648D01*
X160497Y142721D02*
Y143672D01*
X160639Y142646D02*
Y143696D01*
X160781Y143025D02*
Y143720D01*
X160843Y143730D02*
X159614Y143525D01*
X160843Y143730D02*
X160743Y142597D01*
G02X159614Y143525I1094J2484D01*
G01X159154Y144672D02*
Y145490D01*
X159296Y144423D02*
Y145893D01*
X159438Y144530D02*
Y145783D01*
X159580Y144637D02*
Y145673D01*
X159722Y144744D02*
Y145562D01*
X159864Y144851D02*
Y145452D01*
X160006Y144958D02*
Y145341D01*
X160148Y145066D02*
Y145231D01*
X160256Y145147D02*
X159257Y145924D01*
X160256Y145147D02*
X159219Y144365D01*
G02X159257Y145924I2618J716D01*
G01X159870Y146905D02*
Y146951D01*
X160012Y146842D02*
Y147090D01*
X160154Y146780D02*
Y147210D01*
X160296Y146718D02*
Y147315D01*
X160438Y146656D02*
Y147407D01*
X160580Y146594D02*
Y147487D01*
X160722Y146532D02*
Y147556D01*
X160864Y146470D02*
Y147055D01*
X160877Y146464D02*
X159839Y146918D01*
X160877Y146464D02*
X160853Y147610D01*
G03X159839Y146918I984J-2529D01*
G01X161781Y147739D02*
Y147794D01*
X161923Y147491D02*
Y147794D01*
X162065Y147243D02*
Y147785D01*
X162207Y146994D02*
Y147770D01*
X162349Y146746D02*
Y147746D01*
X162491Y146801D02*
Y147715D01*
X162633Y146939D02*
Y147676D01*
X162775Y147077D02*
Y147628D01*
X162917Y147214D02*
Y147571D01*
X163059Y147352D02*
Y147504D01*
X162379Y146693D02*
X163160Y147450D01*
X162379Y146693D02*
X161750Y147794D01*
G02X163160Y147450I87J-2713D01*
G01X0Y0D02*
M02*
