G71*G90*G75*D02*
%ASAXBY*%
%OFA0B0*%
%MOMM*%
%FSLAX43Y43*%
%IPPOS*%
%ADD11C,0.100*%
%ADD15C,0.300*%
%ADD21C,0.800*%
%ADD26C,1.400*%
%ADD28C,1.800*%
%ADD29C,1.900*%
%ADD31C,2.300*%
%ADD32C,3.000*%
%ADD34C,6.400*%
%ADD43R,1.000X1.000*%
%ADD44R,1.100X1.100*%
%ADD46R,1.400X1.400*%
%ADD48R,1.700X1.700*%
%ADD49R,2.500X2.500*%
G54D32*
G01X105000Y80000D03*
X115000Y170000D03*
G54D34*
X103300Y158880D03*
Y90050D03*
G54D29*
X110980Y95010D03*
Y99410D03*
X105480Y99910D03*
Y94510D03*
G54D15*
X110130Y142393D03*
Y143893D03*
Y145393D03*
Y146893D03*
X114253Y144648D03*
G54D26*
X102167Y154491D02*
X102867D01*
X107067Y153891D02*
X107767D01*
X102167Y138791D02*
X102867D01*
X107067Y139391D02*
X107767D01*
G54D31*
X109858Y127676D03*
Y133116D03*
G54D28*
X114588Y130396D03*
X112588D03*
X110588D03*
X116588D03*
G54D31*
X116858Y133116D03*
Y127676D03*
G54D11*
X101894Y104142D02*
Y104942D01*
X102494D01*
Y104142D01*
X101894D01*
X101989D02*
Y104942D01*
X102084Y104142D02*
Y104942D01*
X102179Y104142D02*
Y104942D01*
X102274Y104142D02*
Y104942D01*
X102369Y104142D02*
Y104942D01*
X102464Y104142D02*
Y104942D01*
X103294Y104142D02*
Y104942D01*
X103894D01*
Y104142D01*
X103294D01*
X103389D02*
Y104942D01*
X103484Y104142D02*
Y104942D01*
X103579Y104142D02*
Y104942D01*
X103674Y104142D02*
Y104942D01*
X103769Y104142D02*
Y104942D01*
X103864Y104142D02*
Y104942D01*
G54D46*
X112355Y106996D03*
G54D21*
X116405Y108996D02*
X117255D01*
X116405Y110096D02*
X117255D01*
X116405Y111196D02*
X117255D01*
X116405Y112296D02*
X117255D01*
X116405Y113396D02*
X117255D01*
X116405Y114496D02*
X117255D01*
G54D43*
X106155Y106796D02*
Y107196D01*
G54D21*
X116405Y108046D02*
X117255D01*
X116405Y115596D02*
X117255D01*
X116405Y116696D02*
X117255D01*
G54D44*
X116555Y118246D02*
X116955D01*
G54D48*
X101355Y120696D02*
X101755D01*
G54D46*
X101205Y106996D02*
X102805D01*
G54D15*
X110160Y149600D03*
X114920Y151300D03*
X115600Y156400D03*
Y150620D03*
X115940Y155040D03*
X110500Y156060D03*
X113900Y149940D03*
X103700Y103360D03*
X100980Y105740D03*
X102000D03*
X103020D03*
X104040Y107100D03*
Y106080D03*
X103360Y121720D03*
Y120700D03*
Y119680D03*
X102000Y123080D03*
X100980D03*
Y122060D03*
X102000D03*
X100980Y109310D03*
X102000D03*
X100980Y108290D03*
X102000D03*
X122400Y92820D03*
Y99960D03*
X119000D03*
Y92820D03*
X112540Y99960D03*
Y92820D03*
X107100Y91120D03*
X100980Y100980D03*
Y93500D03*
X112540Y91120D03*
X119000D03*
X124780D03*
Y100980D03*
X112540D03*
X119000D03*
X108120D03*
Y93500D03*
X117640Y122400D03*
X105740Y121720D03*
X107780D03*
X106760D03*
X120700Y105740D03*
X119680Y105400D03*
X121720Y105740D03*
X122060Y125120D03*
X115260Y111180D03*
X119680Y116620D03*
Y115600D03*
Y112200D03*
Y111180D03*
Y114240D03*
Y113220D03*
Y117640D03*
X115260Y113560D03*
X114240Y111860D03*
X115260Y118660D03*
X125120Y130900D03*
Y127160D03*
G54D34*
X131860Y158880D03*
Y90050D03*
G54D28*
X130210Y103260D03*
X132750D03*
X130210Y105800D03*
X132750D03*
X130210Y108340D03*
X132750D03*
X130210Y110880D03*
X132750D03*
X130210Y113420D03*
X132750D03*
X130210Y115960D03*
X132750D03*
X130210Y118500D03*
X132750D03*
X130210Y121040D03*
X132750D03*
X130210Y123580D03*
X132750D03*
X130210Y126120D03*
X132750D03*
Y138820D03*
X130210D03*
X132750Y136280D03*
X130210D03*
X132750Y133740D03*
X130210D03*
X132750Y131200D03*
X130210D03*
X132750Y128660D03*
X130210D03*
Y141360D03*
X132750D03*
X130210Y143900D03*
X132750D03*
X130210Y146440D03*
X132750D03*
X130210Y148980D03*
X132750D03*
X130210Y151520D03*
X132750D03*
G54D15*
X128180Y103360D03*
X128520Y102340D03*
X106420Y135660D03*
X109140Y137360D03*
X110840Y139060D03*
X112200Y136680D03*
X114580D03*
X115260Y138720D03*
X112880Y114580D03*
Y116960D03*
X114240Y119340D03*
X123420Y151640D03*
X126140Y156400D03*
X121380Y153000D03*
G54D49*
X117500Y164000D03*
Y85000D03*
G54D28*
X119857Y123953D03*
X117317D03*
X114777D03*
X112237D03*
X109697D03*
X107157D03*
X119857Y103633D03*
X117317D03*
X114777D03*
X112237D03*
X109697D03*
X107157D03*
G54D34*
X143300Y158880D03*
Y90050D03*
G54D29*
X150980Y95010D03*
Y99410D03*
X145480Y99910D03*
Y94510D03*
G54D15*
X150130Y142393D03*
Y143893D03*
Y145393D03*
Y146893D03*
X154253Y144648D03*
G54D26*
X142167Y154491D02*
X142867D01*
X147067Y153891D02*
X147767D01*
X142167Y138791D02*
X142867D01*
X147067Y139391D02*
X147767D01*
G54D31*
X149858Y127676D03*
Y133116D03*
G54D28*
X154588Y130396D03*
X152588D03*
X150588D03*
X156588D03*
G54D31*
X156858Y133116D03*
Y127676D03*
G54D11*
X141894Y104142D02*
Y104942D01*
X142494D01*
Y104142D01*
X141894D01*
X141989D02*
Y104942D01*
X142084Y104142D02*
Y104942D01*
X142179Y104142D02*
Y104942D01*
X142274Y104142D02*
Y104942D01*
X142369Y104142D02*
Y104942D01*
X142464Y104142D02*
Y104942D01*
X143294Y104142D02*
Y104942D01*
X143894D01*
Y104142D01*
X143294D01*
X143389D02*
Y104942D01*
X143484Y104142D02*
Y104942D01*
X143579Y104142D02*
Y104942D01*
X143674Y104142D02*
Y104942D01*
X143769Y104142D02*
Y104942D01*
X143864Y104142D02*
Y104942D01*
G54D46*
X152355Y106996D03*
G54D21*
X156405Y108996D02*
X157255D01*
X156405Y110096D02*
X157255D01*
X156405Y111196D02*
X157255D01*
X156405Y112296D02*
X157255D01*
X156405Y113396D02*
X157255D01*
X156405Y114496D02*
X157255D01*
G54D43*
X146155Y106796D02*
Y107196D01*
G54D21*
X156405Y108046D02*
X157255D01*
X156405Y115596D02*
X157255D01*
X156405Y116696D02*
X157255D01*
G54D44*
X156555Y118246D02*
X156955D01*
G54D48*
X141355Y120696D02*
X141755D01*
G54D46*
X141205Y106996D02*
X142805D01*
G54D15*
X150160Y149600D03*
X154920Y151300D03*
X155600Y156400D03*
Y150620D03*
X155940Y155040D03*
X150500Y156060D03*
X153900Y149940D03*
X143700Y103360D03*
X140980Y105740D03*
X142000D03*
X143020D03*
X144040Y107100D03*
Y106080D03*
X143360Y121720D03*
Y120700D03*
Y119680D03*
X142000Y123080D03*
X140980D03*
Y122060D03*
X142000D03*
X140980Y109310D03*
X142000D03*
X140980Y108290D03*
X142000D03*
X162400Y92820D03*
Y99960D03*
X159000D03*
Y92820D03*
X152540Y99960D03*
Y92820D03*
X147100Y91120D03*
X140980Y100980D03*
Y93500D03*
X152540Y91120D03*
X159000D03*
X164780D03*
Y100980D03*
X152540D03*
X159000D03*
X148120D03*
Y93500D03*
X157640Y122400D03*
X145740Y121720D03*
X147780D03*
X146760D03*
X160700Y105740D03*
X159680Y105400D03*
X161720Y105740D03*
X162060Y125120D03*
X155260Y111180D03*
X159680Y116620D03*
Y115600D03*
Y112200D03*
Y111180D03*
Y114240D03*
Y113220D03*
Y117640D03*
X155260Y113560D03*
X154240Y111860D03*
X155260Y118660D03*
X165120Y130900D03*
Y127160D03*
G54D34*
X171860Y158880D03*
Y90050D03*
G54D28*
X170210Y103260D03*
X172750D03*
X170210Y105800D03*
X172750D03*
X170210Y108340D03*
X172750D03*
X170210Y110880D03*
X172750D03*
X170210Y113420D03*
X172750D03*
X170210Y115960D03*
X172750D03*
X170210Y118500D03*
X172750D03*
X170210Y121040D03*
X172750D03*
X170210Y123580D03*
X172750D03*
X170210Y126120D03*
X172750D03*
Y138820D03*
X170210D03*
X172750Y136280D03*
X170210D03*
X172750Y133740D03*
X170210D03*
X172750Y131200D03*
X170210D03*
X172750Y128660D03*
X170210D03*
Y141360D03*
X172750D03*
X170210Y143900D03*
X172750D03*
X170210Y146440D03*
X172750D03*
X170210Y148980D03*
X172750D03*
X170210Y151520D03*
X172750D03*
G54D15*
X168180Y103360D03*
X168520Y102340D03*
X146420Y135660D03*
X149140Y137360D03*
X150840Y139060D03*
X152200Y136680D03*
X154580D03*
X155260Y138720D03*
X152880Y114580D03*
Y116960D03*
X154240Y119340D03*
X163420Y151640D03*
X166140Y156400D03*
X161380Y153000D03*
G54D49*
X157500Y164000D03*
Y85000D03*
G54D28*
X159857Y123953D03*
X157317D03*
X154777D03*
X152237D03*
X149697D03*
X147157D03*
X159857Y103633D03*
X157317D03*
X154777D03*
X152237D03*
X149697D03*
X147157D03*
G54D32*
X170000Y80000D03*
G01X0Y0D02*
M02*
