G71*G90*G75*D02*
%ASAXBY*%
%OFA0B0*%
%MOMM*%
%FSLAX43Y43*%
%IPPOS*%
%ADD11C,0.100*%
%ADD15C,0.300*%
%ADD16C,0.350*%
%ADD22C,1.000*%
%ADD23C,1.100*%
%ADD26C,1.400*%
%ADD29C,1.900*%
%ADD31C,2.300*%
%ADD32C,3.000*%
%ADD34C,6.400*%
%ADD39R,0.500X0.500*%
%ADD41R,0.700X0.700*%
%ADD49R,2.500X2.500*%
G54D32*
G01X105000Y80000D03*
X110000Y170000D03*
G54D34*
X103300Y158880D03*
Y90050D03*
G54D29*
X110980Y95010D03*
Y99410D03*
X105480Y99910D03*
Y94510D03*
G54D15*
X110130Y142393D03*
Y143893D03*
Y145393D03*
Y146893D03*
X114253Y144648D03*
G54D26*
X102167Y154491D02*
X102867D01*
X107067Y153891D02*
X107767D01*
X102167Y138791D02*
X102867D01*
X107067Y139391D02*
X107767D01*
G54D16*
X109317Y141891D02*
X107417D01*
X109317Y142391D02*
X107417D01*
X109317Y142891D02*
X107417D01*
X109317Y143391D02*
X107417D01*
X109317Y143891D02*
X107417D01*
X109317Y144391D02*
X107417D01*
X109317Y144891D02*
X107417D01*
X109317Y145391D02*
X107417D01*
X109317Y145891D02*
X107417D01*
X109317Y146391D02*
X107417D01*
X109317Y150891D02*
X107417D01*
X109317Y150391D02*
X107417D01*
X109317Y149891D02*
X107417D01*
X109317Y149391D02*
X107417D01*
X109317Y148891D02*
X107417D01*
X109317Y148391D02*
X107417D01*
X109317Y147891D02*
X107417D01*
X109317Y147391D02*
X107417D01*
X109317Y146891D02*
X107417D01*
G54D11*
X112548Y144773D02*
X113148D01*
Y144523D01*
X112548D01*
Y144773D01*
Y144678D02*
X113148D01*
X112548Y144583D02*
X113148D01*
X111598Y144373D02*
X112198D01*
Y144123D01*
X111598D01*
Y144373D01*
Y144278D02*
X112198D01*
X111598Y144183D02*
X112198D01*
X111598Y145173D02*
X112198D01*
Y144923D01*
X111598D01*
Y145173D01*
Y145078D02*
X112198D01*
X111598Y144983D02*
X112198D01*
X112548Y143973D02*
X113148D01*
Y143723D01*
X112548D01*
Y143973D01*
Y143878D02*
X113148D01*
X112548Y143783D02*
X113148D01*
X112548Y145573D02*
X113148D01*
Y145323D01*
X112548D01*
Y145573D01*
Y145478D02*
X113148D01*
X112548Y145383D02*
X113148D01*
X111598Y143473D02*
X112198D01*
Y143223D01*
X111598D01*
Y143473D01*
Y143378D02*
X112198D01*
X111598Y143283D02*
X112198D01*
X111598Y146073D02*
X112198D01*
Y145823D01*
X111598D01*
Y146073D01*
Y145978D02*
X112198D01*
X111598Y145883D02*
X112198D01*
X112548Y143073D02*
X113148D01*
Y142823D01*
X112548D01*
Y143073D01*
Y142978D02*
X113148D01*
X112548Y142883D02*
X113148D01*
X112548Y146473D02*
X113148D01*
Y146223D01*
X112548D01*
Y146473D01*
Y146378D02*
X113148D01*
X112548Y146283D02*
X113148D01*
G54D31*
X109858Y127676D03*
Y133116D03*
G54D23*
X114588Y130396D03*
X112588D03*
X110588D03*
X116588D03*
G54D31*
X116858Y133116D03*
Y127676D03*
G54D11*
X116470Y99225D02*
X118970D01*
Y97975D01*
X116470D01*
Y99225D01*
Y99130D02*
X118970D01*
X116470Y99035D02*
X118970D01*
X116470Y98940D02*
X118970D01*
X116470Y98845D02*
X118970D01*
X116470Y98750D02*
X118970D01*
X116470Y98655D02*
X118970D01*
X116470Y98560D02*
X118970D01*
X116470Y98465D02*
X118970D01*
X116470Y98370D02*
X118970D01*
X116470Y98275D02*
X118970D01*
X116470Y98180D02*
X118970D01*
X116470Y98085D02*
X118970D01*
X116470Y97990D02*
X118970D01*
X112970Y99225D02*
X115470D01*
Y97975D01*
X112970D01*
Y99225D01*
Y99130D02*
X115470D01*
X112970Y99035D02*
X115470D01*
X112970Y98940D02*
X115470D01*
X112970Y98845D02*
X115470D01*
X112970Y98750D02*
X115470D01*
X112970Y98655D02*
X115470D01*
X112970Y98560D02*
X115470D01*
X112970Y98465D02*
X115470D01*
X112970Y98370D02*
X115470D01*
X112970Y98275D02*
X115470D01*
X112970Y98180D02*
X115470D01*
X112970Y98085D02*
X115470D01*
X112970Y97990D02*
X115470D01*
X116440Y94805D02*
X118940D01*
Y93555D01*
X116440D01*
Y94805D01*
Y94710D02*
X118940D01*
X116440Y94615D02*
X118940D01*
X116440Y94520D02*
X118940D01*
X116440Y94425D02*
X118940D01*
X116440Y94330D02*
X118940D01*
X116440Y94235D02*
X118940D01*
X116440Y94140D02*
X118940D01*
X116440Y94045D02*
X118940D01*
X116440Y93950D02*
X118940D01*
X116440Y93855D02*
X118940D01*
X116440Y93760D02*
X118940D01*
X116440Y93665D02*
X118940D01*
X116440Y93570D02*
X118940D01*
X112940Y94805D02*
X115440D01*
Y93555D01*
X112940D01*
Y94805D01*
Y94710D02*
X115440D01*
X112940Y94615D02*
X115440D01*
X112940Y94520D02*
X115440D01*
X112940Y94425D02*
X115440D01*
X112940Y94330D02*
X115440D01*
X112940Y94235D02*
X115440D01*
X112940Y94140D02*
X115440D01*
X112940Y94045D02*
X115440D01*
X112940Y93950D02*
X115440D01*
X112940Y93855D02*
X115440D01*
X112940Y93760D02*
X115440D01*
X112940Y93665D02*
X115440D01*
X112940Y93570D02*
X115440D01*
X115856Y147960D02*
Y148460D01*
X116230D01*
Y147960D01*
X115856D01*
X115950D02*
Y148460D01*
X116046Y147960D02*
Y148460D01*
X116140Y147960D02*
Y148460D01*
X115030Y147960D02*
Y148460D01*
X115404D01*
Y147960D01*
X115030D01*
X115124D02*
Y148460D01*
X115220Y147960D02*
Y148460D01*
X115314Y147960D02*
Y148460D01*
X115856Y146940D02*
Y147440D01*
X116230D01*
Y146940D01*
X115856D01*
X115950D02*
Y147440D01*
X116046Y146940D02*
Y147440D01*
X116140Y146940D02*
Y147440D01*
X115030Y146940D02*
Y147440D01*
X115404D01*
Y146940D01*
X115030D01*
X115124D02*
Y147440D01*
X115220Y146940D02*
Y147440D01*
X115314Y146940D02*
Y147440D01*
X115856Y145920D02*
Y146420D01*
X116230D01*
Y145920D01*
X115856D01*
X115950D02*
Y146420D01*
X116046Y145920D02*
Y146420D01*
X116140Y145920D02*
Y146420D01*
X115030Y145920D02*
Y146420D01*
X115404D01*
Y145920D01*
X115030D01*
X115124D02*
Y146420D01*
X115220Y145920D02*
Y146420D01*
X115314Y145920D02*
Y146420D01*
X115856Y144900D02*
Y145400D01*
X116230D01*
Y144900D01*
X115856D01*
X115950D02*
Y145400D01*
X116046Y144900D02*
Y145400D01*
X116140Y144900D02*
Y145400D01*
X115030Y144900D02*
Y145400D01*
X115404D01*
Y144900D01*
X115030D01*
X115124D02*
Y145400D01*
X115220Y144900D02*
Y145400D01*
X115314Y144900D02*
Y145400D01*
X115856Y143880D02*
Y144380D01*
X116230D01*
Y143880D01*
X115856D01*
X115950D02*
Y144380D01*
X116046Y143880D02*
Y144380D01*
X116140Y143880D02*
Y144380D01*
X115030Y143880D02*
Y144380D01*
X115404D01*
Y143880D01*
X115030D01*
X115124D02*
Y144380D01*
X115220Y143880D02*
Y144380D01*
X115314Y143880D02*
Y144380D01*
X115856Y142860D02*
Y143360D01*
X116230D01*
Y142860D01*
X115856D01*
X115950D02*
Y143360D01*
X116046Y142860D02*
Y143360D01*
X116140Y142860D02*
Y143360D01*
X115030Y142860D02*
Y143360D01*
X115404D01*
Y142860D01*
X115030D01*
X115124D02*
Y143360D01*
X115220Y142860D02*
Y143360D01*
X115314Y142860D02*
Y143360D01*
X115856Y141840D02*
Y142340D01*
X116230D01*
Y141840D01*
X115856D01*
X115950D02*
Y142340D01*
X116046Y141840D02*
Y142340D01*
X116140Y141840D02*
Y142340D01*
X115030Y141840D02*
Y142340D01*
X115404D01*
Y141840D01*
X115030D01*
X115124D02*
Y142340D01*
X115220Y141840D02*
Y142340D01*
X115314Y141840D02*
Y142340D01*
X115856Y140820D02*
Y141320D01*
X116230D01*
Y140820D01*
X115856D01*
X115950D02*
Y141320D01*
X116046Y140820D02*
Y141320D01*
X116140Y140820D02*
Y141320D01*
X115030Y140820D02*
Y141320D01*
X115404D01*
Y140820D01*
X115030D01*
X115124D02*
Y141320D01*
X115220Y140820D02*
Y141320D01*
X115314Y140820D02*
Y141320D01*
X116784Y148332D02*
X117284D01*
Y147956D01*
X116784D01*
Y148332D01*
Y148236D02*
X117284D01*
X116784Y148142D02*
X117284D01*
X116784Y148046D02*
X117284D01*
X116784Y147506D02*
X117284D01*
Y147130D01*
X116784D01*
Y147506D01*
Y147410D02*
X117284D01*
X116784Y147316D02*
X117284D01*
X116784Y147221D02*
X117284D01*
X116784Y146292D02*
X117284D01*
Y145916D01*
X116784D01*
Y146292D01*
Y146196D02*
X117284D01*
X116784Y146102D02*
X117284D01*
X116784Y146007D02*
X117284D01*
X116784Y145466D02*
X117284D01*
Y145090D01*
X116784D01*
Y145466D01*
Y145370D02*
X117284D01*
X116784Y145276D02*
X117284D01*
X116784Y145180D02*
X117284D01*
X116784Y144252D02*
X117284D01*
Y143876D01*
X116784D01*
Y144252D01*
Y144156D02*
X117284D01*
X116784Y144062D02*
X117284D01*
X116784Y143966D02*
X117284D01*
X116784Y143426D02*
X117284D01*
Y143050D01*
X116784D01*
Y143426D01*
Y143330D02*
X117284D01*
X116784Y143236D02*
X117284D01*
X116784Y143140D02*
X117284D01*
X116784Y142212D02*
X117284D01*
Y141836D01*
X116784D01*
Y142212D01*
Y142116D02*
X117284D01*
X116784Y142022D02*
X117284D01*
X116784Y141926D02*
X117284D01*
X116784Y141386D02*
X117284D01*
Y141010D01*
X116784D01*
Y141386D01*
Y141290D02*
X117284D01*
X116784Y141196D02*
X117284D01*
X116784Y141100D02*
X117284D01*
G54D15*
X110160Y149600D03*
G54D11*
X111258Y149012D02*
Y149812D01*
X111858D01*
Y149012D01*
X111258D01*
X111353D02*
Y149812D01*
X111448Y149012D02*
Y149812D01*
X111543Y149012D02*
Y149812D01*
X111638Y149012D02*
Y149812D01*
X111733Y149012D02*
Y149812D01*
X111828Y149012D02*
Y149812D01*
X112658Y149012D02*
Y149812D01*
X113258D01*
Y149012D01*
X112658D01*
X112753D02*
Y149812D01*
X112848Y149012D02*
Y149812D01*
X112943Y149012D02*
Y149812D01*
X113038Y149012D02*
Y149812D01*
X113133Y149012D02*
Y149812D01*
X113228Y149012D02*
Y149812D01*
G54D41*
X111320Y152510D02*
X111520D01*
X113520Y151560D02*
X113720D01*
X113520Y153460D02*
X113720D01*
X115320Y152510D02*
X115520D01*
X117520Y151560D02*
X117720D01*
X117520Y153460D02*
X117720D01*
X114418Y154967D03*
Y156567D03*
X111818D03*
Y154967D03*
G54D39*
X113519Y156467D02*
Y156667D01*
X112717Y156467D02*
Y156667D01*
X113519Y154867D02*
Y155067D01*
X112717Y154866D02*
Y155066D01*
G54D15*
X114920Y151300D03*
X115600Y156400D03*
Y150620D03*
X115940Y155040D03*
X110500Y156060D03*
X113900Y149940D03*
X103700Y103360D03*
X100980Y105740D03*
X102000D03*
X103020D03*
X104040Y107100D03*
Y106080D03*
X103360Y121720D03*
Y120700D03*
Y119680D03*
X102000Y123080D03*
X100980D03*
Y122060D03*
X102000D03*
X100980Y109310D03*
X102000D03*
X100980Y108290D03*
X102000D03*
G54D11*
X119900Y98020D02*
X121500D01*
Y96870D01*
X119900D01*
Y98020D01*
Y97925D02*
X121500D01*
X119900Y97830D02*
X121500D01*
X119900Y97735D02*
X121500D01*
X119900Y97640D02*
X121500D01*
X119900Y97545D02*
X121500D01*
X119900Y97450D02*
X121500D01*
X119900Y97355D02*
X121500D01*
X119900Y97260D02*
X121500D01*
X119900Y97165D02*
X121500D01*
X119900Y97070D02*
X121500D01*
X119900Y96975D02*
X121500D01*
X119900Y96880D02*
X121500D01*
X119900Y100670D02*
X121500D01*
Y99520D01*
X119900D01*
Y100670D01*
Y100575D02*
X121500D01*
X119900Y100480D02*
X121500D01*
X119900Y100385D02*
X121500D01*
X119900Y100290D02*
X121500D01*
X119900Y100195D02*
X121500D01*
X119900Y100100D02*
X121500D01*
X119900Y100005D02*
X121500D01*
X119900Y99910D02*
X121500D01*
X119900Y99815D02*
X121500D01*
X119900Y99720D02*
X121500D01*
X119900Y99625D02*
X121500D01*
X119900Y99530D02*
X121500D01*
X119900Y93260D02*
X121500D01*
Y92110D01*
X119900D01*
Y93260D01*
Y93165D02*
X121500D01*
X119900Y93070D02*
X121500D01*
X119900Y92975D02*
X121500D01*
X119900Y92880D02*
X121500D01*
X119900Y92785D02*
X121500D01*
X119900Y92690D02*
X121500D01*
X119900Y92595D02*
X121500D01*
X119900Y92500D02*
X121500D01*
X119900Y92405D02*
X121500D01*
X119900Y92310D02*
X121500D01*
X119900Y92215D02*
X121500D01*
X119900Y92120D02*
X121500D01*
X119900Y95910D02*
X121500D01*
Y94760D01*
X119900D01*
Y95910D01*
Y95815D02*
X121500D01*
X119900Y95720D02*
X121500D01*
X119900Y95625D02*
X121500D01*
X119900Y95530D02*
X121500D01*
X119900Y95435D02*
X121500D01*
X119900Y95340D02*
X121500D01*
X119900Y95245D02*
X121500D01*
X119900Y95150D02*
X121500D01*
X119900Y95055D02*
X121500D01*
X119900Y94960D02*
X121500D01*
X119900Y94865D02*
X121500D01*
X119900Y94770D02*
X121500D01*
X122635Y96665D02*
Y97465D01*
X123235D01*
Y96665D01*
X122635D01*
X122730D02*
Y97465D01*
X122825Y96665D02*
Y97465D01*
X122920Y96665D02*
Y97465D01*
X123015Y96665D02*
Y97465D01*
X123110Y96665D02*
Y97465D01*
X123205Y96665D02*
Y97465D01*
X124035Y96665D02*
Y97465D01*
X124635D01*
Y96665D01*
X124035D01*
X124130D02*
Y97465D01*
X124225Y96665D02*
Y97465D01*
X124320Y96665D02*
Y97465D01*
X124415Y96665D02*
Y97465D01*
X124510Y96665D02*
Y97465D01*
X124605Y96665D02*
Y97465D01*
X122635Y98025D02*
Y98825D01*
X123235D01*
Y98025D01*
X122635D01*
X122730D02*
Y98825D01*
X122825Y98025D02*
Y98825D01*
X122920Y98025D02*
Y98825D01*
X123015Y98025D02*
Y98825D01*
X123110Y98025D02*
Y98825D01*
X123205Y98025D02*
Y98825D01*
X124035Y98025D02*
Y98825D01*
X124635D01*
Y98025D01*
X124035D01*
X124130D02*
Y98825D01*
X124225Y98025D02*
Y98825D01*
X124320Y98025D02*
Y98825D01*
X124415Y98025D02*
Y98825D01*
X124510Y98025D02*
Y98825D01*
X124605Y98025D02*
Y98825D01*
X122635Y95305D02*
Y96105D01*
X123235D01*
Y95305D01*
X122635D01*
X122730D02*
Y96105D01*
X122825Y95305D02*
Y96105D01*
X122920Y95305D02*
Y96105D01*
X123015Y95305D02*
Y96105D01*
X123110Y95305D02*
Y96105D01*
X123205Y95305D02*
Y96105D01*
X124035Y95305D02*
Y96105D01*
X124635D01*
Y95305D01*
X124035D01*
X124130D02*
Y96105D01*
X124225Y95305D02*
Y96105D01*
X124320Y95305D02*
Y96105D01*
X124415Y95305D02*
Y96105D01*
X124510Y95305D02*
Y96105D01*
X124605Y95305D02*
Y96105D01*
X122635Y93945D02*
Y94745D01*
X123235D01*
Y93945D01*
X122635D01*
X122730D02*
Y94745D01*
X122825Y93945D02*
Y94745D01*
X122920Y93945D02*
Y94745D01*
X123015Y93945D02*
Y94745D01*
X123110Y93945D02*
Y94745D01*
X123205Y93945D02*
Y94745D01*
X124035Y93945D02*
Y94745D01*
X124635D01*
Y93945D01*
X124035D01*
X124130D02*
Y94745D01*
X124225Y93945D02*
Y94745D01*
X124320Y93945D02*
Y94745D01*
X124415Y93945D02*
Y94745D01*
X124510Y93945D02*
Y94745D01*
X124605Y93945D02*
Y94745D01*
G54D15*
X122400Y92820D03*
Y99960D03*
X119000D03*
Y92820D03*
X112540Y99960D03*
Y92820D03*
X107100Y91120D03*
X100980Y100980D03*
Y93500D03*
X112540Y91120D03*
X119000D03*
X124780D03*
Y100980D03*
X112540D03*
X119000D03*
X108120D03*
Y93500D03*
G54D11*
X119080Y121130D02*
Y121630D01*
X119454D01*
Y121130D01*
X119080D01*
X119174D02*
Y121630D01*
X119270Y121130D02*
Y121630D01*
X119364Y121130D02*
Y121630D01*
X119906Y121130D02*
Y121630D01*
X120280D01*
Y121130D01*
X119906D01*
X120000D02*
Y121630D01*
X120096Y121130D02*
Y121630D01*
X120190Y121130D02*
Y121630D01*
G54D15*
X117640Y122400D03*
X105740Y121720D03*
X107780D03*
X106760D03*
X120700Y105740D03*
X119680Y105400D03*
X121720Y105740D03*
G54D11*
X111480Y139020D02*
Y139820D01*
X112080D01*
Y139020D01*
X111480D01*
X111575D02*
Y139820D01*
X111670Y139020D02*
Y139820D01*
X111765Y139020D02*
Y139820D01*
X111860Y139020D02*
Y139820D01*
X111955Y139020D02*
Y139820D01*
X112050Y139020D02*
Y139820D01*
X112880Y139020D02*
Y139820D01*
X113480D01*
Y139020D01*
X112880D01*
X112975D02*
Y139820D01*
X113070Y139020D02*
Y139820D01*
X113165Y139020D02*
Y139820D01*
X113260Y139020D02*
Y139820D01*
X113355Y139020D02*
Y139820D01*
X113450Y139020D02*
Y139820D01*
X117040Y156150D02*
Y156650D01*
X117414D01*
Y156150D01*
X117040D01*
X117134D02*
Y156650D01*
X117230Y156150D02*
Y156650D01*
X117324Y156150D02*
Y156650D01*
X117866Y156150D02*
Y156650D01*
X118240D01*
Y156150D01*
X117866D01*
X117960D02*
Y156650D01*
X118056Y156150D02*
Y156650D01*
X118150Y156150D02*
Y156650D01*
G54D15*
X122060Y125120D03*
X115260Y111180D03*
X119680Y116620D03*
Y115600D03*
Y112200D03*
Y111180D03*
Y114240D03*
Y113220D03*
Y117640D03*
G54D41*
X118439Y118435D03*
X116839D03*
Y115835D03*
X118439D03*
G54D39*
X116939Y117536D02*
X116739D01*
X116939Y116734D02*
X116739D01*
X118539Y117536D02*
X118339D01*
X118540Y116734D02*
X118340D01*
G54D41*
X118439Y114015D03*
X116839D03*
Y111415D03*
X118439D03*
G54D39*
X116939Y113116D02*
X116739D01*
X116939Y112314D02*
X116739D01*
X118539Y113116D02*
X118339D01*
X118540Y112314D02*
X118340D01*
G54D15*
X115260Y113560D03*
G54D11*
X115040Y113000D02*
X115540D01*
Y112626D01*
X115040D01*
Y113000D01*
Y112906D02*
X115540D01*
X115040Y112810D02*
X115540D01*
X115040Y112716D02*
X115540D01*
X115040Y112174D02*
X115540D01*
Y111800D01*
X115040D01*
Y112174D01*
Y112080D02*
X115540D01*
X115040Y111984D02*
X115540D01*
X115040Y111890D02*
X115540D01*
G54D15*
X114240Y111860D03*
X115260Y118660D03*
G54D11*
X122465Y130495D02*
Y131295D01*
X123065D01*
Y130495D01*
X122465D01*
X122560D02*
Y131295D01*
X122655Y130495D02*
Y131295D01*
X122750Y130495D02*
Y131295D01*
X122845Y130495D02*
Y131295D01*
X122940Y130495D02*
Y131295D01*
X123035Y130495D02*
Y131295D01*
X123865Y130495D02*
Y131295D01*
X124465D01*
Y130495D01*
X123865D01*
X123960D02*
Y131295D01*
X124055Y130495D02*
Y131295D01*
X124150Y130495D02*
Y131295D01*
X124245Y130495D02*
Y131295D01*
X124340Y130495D02*
Y131295D01*
X124435Y130495D02*
Y131295D01*
X122480Y129290D02*
Y129790D01*
X122854D01*
Y129290D01*
X122480D01*
X122574D02*
Y129790D01*
X122670Y129290D02*
Y129790D01*
X122764Y129290D02*
Y129790D01*
X123306Y129290D02*
Y129790D01*
X123680D01*
Y129290D01*
X123306D01*
X123400D02*
Y129790D01*
X123496Y129290D02*
Y129790D01*
X123590Y129290D02*
Y129790D01*
X122480Y128270D02*
Y128770D01*
X122854D01*
Y128270D01*
X122480D01*
X122574D02*
Y128770D01*
X122670Y128270D02*
Y128770D01*
X122764Y128270D02*
Y128770D01*
X123306Y128270D02*
Y128770D01*
X123680D01*
Y128270D01*
X123306D01*
X123400D02*
Y128770D01*
X123496Y128270D02*
Y128770D01*
X123590Y128270D02*
Y128770D01*
X122465Y126755D02*
Y127555D01*
X123065D01*
Y126755D01*
X122465D01*
X122560D02*
Y127555D01*
X122655Y126755D02*
Y127555D01*
X122750Y126755D02*
Y127555D01*
X122845Y126755D02*
Y127555D01*
X122940Y126755D02*
Y127555D01*
X123035Y126755D02*
Y127555D01*
X123865Y126755D02*
Y127555D01*
X124465D01*
Y126755D01*
X123865D01*
X123960D02*
Y127555D01*
X124055Y126755D02*
Y127555D01*
X124150Y126755D02*
Y127555D01*
X124245Y126755D02*
Y127555D01*
X124340Y126755D02*
Y127555D01*
X124435Y126755D02*
Y127555D01*
G54D15*
X125120Y130900D03*
Y127160D03*
G54D34*
X131860Y158880D03*
Y90050D03*
G54D22*
X130210Y103260D03*
X132750D03*
X130210Y105800D03*
X132750D03*
X130210Y108340D03*
X132750D03*
X130210Y110880D03*
X132750D03*
X130210Y113420D03*
X132750D03*
X130210Y115960D03*
X132750D03*
X130210Y118500D03*
X132750D03*
X130210Y121040D03*
X132750D03*
X130210Y123580D03*
X132750D03*
X130210Y126120D03*
X132750D03*
Y138820D03*
X130210D03*
X132750Y136280D03*
X130210D03*
X132750Y133740D03*
X130210D03*
X132750Y131200D03*
X130210D03*
X132750Y128660D03*
X130210D03*
Y141360D03*
X132750D03*
X130210Y143900D03*
X132750D03*
X130210Y146440D03*
X132750D03*
X130210Y148980D03*
X132750D03*
X130210Y151520D03*
X132750D03*
G54D41*
X125239Y144955D03*
X123639D03*
Y142355D03*
X125239D03*
G54D39*
X123739Y144056D02*
X123539D01*
X123739Y143254D02*
X123539D01*
X125339Y144056D02*
X125139D01*
X125340Y143254D02*
X125140D01*
G54D41*
X125239Y137475D03*
X123639D03*
Y134875D03*
X125239D03*
G54D39*
X123739Y136576D02*
X123539D01*
X123739Y135774D02*
X123539D01*
X125339Y136576D02*
X125139D01*
X125340Y135774D02*
X125140D01*
G54D15*
X128180Y103360D03*
X128520Y102340D03*
G54D11*
X108004Y135410D02*
Y135910D01*
X108380D01*
Y135410D01*
X108004D01*
X108099D02*
Y135910D01*
X108194Y135410D02*
Y135910D01*
X108289Y135410D02*
Y135910D01*
X107178Y135410D02*
Y135910D01*
X107554D01*
Y135410D01*
X107178D01*
X107274D02*
Y135910D01*
X107368Y135410D02*
Y135910D01*
X107464Y135410D02*
Y135910D01*
X107180Y137110D02*
Y137610D01*
X107554D01*
Y137110D01*
X107180D01*
X107274D02*
Y137610D01*
X107370Y137110D02*
Y137610D01*
X107464Y137110D02*
Y137610D01*
X108006Y137110D02*
Y137610D01*
X108380D01*
Y137110D01*
X108006D01*
X108100D02*
Y137610D01*
X108196Y137110D02*
Y137610D01*
X108290Y137110D02*
Y137610D01*
G54D15*
X106420Y135660D03*
X109140Y137360D03*
G54D11*
X105490Y119964D02*
X105990D01*
Y119590D01*
X105490D01*
Y119964D01*
Y119870D02*
X105990D01*
X105490Y119774D02*
X105990D01*
X105490Y119680D02*
X105990D01*
X105490Y120790D02*
X105990D01*
Y120416D01*
X105490D01*
Y120790D01*
Y120696D02*
X105990D01*
X105490Y120600D02*
X105990D01*
X105490Y120506D02*
X105990D01*
G54D15*
X110840Y139060D03*
G54D41*
X120550Y156420D02*
Y156220D01*
X119600Y154220D02*
Y154020D01*
X121500Y154220D02*
Y154020D01*
G54D11*
X115350Y136454D02*
X115850D01*
Y136080D01*
X115350D01*
Y136454D01*
Y136360D02*
X115850D01*
X115350Y136264D02*
X115850D01*
X115350Y136170D02*
X115850D01*
X115350Y137280D02*
X115850D01*
Y136906D01*
X115350D01*
Y137280D01*
Y137186D02*
X115850D01*
X115350Y137090D02*
X115850D01*
X115350Y136996D02*
X115850D01*
G54D15*
X112200Y136680D03*
X114580D03*
G54D41*
X110901Y137627D02*
X111501D01*
X110901Y135727D02*
X111501D01*
X113701Y136677D02*
X113101D01*
X113701Y137627D02*
X113101D01*
X113701Y135727D02*
X113101D01*
G54D15*
X115260Y138720D03*
X112880Y114580D03*
Y116960D03*
G54D41*
X111929Y113298D02*
Y113898D01*
X113829Y113298D02*
Y113898D01*
X112879Y116098D02*
Y115498D01*
X111929Y116098D02*
Y115498D01*
X113829Y116098D02*
Y115498D01*
G54D11*
X112450Y117730D02*
Y118230D01*
X112824D01*
Y117730D01*
X112450D01*
X112544D02*
Y118230D01*
X112640Y117730D02*
Y118230D01*
X112734Y117730D02*
Y118230D01*
X113276Y117730D02*
Y118230D01*
X113650D01*
Y117730D01*
X113276D01*
X113370D02*
Y118230D01*
X113465Y117730D02*
Y118230D01*
X113560Y117730D02*
Y118230D01*
X111480Y118960D02*
Y119760D01*
X112080D01*
Y118960D01*
X111480D01*
X111575D02*
Y119760D01*
X111670Y118960D02*
Y119760D01*
X111765Y118960D02*
Y119760D01*
X111860Y118960D02*
Y119760D01*
X111955Y118960D02*
Y119760D01*
X112050Y118960D02*
Y119760D01*
X112880Y118960D02*
Y119760D01*
X113480D01*
Y118960D01*
X112880D01*
X112975D02*
Y119760D01*
X113070Y118960D02*
Y119760D01*
X113165Y118960D02*
Y119760D01*
X113260Y118960D02*
Y119760D01*
X113355Y118960D02*
Y119760D01*
X113450Y118960D02*
Y119760D01*
G54D15*
X114240Y119340D03*
G54D11*
X124673Y155009D02*
X125673D01*
Y154309D01*
X124673D01*
Y155009D01*
Y154914D02*
X125673D01*
X124673Y154819D02*
X125673D01*
X124673Y154724D02*
X125673D01*
X124673Y154629D02*
X125673D01*
X124673Y154534D02*
X125673D01*
X124673Y154439D02*
X125673D01*
X124673Y154344D02*
X125673D01*
X123023Y155009D02*
X124023D01*
Y154309D01*
X123023D01*
Y155009D01*
Y154914D02*
X124023D01*
X123023Y154819D02*
X124023D01*
X123023Y154724D02*
X124023D01*
X123023Y154629D02*
X124023D01*
X123023Y154534D02*
X124023D01*
X123023Y154439D02*
X124023D01*
X123023Y154344D02*
X124023D01*
X124673Y153359D02*
X125673D01*
Y152659D01*
X124673D01*
Y153359D01*
Y153264D02*
X125673D01*
X124673Y153169D02*
X125673D01*
X124673Y153074D02*
X125673D01*
X124673Y152979D02*
X125673D01*
X124673Y152884D02*
X125673D01*
X124673Y152789D02*
X125673D01*
X124673Y152694D02*
X125673D01*
X123023Y153359D02*
X124023D01*
Y152659D01*
X123023D01*
Y153359D01*
Y153264D02*
X124023D01*
X123023Y153169D02*
X124023D01*
X123023Y153074D02*
X124023D01*
X123023Y152979D02*
X124023D01*
X123023Y152884D02*
X124023D01*
X123023Y152789D02*
X124023D01*
X123023Y152694D02*
X124023D01*
G54D15*
X123420Y151640D03*
G54D11*
X125004Y156150D02*
Y156650D01*
X125380D01*
Y156150D01*
X125004D01*
X125099D02*
Y156650D01*
X125194Y156150D02*
Y156650D01*
X125289Y156150D02*
Y156650D01*
X124178Y156150D02*
Y156650D01*
X124554D01*
Y156150D01*
X124178D01*
X124274D02*
Y156650D01*
X124368Y156150D02*
Y156650D01*
X124464Y156150D02*
Y156650D01*
G54D15*
X126140Y156400D03*
G54D11*
X124180Y151390D02*
Y151890D01*
X124554D01*
Y151390D01*
X124180D01*
X124274D02*
Y151890D01*
X124370Y151390D02*
Y151890D01*
X124464Y151390D02*
Y151890D01*
X125006Y151390D02*
Y151890D01*
X125380D01*
Y151390D01*
X125006D01*
X125100D02*
Y151890D01*
X125196Y151390D02*
Y151890D01*
X125290Y151390D02*
Y151890D01*
G54D15*
X121380Y153000D03*
G54D11*
X118988Y130221D02*
Y130571D01*
X119338D01*
Y130221D01*
X118988D01*
X119083D02*
Y130571D01*
X119178Y130221D02*
Y130571D01*
X119273Y130221D02*
Y130571D01*
X119958Y129821D02*
Y130171D01*
X120308D01*
Y129821D01*
X119958D01*
X120053D02*
Y130171D01*
X120148Y129821D02*
Y130171D01*
X120243Y129821D02*
Y130171D01*
X119958Y130621D02*
Y130971D01*
X120308D01*
Y130621D01*
X119958D01*
X120053D02*
Y130971D01*
X120148Y130621D02*
Y130971D01*
X120243Y130621D02*
Y130971D01*
G54D49*
X117500Y164000D03*
Y85000D03*
G54D23*
X119857Y123953D03*
X117317D03*
X114777D03*
X112237D03*
X109697D03*
X107157D03*
X119857Y103633D03*
X117317D03*
X114777D03*
X112237D03*
X109697D03*
X107157D03*
G54D34*
X143300Y158880D03*
Y90050D03*
G54D29*
X150980Y95010D03*
Y99410D03*
X145480Y99910D03*
Y94510D03*
G54D15*
X150130Y142393D03*
Y143893D03*
Y145393D03*
Y146893D03*
X154253Y144648D03*
G54D26*
X142167Y154491D02*
X142867D01*
X147067Y153891D02*
X147767D01*
X142167Y138791D02*
X142867D01*
X147067Y139391D02*
X147767D01*
G54D16*
X149317Y141891D02*
X147417D01*
X149317Y142391D02*
X147417D01*
X149317Y142891D02*
X147417D01*
X149317Y143391D02*
X147417D01*
X149317Y143891D02*
X147417D01*
X149317Y144391D02*
X147417D01*
X149317Y144891D02*
X147417D01*
X149317Y145391D02*
X147417D01*
X149317Y145891D02*
X147417D01*
X149317Y146391D02*
X147417D01*
X149317Y150891D02*
X147417D01*
X149317Y150391D02*
X147417D01*
X149317Y149891D02*
X147417D01*
X149317Y149391D02*
X147417D01*
X149317Y148891D02*
X147417D01*
X149317Y148391D02*
X147417D01*
X149317Y147891D02*
X147417D01*
X149317Y147391D02*
X147417D01*
X149317Y146891D02*
X147417D01*
G54D11*
X152548Y144773D02*
X153148D01*
Y144523D01*
X152548D01*
Y144773D01*
Y144678D02*
X153148D01*
X152548Y144583D02*
X153148D01*
X151598Y144373D02*
X152198D01*
Y144123D01*
X151598D01*
Y144373D01*
Y144278D02*
X152198D01*
X151598Y144183D02*
X152198D01*
X151598Y145173D02*
X152198D01*
Y144923D01*
X151598D01*
Y145173D01*
Y145078D02*
X152198D01*
X151598Y144983D02*
X152198D01*
X152548Y143973D02*
X153148D01*
Y143723D01*
X152548D01*
Y143973D01*
Y143878D02*
X153148D01*
X152548Y143783D02*
X153148D01*
X152548Y145573D02*
X153148D01*
Y145323D01*
X152548D01*
Y145573D01*
Y145478D02*
X153148D01*
X152548Y145383D02*
X153148D01*
X151598Y143473D02*
X152198D01*
Y143223D01*
X151598D01*
Y143473D01*
Y143378D02*
X152198D01*
X151598Y143283D02*
X152198D01*
X151598Y146073D02*
X152198D01*
Y145823D01*
X151598D01*
Y146073D01*
Y145978D02*
X152198D01*
X151598Y145883D02*
X152198D01*
X152548Y143073D02*
X153148D01*
Y142823D01*
X152548D01*
Y143073D01*
Y142978D02*
X153148D01*
X152548Y142883D02*
X153148D01*
X152548Y146473D02*
X153148D01*
Y146223D01*
X152548D01*
Y146473D01*
Y146378D02*
X153148D01*
X152548Y146283D02*
X153148D01*
G54D31*
X149858Y127676D03*
Y133116D03*
G54D23*
X154588Y130396D03*
X152588D03*
X150588D03*
X156588D03*
G54D31*
X156858Y133116D03*
Y127676D03*
G54D11*
X156470Y99225D02*
X158970D01*
Y97975D01*
X156470D01*
Y99225D01*
Y99130D02*
X158970D01*
X156470Y99035D02*
X158970D01*
X156470Y98940D02*
X158970D01*
X156470Y98845D02*
X158970D01*
X156470Y98750D02*
X158970D01*
X156470Y98655D02*
X158970D01*
X156470Y98560D02*
X158970D01*
X156470Y98465D02*
X158970D01*
X156470Y98370D02*
X158970D01*
X156470Y98275D02*
X158970D01*
X156470Y98180D02*
X158970D01*
X156470Y98085D02*
X158970D01*
X156470Y97990D02*
X158970D01*
X152970Y99225D02*
X155470D01*
Y97975D01*
X152970D01*
Y99225D01*
Y99130D02*
X155470D01*
X152970Y99035D02*
X155470D01*
X152970Y98940D02*
X155470D01*
X152970Y98845D02*
X155470D01*
X152970Y98750D02*
X155470D01*
X152970Y98655D02*
X155470D01*
X152970Y98560D02*
X155470D01*
X152970Y98465D02*
X155470D01*
X152970Y98370D02*
X155470D01*
X152970Y98275D02*
X155470D01*
X152970Y98180D02*
X155470D01*
X152970Y98085D02*
X155470D01*
X152970Y97990D02*
X155470D01*
X156440Y94805D02*
X158940D01*
Y93555D01*
X156440D01*
Y94805D01*
Y94710D02*
X158940D01*
X156440Y94615D02*
X158940D01*
X156440Y94520D02*
X158940D01*
X156440Y94425D02*
X158940D01*
X156440Y94330D02*
X158940D01*
X156440Y94235D02*
X158940D01*
X156440Y94140D02*
X158940D01*
X156440Y94045D02*
X158940D01*
X156440Y93950D02*
X158940D01*
X156440Y93855D02*
X158940D01*
X156440Y93760D02*
X158940D01*
X156440Y93665D02*
X158940D01*
X156440Y93570D02*
X158940D01*
X152940Y94805D02*
X155440D01*
Y93555D01*
X152940D01*
Y94805D01*
Y94710D02*
X155440D01*
X152940Y94615D02*
X155440D01*
X152940Y94520D02*
X155440D01*
X152940Y94425D02*
X155440D01*
X152940Y94330D02*
X155440D01*
X152940Y94235D02*
X155440D01*
X152940Y94140D02*
X155440D01*
X152940Y94045D02*
X155440D01*
X152940Y93950D02*
X155440D01*
X152940Y93855D02*
X155440D01*
X152940Y93760D02*
X155440D01*
X152940Y93665D02*
X155440D01*
X152940Y93570D02*
X155440D01*
X155856Y147960D02*
Y148460D01*
X156230D01*
Y147960D01*
X155856D01*
X155950D02*
Y148460D01*
X156046Y147960D02*
Y148460D01*
X156140Y147960D02*
Y148460D01*
X155029Y147960D02*
Y148460D01*
X155404D01*
Y147960D01*
X155029D01*
X155124D02*
Y148460D01*
X155219Y147960D02*
Y148460D01*
X155314Y147960D02*
Y148460D01*
X155856Y146940D02*
Y147440D01*
X156230D01*
Y146940D01*
X155856D01*
X155950D02*
Y147440D01*
X156046Y146940D02*
Y147440D01*
X156140Y146940D02*
Y147440D01*
X155029Y146940D02*
Y147440D01*
X155404D01*
Y146940D01*
X155029D01*
X155124D02*
Y147440D01*
X155219Y146940D02*
Y147440D01*
X155314Y146940D02*
Y147440D01*
X155856Y145920D02*
Y146420D01*
X156230D01*
Y145920D01*
X155856D01*
X155950D02*
Y146420D01*
X156046Y145920D02*
Y146420D01*
X156140Y145920D02*
Y146420D01*
X155029Y145920D02*
Y146420D01*
X155404D01*
Y145920D01*
X155029D01*
X155124D02*
Y146420D01*
X155219Y145920D02*
Y146420D01*
X155314Y145920D02*
Y146420D01*
X155856Y144900D02*
Y145400D01*
X156230D01*
Y144900D01*
X155856D01*
X155950D02*
Y145400D01*
X156046Y144900D02*
Y145400D01*
X156140Y144900D02*
Y145400D01*
X155029Y144900D02*
Y145400D01*
X155404D01*
Y144900D01*
X155029D01*
X155124D02*
Y145400D01*
X155219Y144900D02*
Y145400D01*
X155314Y144900D02*
Y145400D01*
X155856Y143880D02*
Y144380D01*
X156230D01*
Y143880D01*
X155856D01*
X155950D02*
Y144380D01*
X156046Y143880D02*
Y144380D01*
X156140Y143880D02*
Y144380D01*
X155029Y143880D02*
Y144380D01*
X155404D01*
Y143880D01*
X155029D01*
X155124D02*
Y144380D01*
X155219Y143880D02*
Y144380D01*
X155314Y143880D02*
Y144380D01*
X155856Y142860D02*
Y143360D01*
X156230D01*
Y142860D01*
X155856D01*
X155950D02*
Y143360D01*
X156046Y142860D02*
Y143360D01*
X156140Y142860D02*
Y143360D01*
X155029Y142860D02*
Y143360D01*
X155404D01*
Y142860D01*
X155029D01*
X155124D02*
Y143360D01*
X155219Y142860D02*
Y143360D01*
X155314Y142860D02*
Y143360D01*
X155856Y141840D02*
Y142340D01*
X156230D01*
Y141840D01*
X155856D01*
X155950D02*
Y142340D01*
X156046Y141840D02*
Y142340D01*
X156140Y141840D02*
Y142340D01*
X155029Y141840D02*
Y142340D01*
X155404D01*
Y141840D01*
X155029D01*
X155124D02*
Y142340D01*
X155219Y141840D02*
Y142340D01*
X155314Y141840D02*
Y142340D01*
X155856Y140820D02*
Y141320D01*
X156230D01*
Y140820D01*
X155856D01*
X155950D02*
Y141320D01*
X156046Y140820D02*
Y141320D01*
X156140Y140820D02*
Y141320D01*
X155029Y140820D02*
Y141320D01*
X155404D01*
Y140820D01*
X155029D01*
X155124D02*
Y141320D01*
X155219Y140820D02*
Y141320D01*
X155314Y140820D02*
Y141320D01*
X156784Y148332D02*
X157284D01*
Y147956D01*
X156784D01*
Y148332D01*
Y148236D02*
X157284D01*
X156784Y148142D02*
X157284D01*
X156784Y148046D02*
X157284D01*
X156784Y147506D02*
X157284D01*
Y147130D01*
X156784D01*
Y147506D01*
Y147410D02*
X157284D01*
X156784Y147316D02*
X157284D01*
X156784Y147221D02*
X157284D01*
X156784Y146292D02*
X157284D01*
Y145916D01*
X156784D01*
Y146292D01*
Y146196D02*
X157284D01*
X156784Y146102D02*
X157284D01*
X156784Y146007D02*
X157284D01*
X156784Y145466D02*
X157284D01*
Y145090D01*
X156784D01*
Y145466D01*
Y145370D02*
X157284D01*
X156784Y145276D02*
X157284D01*
X156784Y145180D02*
X157284D01*
X156784Y144252D02*
X157284D01*
Y143876D01*
X156784D01*
Y144252D01*
Y144156D02*
X157284D01*
X156784Y144062D02*
X157284D01*
X156784Y143966D02*
X157284D01*
X156784Y143426D02*
X157284D01*
Y143050D01*
X156784D01*
Y143426D01*
Y143330D02*
X157284D01*
X156784Y143236D02*
X157284D01*
X156784Y143140D02*
X157284D01*
X156784Y142212D02*
X157284D01*
Y141836D01*
X156784D01*
Y142212D01*
Y142116D02*
X157284D01*
X156784Y142022D02*
X157284D01*
X156784Y141926D02*
X157284D01*
X156784Y141386D02*
X157284D01*
Y141010D01*
X156784D01*
Y141386D01*
Y141290D02*
X157284D01*
X156784Y141196D02*
X157284D01*
X156784Y141100D02*
X157284D01*
G54D15*
X150160Y149600D03*
G54D11*
X151258Y149012D02*
Y149812D01*
X151858D01*
Y149012D01*
X151258D01*
X151353D02*
Y149812D01*
X151448Y149012D02*
Y149812D01*
X151543Y149012D02*
Y149812D01*
X151638Y149012D02*
Y149812D01*
X151733Y149012D02*
Y149812D01*
X151828Y149012D02*
Y149812D01*
X152658Y149012D02*
Y149812D01*
X153258D01*
Y149012D01*
X152658D01*
X152753D02*
Y149812D01*
X152848Y149012D02*
Y149812D01*
X152943Y149012D02*
Y149812D01*
X153038Y149012D02*
Y149812D01*
X153133Y149012D02*
Y149812D01*
X153228Y149012D02*
Y149812D01*
G54D41*
X151320Y152510D02*
X151520D01*
X153520Y151560D02*
X153720D01*
X153520Y153460D02*
X153720D01*
X155320Y152510D02*
X155520D01*
X157520Y151560D02*
X157720D01*
X157520Y153460D02*
X157720D01*
X154418Y154967D03*
Y156567D03*
X151818D03*
Y154967D03*
G54D39*
X153519Y156467D02*
Y156667D01*
X152717Y156467D02*
Y156667D01*
X153519Y154867D02*
Y155067D01*
X152717Y154866D02*
Y155066D01*
G54D15*
X154920Y151300D03*
X155600Y156400D03*
Y150620D03*
X155940Y155040D03*
X150500Y156060D03*
X153900Y149940D03*
X143700Y103360D03*
X140980Y105740D03*
X142000D03*
X143020D03*
X144040Y107100D03*
Y106080D03*
X143360Y121720D03*
Y120700D03*
Y119680D03*
X142000Y123080D03*
X140980D03*
Y122060D03*
X142000D03*
X140980Y109310D03*
X142000D03*
X140980Y108290D03*
X142000D03*
G54D11*
X159900Y98020D02*
X161500D01*
Y96870D01*
X159900D01*
Y98020D01*
Y97925D02*
X161500D01*
X159900Y97830D02*
X161500D01*
X159900Y97735D02*
X161500D01*
X159900Y97640D02*
X161500D01*
X159900Y97545D02*
X161500D01*
X159900Y97450D02*
X161500D01*
X159900Y97355D02*
X161500D01*
X159900Y97260D02*
X161500D01*
X159900Y97165D02*
X161500D01*
X159900Y97070D02*
X161500D01*
X159900Y96975D02*
X161500D01*
X159900Y96880D02*
X161500D01*
X159900Y100670D02*
X161500D01*
Y99520D01*
X159900D01*
Y100670D01*
Y100575D02*
X161500D01*
X159900Y100480D02*
X161500D01*
X159900Y100385D02*
X161500D01*
X159900Y100290D02*
X161500D01*
X159900Y100195D02*
X161500D01*
X159900Y100100D02*
X161500D01*
X159900Y100005D02*
X161500D01*
X159900Y99910D02*
X161500D01*
X159900Y99815D02*
X161500D01*
X159900Y99720D02*
X161500D01*
X159900Y99625D02*
X161500D01*
X159900Y99530D02*
X161500D01*
X159900Y93260D02*
X161500D01*
Y92110D01*
X159900D01*
Y93260D01*
Y93165D02*
X161500D01*
X159900Y93070D02*
X161500D01*
X159900Y92975D02*
X161500D01*
X159900Y92880D02*
X161500D01*
X159900Y92785D02*
X161500D01*
X159900Y92690D02*
X161500D01*
X159900Y92595D02*
X161500D01*
X159900Y92500D02*
X161500D01*
X159900Y92405D02*
X161500D01*
X159900Y92310D02*
X161500D01*
X159900Y92215D02*
X161500D01*
X159900Y92120D02*
X161500D01*
X159900Y95910D02*
X161500D01*
Y94760D01*
X159900D01*
Y95910D01*
Y95815D02*
X161500D01*
X159900Y95720D02*
X161500D01*
X159900Y95625D02*
X161500D01*
X159900Y95530D02*
X161500D01*
X159900Y95435D02*
X161500D01*
X159900Y95340D02*
X161500D01*
X159900Y95245D02*
X161500D01*
X159900Y95150D02*
X161500D01*
X159900Y95055D02*
X161500D01*
X159900Y94960D02*
X161500D01*
X159900Y94865D02*
X161500D01*
X159900Y94770D02*
X161500D01*
X162635Y96665D02*
Y97465D01*
X163235D01*
Y96665D01*
X162635D01*
X162730D02*
Y97465D01*
X162825Y96665D02*
Y97465D01*
X162920Y96665D02*
Y97465D01*
X163015Y96665D02*
Y97465D01*
X163110Y96665D02*
Y97465D01*
X163205Y96665D02*
Y97465D01*
X164035Y96665D02*
Y97465D01*
X164635D01*
Y96665D01*
X164035D01*
X164130D02*
Y97465D01*
X164225Y96665D02*
Y97465D01*
X164320Y96665D02*
Y97465D01*
X164415Y96665D02*
Y97465D01*
X164510Y96665D02*
Y97465D01*
X164605Y96665D02*
Y97465D01*
X162635Y98025D02*
Y98825D01*
X163235D01*
Y98025D01*
X162635D01*
X162730D02*
Y98825D01*
X162825Y98025D02*
Y98825D01*
X162920Y98025D02*
Y98825D01*
X163015Y98025D02*
Y98825D01*
X163110Y98025D02*
Y98825D01*
X163205Y98025D02*
Y98825D01*
X164035Y98025D02*
Y98825D01*
X164635D01*
Y98025D01*
X164035D01*
X164130D02*
Y98825D01*
X164225Y98025D02*
Y98825D01*
X164320Y98025D02*
Y98825D01*
X164415Y98025D02*
Y98825D01*
X164510Y98025D02*
Y98825D01*
X164605Y98025D02*
Y98825D01*
X162635Y95305D02*
Y96105D01*
X163235D01*
Y95305D01*
X162635D01*
X162730D02*
Y96105D01*
X162825Y95305D02*
Y96105D01*
X162920Y95305D02*
Y96105D01*
X163015Y95305D02*
Y96105D01*
X163110Y95305D02*
Y96105D01*
X163205Y95305D02*
Y96105D01*
X164035Y95305D02*
Y96105D01*
X164635D01*
Y95305D01*
X164035D01*
X164130D02*
Y96105D01*
X164225Y95305D02*
Y96105D01*
X164320Y95305D02*
Y96105D01*
X164415Y95305D02*
Y96105D01*
X164510Y95305D02*
Y96105D01*
X164605Y95305D02*
Y96105D01*
X162635Y93945D02*
Y94745D01*
X163235D01*
Y93945D01*
X162635D01*
X162730D02*
Y94745D01*
X162825Y93945D02*
Y94745D01*
X162920Y93945D02*
Y94745D01*
X163015Y93945D02*
Y94745D01*
X163110Y93945D02*
Y94745D01*
X163205Y93945D02*
Y94745D01*
X164035Y93945D02*
Y94745D01*
X164635D01*
Y93945D01*
X164035D01*
X164130D02*
Y94745D01*
X164225Y93945D02*
Y94745D01*
X164320Y93945D02*
Y94745D01*
X164415Y93945D02*
Y94745D01*
X164510Y93945D02*
Y94745D01*
X164605Y93945D02*
Y94745D01*
G54D15*
X162400Y92820D03*
Y99960D03*
X159000D03*
Y92820D03*
X152540Y99960D03*
Y92820D03*
X147100Y91120D03*
X140980Y100980D03*
Y93500D03*
X152540Y91120D03*
X159000D03*
X164780D03*
Y100980D03*
X152540D03*
X159000D03*
X148120D03*
Y93500D03*
G54D11*
X159080Y121130D02*
Y121630D01*
X159454D01*
Y121130D01*
X159080D01*
X159174D02*
Y121630D01*
X159270Y121130D02*
Y121630D01*
X159364Y121130D02*
Y121630D01*
X159906Y121130D02*
Y121630D01*
X160281D01*
Y121130D01*
X159906D01*
X160001D02*
Y121630D01*
X160096Y121130D02*
Y121630D01*
X160190Y121130D02*
Y121630D01*
G54D15*
X157640Y122400D03*
X145740Y121720D03*
X147780D03*
X146760D03*
X160700Y105740D03*
X159680Y105400D03*
X161720Y105740D03*
G54D11*
X151480Y139020D02*
Y139820D01*
X152080D01*
Y139020D01*
X151480D01*
X151575D02*
Y139820D01*
X151670Y139020D02*
Y139820D01*
X151765Y139020D02*
Y139820D01*
X151860Y139020D02*
Y139820D01*
X151955Y139020D02*
Y139820D01*
X152050Y139020D02*
Y139820D01*
X152880Y139020D02*
Y139820D01*
X153480D01*
Y139020D01*
X152880D01*
X152975D02*
Y139820D01*
X153070Y139020D02*
Y139820D01*
X153165Y139020D02*
Y139820D01*
X153260Y139020D02*
Y139820D01*
X153355Y139020D02*
Y139820D01*
X153450Y139020D02*
Y139820D01*
X157040Y156150D02*
Y156650D01*
X157414D01*
Y156150D01*
X157040D01*
X157134D02*
Y156650D01*
X157230Y156150D02*
Y156650D01*
X157324Y156150D02*
Y156650D01*
X157866Y156150D02*
Y156650D01*
X158240D01*
Y156150D01*
X157866D01*
X157960D02*
Y156650D01*
X158056Y156150D02*
Y156650D01*
X158150Y156150D02*
Y156650D01*
G54D15*
X162060Y125120D03*
X155260Y111180D03*
X159680Y116620D03*
Y115600D03*
Y112200D03*
Y111180D03*
Y114240D03*
Y113220D03*
Y117640D03*
G54D41*
X158439Y118435D03*
X156839D03*
Y115835D03*
X158439D03*
G54D39*
X156939Y117536D02*
X156739D01*
X156939Y116734D02*
X156739D01*
X158539Y117536D02*
X158339D01*
X158540Y116734D02*
X158340D01*
G54D41*
X158439Y114015D03*
X156839D03*
Y111415D03*
X158439D03*
G54D39*
X156939Y113116D02*
X156739D01*
X156939Y112314D02*
X156739D01*
X158539Y113116D02*
X158339D01*
X158540Y112314D02*
X158340D01*
G54D15*
X155260Y113560D03*
G54D11*
X155040Y113000D02*
X155540D01*
Y112626D01*
X155040D01*
Y113000D01*
Y112906D02*
X155540D01*
X155040Y112810D02*
X155540D01*
X155040Y112716D02*
X155540D01*
X155040Y112174D02*
X155540D01*
Y111800D01*
X155040D01*
Y112174D01*
Y112080D02*
X155540D01*
X155040Y111984D02*
X155540D01*
X155040Y111890D02*
X155540D01*
G54D15*
X154240Y111860D03*
X155260Y118660D03*
G54D11*
X162465Y130495D02*
Y131295D01*
X163065D01*
Y130495D01*
X162465D01*
X162560D02*
Y131295D01*
X162655Y130495D02*
Y131295D01*
X162750Y130495D02*
Y131295D01*
X162845Y130495D02*
Y131295D01*
X162940Y130495D02*
Y131295D01*
X163035Y130495D02*
Y131295D01*
X163865Y130495D02*
Y131295D01*
X164465D01*
Y130495D01*
X163865D01*
X163960D02*
Y131295D01*
X164055Y130495D02*
Y131295D01*
X164150Y130495D02*
Y131295D01*
X164245Y130495D02*
Y131295D01*
X164340Y130495D02*
Y131295D01*
X164435Y130495D02*
Y131295D01*
X162480Y129290D02*
Y129790D01*
X162854D01*
Y129290D01*
X162480D01*
X162574D02*
Y129790D01*
X162670Y129290D02*
Y129790D01*
X162764Y129290D02*
Y129790D01*
X163306Y129290D02*
Y129790D01*
X163680D01*
Y129290D01*
X163306D01*
X163400D02*
Y129790D01*
X163496Y129290D02*
Y129790D01*
X163590Y129290D02*
Y129790D01*
X162480Y128270D02*
Y128770D01*
X162854D01*
Y128270D01*
X162480D01*
X162574D02*
Y128770D01*
X162670Y128270D02*
Y128770D01*
X162764Y128270D02*
Y128770D01*
X163306Y128270D02*
Y128770D01*
X163680D01*
Y128270D01*
X163306D01*
X163400D02*
Y128770D01*
X163496Y128270D02*
Y128770D01*
X163590Y128270D02*
Y128770D01*
X162465Y126755D02*
Y127555D01*
X163065D01*
Y126755D01*
X162465D01*
X162560D02*
Y127555D01*
X162655Y126755D02*
Y127555D01*
X162750Y126755D02*
Y127555D01*
X162845Y126755D02*
Y127555D01*
X162940Y126755D02*
Y127555D01*
X163035Y126755D02*
Y127555D01*
X163865Y126755D02*
Y127555D01*
X164465D01*
Y126755D01*
X163865D01*
X163960D02*
Y127555D01*
X164055Y126755D02*
Y127555D01*
X164150Y126755D02*
Y127555D01*
X164245Y126755D02*
Y127555D01*
X164340Y126755D02*
Y127555D01*
X164435Y126755D02*
Y127555D01*
G54D15*
X165120Y130900D03*
Y127160D03*
G54D34*
X171860Y158880D03*
Y90050D03*
G54D22*
X170210Y103260D03*
X172750D03*
X170210Y105800D03*
X172750D03*
X170210Y108340D03*
X172750D03*
X170210Y110880D03*
X172750D03*
X170210Y113420D03*
X172750D03*
X170210Y115960D03*
X172750D03*
X170210Y118500D03*
X172750D03*
X170210Y121040D03*
X172750D03*
X170210Y123580D03*
X172750D03*
X170210Y126120D03*
X172750D03*
Y138820D03*
X170210D03*
X172750Y136280D03*
X170210D03*
X172750Y133740D03*
X170210D03*
X172750Y131200D03*
X170210D03*
X172750Y128660D03*
X170210D03*
Y141360D03*
X172750D03*
X170210Y143900D03*
X172750D03*
X170210Y146440D03*
X172750D03*
X170210Y148980D03*
X172750D03*
X170210Y151520D03*
X172750D03*
G54D41*
X165239Y144955D03*
X163639D03*
Y142355D03*
X165239D03*
G54D39*
X163739Y144056D02*
X163539D01*
X163739Y143254D02*
X163539D01*
X165339Y144056D02*
X165139D01*
X165340Y143254D02*
X165140D01*
G54D41*
X165239Y137475D03*
X163639D03*
Y134875D03*
X165239D03*
G54D39*
X163739Y136576D02*
X163539D01*
X163739Y135774D02*
X163539D01*
X165339Y136576D02*
X165139D01*
X165340Y135774D02*
X165140D01*
G54D15*
X168180Y103360D03*
X168520Y102340D03*
G54D11*
X148004Y135410D02*
Y135910D01*
X148380D01*
Y135410D01*
X148004D01*
X148100D02*
Y135910D01*
X148194Y135410D02*
Y135910D01*
X148290Y135410D02*
Y135910D01*
X147178Y135410D02*
Y135910D01*
X147554D01*
Y135410D01*
X147178D01*
X147273D02*
Y135910D01*
X147368Y135410D02*
Y135910D01*
X147463Y135410D02*
Y135910D01*
X147180Y137110D02*
Y137610D01*
X147555D01*
Y137110D01*
X147180D01*
X147275D02*
Y137610D01*
X147370Y137110D02*
Y137610D01*
X147465Y137110D02*
Y137610D01*
X148005Y137110D02*
Y137610D01*
X148380D01*
Y137110D01*
X148005D01*
X148100D02*
Y137610D01*
X148195Y137110D02*
Y137610D01*
X148290Y137110D02*
Y137610D01*
G54D15*
X146420Y135660D03*
X149140Y137360D03*
G54D11*
X145490Y119964D02*
X145990D01*
Y119590D01*
X145490D01*
Y119964D01*
Y119870D02*
X145990D01*
X145490Y119774D02*
X145990D01*
X145490Y119680D02*
X145990D01*
X145490Y120790D02*
X145990D01*
Y120416D01*
X145490D01*
Y120790D01*
Y120696D02*
X145990D01*
X145490Y120600D02*
X145990D01*
X145490Y120506D02*
X145990D01*
G54D15*
X150840Y139060D03*
G54D41*
X160550Y156420D02*
Y156220D01*
X159600Y154220D02*
Y154020D01*
X161500Y154220D02*
Y154020D01*
G54D11*
X155350Y136454D02*
X155850D01*
Y136080D01*
X155350D01*
Y136454D01*
Y136360D02*
X155850D01*
X155350Y136264D02*
X155850D01*
X155350Y136170D02*
X155850D01*
X155350Y137280D02*
X155850D01*
Y136906D01*
X155350D01*
Y137280D01*
Y137186D02*
X155850D01*
X155350Y137090D02*
X155850D01*
X155350Y136996D02*
X155850D01*
G54D15*
X152200Y136680D03*
X154580D03*
G54D41*
X150901Y137627D02*
X151501D01*
X150901Y135727D02*
X151501D01*
X153701Y136677D02*
X153101D01*
X153701Y137627D02*
X153101D01*
X153701Y135727D02*
X153101D01*
G54D15*
X155260Y138720D03*
X152880Y114580D03*
Y116960D03*
G54D41*
X151929Y113298D02*
Y113898D01*
X153829Y113298D02*
Y113898D01*
X152879Y116098D02*
Y115498D01*
X151929Y116098D02*
Y115498D01*
X153829Y116098D02*
Y115498D01*
G54D11*
X152450Y117730D02*
Y118230D01*
X152824D01*
Y117730D01*
X152450D01*
X152544D02*
Y118230D01*
X152640Y117730D02*
Y118230D01*
X152734Y117730D02*
Y118230D01*
X153276Y117730D02*
Y118230D01*
X153650D01*
Y117730D01*
X153276D01*
X153370D02*
Y118230D01*
X153466Y117730D02*
Y118230D01*
X153560Y117730D02*
Y118230D01*
X151480Y118960D02*
Y119760D01*
X152080D01*
Y118960D01*
X151480D01*
X151575D02*
Y119760D01*
X151670Y118960D02*
Y119760D01*
X151765Y118960D02*
Y119760D01*
X151860Y118960D02*
Y119760D01*
X151955Y118960D02*
Y119760D01*
X152050Y118960D02*
Y119760D01*
X152880Y118960D02*
Y119760D01*
X153480D01*
Y118960D01*
X152880D01*
X152975D02*
Y119760D01*
X153070Y118960D02*
Y119760D01*
X153165Y118960D02*
Y119760D01*
X153260Y118960D02*
Y119760D01*
X153355Y118960D02*
Y119760D01*
X153450Y118960D02*
Y119760D01*
G54D15*
X154240Y119340D03*
G54D11*
X164673Y155009D02*
X165673D01*
Y154309D01*
X164673D01*
Y155009D01*
Y154914D02*
X165673D01*
X164673Y154819D02*
X165673D01*
X164673Y154724D02*
X165673D01*
X164673Y154629D02*
X165673D01*
X164673Y154534D02*
X165673D01*
X164673Y154439D02*
X165673D01*
X164673Y154344D02*
X165673D01*
X163023Y155009D02*
X164023D01*
Y154309D01*
X163023D01*
Y155009D01*
Y154914D02*
X164023D01*
X163023Y154819D02*
X164023D01*
X163023Y154724D02*
X164023D01*
X163023Y154629D02*
X164023D01*
X163023Y154534D02*
X164023D01*
X163023Y154439D02*
X164023D01*
X163023Y154344D02*
X164023D01*
X164673Y153359D02*
X165673D01*
Y152659D01*
X164673D01*
Y153359D01*
Y153264D02*
X165673D01*
X164673Y153169D02*
X165673D01*
X164673Y153074D02*
X165673D01*
X164673Y152979D02*
X165673D01*
X164673Y152884D02*
X165673D01*
X164673Y152789D02*
X165673D01*
X164673Y152694D02*
X165673D01*
X163023Y153359D02*
X164023D01*
Y152659D01*
X163023D01*
Y153359D01*
Y153264D02*
X164023D01*
X163023Y153169D02*
X164023D01*
X163023Y153074D02*
X164023D01*
X163023Y152979D02*
X164023D01*
X163023Y152884D02*
X164023D01*
X163023Y152789D02*
X164023D01*
X163023Y152694D02*
X164023D01*
G54D15*
X163420Y151640D03*
G54D11*
X165004Y156150D02*
Y156650D01*
X165380D01*
Y156150D01*
X165004D01*
X165100D02*
Y156650D01*
X165194Y156150D02*
Y156650D01*
X165290Y156150D02*
Y156650D01*
X164178Y156150D02*
Y156650D01*
X164554D01*
Y156150D01*
X164178D01*
X164273D02*
Y156650D01*
X164368Y156150D02*
Y156650D01*
X164463Y156150D02*
Y156650D01*
G54D15*
X166140Y156400D03*
G54D11*
X164180Y151390D02*
Y151890D01*
X164555D01*
Y151390D01*
X164180D01*
X164275D02*
Y151890D01*
X164370Y151390D02*
Y151890D01*
X164465Y151390D02*
Y151890D01*
X165005Y151390D02*
Y151890D01*
X165380D01*
Y151390D01*
X165005D01*
X165100D02*
Y151890D01*
X165195Y151390D02*
Y151890D01*
X165290Y151390D02*
Y151890D01*
G54D15*
X161380Y153000D03*
G54D11*
X158988Y130221D02*
Y130571D01*
X159338D01*
Y130221D01*
X158988D01*
X159083D02*
Y130571D01*
X159178Y130221D02*
Y130571D01*
X159273Y130221D02*
Y130571D01*
X159958Y129821D02*
Y130171D01*
X160308D01*
Y129821D01*
X159958D01*
X160053D02*
Y130171D01*
X160148Y129821D02*
Y130171D01*
X160243Y129821D02*
Y130171D01*
X159958Y130621D02*
Y130971D01*
X160308D01*
Y130621D01*
X159958D01*
X160053D02*
Y130971D01*
X160148Y130621D02*
Y130971D01*
X160243Y130621D02*
Y130971D01*
G54D49*
X157500Y164000D03*
Y85000D03*
G54D23*
X159857Y123953D03*
X157317D03*
X154777D03*
X152237D03*
X149697D03*
X147157D03*
X159857Y103633D03*
X157317D03*
X154777D03*
X152237D03*
X149697D03*
X147157D03*
G54D32*
X170000Y80000D03*
G01X0Y0D02*
M02*
