G71*G90*G75*D02*
%ASAXBY*%
%OFA0B0*%
%MOMM*%
%FSLAX43Y43*%
%IPPOS*%
%ADD11C,0.100*%
%ADD14C,0.250*%
%ADD15C,0.300*%
%ADD17C,0.400*%
%ADD19C,0.600*%
%ADD20C,0.700*%
%ADD22C,1.000*%
%ADD25C,1.300*%
%ADD27C,1.600*%
%ADD28C,1.800*%
%ADD30C,2.200*%
%ADD35C,0.175*%
%ADD42R,0.800X0.800*%
%ADD43R,1.000X1.000*%
%ADD45R,1.200X1.200*%
%ADD47R,1.500X1.500*%
G54D22*
G01X105000Y80000D03*
G54D15*
X106800D02*
G02X103200Y80000I-1800J0D01*
X106800Y80000I1800J0D01*
G54D22*
G01X115000Y170000D03*
G54D15*
X116800D02*
G02X113200Y170000I-1800J0D01*
X116800Y170000I1800J0D01*
G54D28*
G01X110980Y95010D03*
Y99410D03*
X105480Y99910D03*
Y94510D03*
G54D19*
X110130Y142393D03*
Y143893D03*
Y145393D03*
Y146893D03*
X114253Y144648D03*
G54D25*
X102167Y154491D02*
X102867D01*
X107067Y153891D02*
X107767D01*
X102167Y138791D02*
X102867D01*
X107067Y139391D02*
X107767D01*
G54D30*
X109858Y127676D03*
Y133116D03*
G54D27*
X114588Y130396D03*
X112588D03*
X110588D03*
X116588D03*
G54D30*
X116858Y133116D03*
Y127676D03*
G54D11*
X101944Y104192D02*
Y104892D01*
X102444D01*
Y104192D01*
X101944D01*
X102039D02*
Y104892D01*
X102134Y104192D02*
Y104892D01*
X102229Y104192D02*
Y104892D01*
X102324Y104192D02*
Y104892D01*
X102419Y104192D02*
Y104892D01*
X103344Y104192D02*
Y104892D01*
X103844D01*
Y104192D01*
X103344D01*
X103439D02*
Y104892D01*
X103534Y104192D02*
Y104892D01*
X103629Y104192D02*
Y104892D01*
X103724Y104192D02*
Y104892D01*
X103819Y104192D02*
Y104892D01*
G54D45*
X112355Y106996D03*
G54D20*
X116405Y108996D02*
X117255D01*
X116405Y110096D02*
X117255D01*
X116405Y111196D02*
X117255D01*
X116405Y112296D02*
X117255D01*
X116405Y113396D02*
X117255D01*
X116405Y114496D02*
X117255D01*
G54D42*
X106155Y106796D02*
Y107196D01*
G54D47*
X101355Y120696D02*
X101755D01*
G54D20*
X116405Y108046D02*
X117255D01*
X116405Y115596D02*
X117255D01*
G54D43*
X116555Y118246D02*
X116955D01*
G54D20*
X116405Y116696D02*
X117255D01*
G54D45*
X101205Y106996D02*
X102805D01*
G54D19*
X110160Y149600D03*
X114920Y151300D03*
X115600Y156400D03*
Y150620D03*
X115940Y155040D03*
G54D17*
X114920Y151300D02*
Y155720D01*
X115600Y156400D01*
G54D35*
Y150620D02*
Y154700D01*
X115940Y155040D01*
G54D19*
X110500Y156060D03*
X113900Y149940D03*
G54D17*
Y151640D01*
X114240Y151980D01*
X110500Y156060D02*
X110840Y156400D01*
G54D14*
X107769Y154961D02*
G02X107769Y152811I0J-1075D01*
G01X107069Y154961D02*
X107769D01*
X107069Y152811D02*
X107769D01*
X107068Y140466D02*
G03X107068Y138316I0J-1075D01*
G01Y140466D02*
X107768D01*
X107068Y138316D02*
X107768D01*
X114540Y150280D02*
X114960D01*
X114540D02*
G02X113274Y150306I-640J-340D01*
G01X113606Y152239D02*
X113274Y151907D01*
Y150306D02*
Y151907D01*
X111167Y155776D02*
X113164D01*
X113606Y152239D02*
Y155334D01*
X113164Y155776D02*
X113606Y155334D01*
G54D17*
X110840Y156400D02*
X113560D01*
X114240Y151980D02*
Y155720D01*
X113560Y156400D01*
G54D14*
X116125Y151120D02*
G02X114960Y150280I-525J-500D01*
G01X116125Y151120D02*
Y154339D01*
X117817Y131930D02*
Y128862D01*
X115940Y131623D02*
Y131898D01*
G02X117817Y131930I918J1218D01*
G01Y128862D02*
G02X115940Y128894I-959J-1186D01*
G01Y129173D02*
Y128894D01*
Y131623D02*
X110840D01*
Y131949D01*
X115940Y129173D02*
X110840D01*
Y128843D01*
Y131949D02*
G03X109365Y131673I-982J1167D01*
G01Y129119D01*
G03X110840Y128843I493J-1443D01*
G54D19*
G01X116858Y133116D02*
X119000D01*
X116858D02*
X114580D01*
X116858D02*
Y135320D01*
X109858Y133116D02*
X112200D01*
X109858D02*
X107440D01*
X109858D02*
Y135320D01*
Y127676D02*
X107440D01*
X109858D02*
X112200D01*
X109858D02*
Y125800D01*
X116858Y127676D02*
X114580D01*
X116858D02*
X119000D01*
X116588Y130396D02*
X118660D01*
G54D14*
X106806Y94512D02*
G02X104156Y94512I-1325J0D01*
X106806Y94512I1325J0D01*
G01X112307Y95008D02*
G02X109657Y95008I-1325J0D01*
X112307Y95008I1325J0D01*
G54D19*
G01X110980Y95010D02*
X113220D01*
X110980D02*
X108800D01*
X110980D02*
Y96900D01*
Y95010D02*
Y93160D01*
X112355Y106996D02*
Y108460D01*
Y106996D02*
Y105570D01*
G54D22*
X101355Y120696D02*
Y122740D01*
X101755Y120696D02*
X103700D01*
X102805Y106996D02*
X104210D01*
X102805D02*
Y105910D01*
X101205Y106996D02*
Y105910D01*
Y106996D02*
Y108800D01*
G54D17*
X106155Y106796D02*
Y105740D01*
G54D19*
X103700Y103360D03*
G54D35*
X103594Y104442D02*
X103700Y104336D01*
Y103360D01*
X102194Y104542D02*
X100980D01*
G54D19*
X107157Y103633D02*
X105400D01*
X107157D02*
Y105400D01*
X109697Y103633D02*
Y105740D01*
X107157Y103633D02*
X109697D01*
X107157Y123953D02*
Y125800D01*
Y123953D02*
X105060D01*
X100980Y105740D03*
X102000D03*
X103020D03*
X104040Y107100D03*
Y106080D03*
X103360Y121720D03*
Y120700D03*
Y119680D03*
X102000Y123080D03*
X100980D03*
Y122060D03*
X102000D03*
X100980Y109310D03*
X102000D03*
X100980Y108290D03*
X102000D03*
G54D14*
X113841Y157035D02*
X110579D01*
X110301Y156757D02*
G03X111167Y155776I199J-697D01*
G01X110579Y157035D02*
X110301Y156757D01*
X107069Y154961D02*
G03X107069Y152811I0J-1075D01*
G01X106806Y99912D02*
G02X104156Y99912I-1325J0D01*
X106806Y99912I1325J0D01*
G01X112307Y99408D02*
G02X109657Y99408I-1325J0D01*
X112307Y99408I1325J0D01*
G54D19*
G01X122400Y92820D03*
Y99960D03*
X119000D03*
Y92820D03*
X112540Y99960D03*
Y92820D03*
X107100Y91120D03*
X100980Y100980D03*
Y93500D03*
X112540Y91120D03*
X119000D03*
X124780D03*
Y100980D03*
X112540D03*
X119000D03*
X108120D03*
Y93500D03*
G54D14*
X125120Y101660D02*
X100980D01*
X125120D02*
X125460Y101320D01*
Y87720D01*
X125267Y87527D02*
X125460Y87720D01*
X106273Y87527D02*
X125267D01*
X106082Y87718D02*
X106273Y87527D01*
X106082Y87718D02*
G03X100974Y92826I-2777J2331D01*
G01X100525Y93275D02*
X100974Y92826D01*
X100525Y101205D02*
Y93275D01*
Y101205D02*
X100980Y101660D01*
X106806Y99912D02*
G02X104156Y99912I-1325J0D01*
X106806Y99912I1325J0D01*
G01Y94512D02*
G02X104156Y94512I-1325J0D01*
X106806Y94512I1325J0D01*
G01X112307Y99408D02*
G02X109657Y99408I-1325J0D01*
X112307Y99408I1325J0D01*
G01Y95008D02*
G02X109657Y95008I-1325J0D01*
X112307Y95008I1325J0D01*
G01X106095Y87705D02*
X125445D01*
X106255Y87942D02*
X125460D01*
X106410Y88179D02*
X125460D01*
X106541Y88416D02*
X125460D01*
X106650Y88653D02*
X125460D01*
X106740Y88890D02*
X125460D01*
X106811Y89127D02*
X125460D01*
X106865Y89364D02*
X125460D01*
X106902Y89601D02*
X125460D01*
X106924Y89838D02*
X125460D01*
X106930Y90075D02*
X125460D01*
X106920Y90312D02*
X125460D01*
X106895Y90549D02*
X125460D01*
X106854Y90786D02*
X125460D01*
X106797Y91023D02*
X125460D01*
X106722Y91260D02*
X125460D01*
X106628Y91497D02*
X125460D01*
X106515Y91734D02*
X125460D01*
X106379Y91971D02*
X125460D01*
X106217Y92208D02*
X125460D01*
X106025Y92445D02*
X125460D01*
X105797Y92682D02*
X125460D01*
X100881Y92919D02*
X101091D01*
X105519D02*
X125460D01*
X100644Y93156D02*
X101438D01*
X105172D02*
X125460D01*
X100525Y93393D02*
X101906D01*
X104704D02*
X104771D01*
X106191D02*
X125460D01*
X100525Y93630D02*
X102742D01*
X103868D02*
X104492D01*
X106470D02*
X125460D01*
X100525Y93867D02*
X104324D01*
X106638D02*
X110308D01*
X111656D02*
X125460D01*
X100525Y94104D02*
X104220D01*
X106742D02*
X110013D01*
X111951D02*
X125460D01*
X100525Y94341D02*
X104167D01*
X106795D02*
X109837D01*
X112127D02*
X125460D01*
X100525Y94578D02*
X104158D01*
X106804D02*
X109729D01*
X112235D02*
X125460D01*
X100525Y94815D02*
X104191D01*
X106771D02*
X109671D01*
X112293D02*
X125460D01*
X100525Y95052D02*
X104271D01*
X106691D02*
X109658D01*
X112306D02*
X125460D01*
X100525Y95289D02*
X104408D01*
X106554D02*
X109687D01*
X112277D02*
X125460D01*
X100525Y95526D02*
X104628D01*
X106334D02*
X109762D01*
X112202D02*
X125460D01*
X100525Y95763D02*
X105044D01*
X105918D02*
X109893D01*
X112071D02*
X125460D01*
X100525Y96000D02*
X110104D01*
X111860D02*
X125460D01*
X100525Y96237D02*
X110487D01*
X111477D02*
X125460D01*
X100525Y96474D02*
X125460D01*
X100525Y96711D02*
X125460D01*
X100525Y96948D02*
X125460D01*
X100525Y97185D02*
X125460D01*
X100525Y97422D02*
X125460D01*
X100525Y97659D02*
X125460D01*
X100525Y97896D02*
X125460D01*
X100525Y98133D02*
X110621D01*
X111343D02*
X125460D01*
X100525Y98370D02*
X110158D01*
X111806D02*
X125460D01*
X100525Y98607D02*
X105252D01*
X105710D02*
X109927D01*
X112037D02*
X125460D01*
X100525Y98844D02*
X104697D01*
X106265D02*
X109783D01*
X112181D02*
X125460D01*
X100525Y99081D02*
X104449D01*
X106513D02*
X109698D01*
X112266D02*
X125460D01*
X100525Y99318D02*
X104297D01*
X106665D02*
X109660D01*
X112304D02*
X125460D01*
X100525Y99555D02*
X104205D01*
X106757D02*
X109665D01*
X112299D02*
X125460D01*
X100525Y99792D02*
X104161D01*
X106801D02*
X109714D01*
X112250D02*
X125460D01*
X100525Y100029D02*
X104161D01*
X106801D02*
X109812D01*
X112152D02*
X125460D01*
X100525Y100266D02*
X104204D01*
X106758D02*
X109972D01*
X111992D02*
X125460D01*
X100525Y100503D02*
X104295D01*
X106667D02*
X110236D01*
X111728D02*
X125460D01*
X100525Y100740D02*
X104447D01*
X106515D02*
X125460D01*
X100525Y100977D02*
X104693D01*
X106269D02*
X125460D01*
X100534Y101214D02*
X105235D01*
X105727D02*
X125460D01*
X100771Y101451D02*
X125329D01*
G54D35*
X117317Y123953D02*
Y123437D01*
X115600Y122740D02*
X116047Y123187D01*
X117317Y123437D02*
X116280Y122400D01*
G54D19*
X117640D03*
G54D35*
X117300Y122060D01*
G54D14*
X119858Y122729D02*
X118286D01*
G02X117639Y121675I-646J-329D01*
G01X117494Y121530D01*
G54D19*
X105740Y121720D03*
X107780D03*
X106760D03*
G54D14*
X107270Y121205D02*
G02X106250Y121205I-510J515D01*
G01X117494Y121530D02*
X108480D01*
G02X107270Y121205I-700J190D01*
G54D35*
G01X117300Y122060D02*
X108120D01*
X107780Y121720D02*
X108120Y122060D01*
X106760Y121720D02*
X107440Y122400D01*
X116280D02*
X107440D01*
X115600Y122740D02*
X106760D01*
X105740Y121720D02*
X106760Y122740D01*
G54D14*
X105732Y122445D02*
G03X106250Y121205I8J-725D01*
G01X106334Y123047D02*
G02X107158Y125179I824J907D01*
G01X105732Y122445D02*
X106334Y123047D01*
G54D35*
X116047Y123187D02*
Y124547D01*
X116620Y125120D02*
X116047Y124547D01*
G54D19*
X116858Y127676D02*
Y125866D01*
G54D14*
X107158Y125179D02*
X115945D01*
X116409Y125643D02*
X115945Y125179D01*
G54D19*
X120700Y105740D03*
X119680Y105400D03*
G54D35*
X120360Y106080D02*
X120700Y105740D01*
X117317Y103633D02*
Y103717D01*
X119000Y105400D01*
X119680D02*
X119000D01*
X112237Y103633D02*
X113834Y105230D01*
X114777Y103633D02*
X116034Y104890D01*
X117810D01*
X113834Y105230D02*
X117470D01*
X120360Y106080D02*
X119000D01*
X117810Y104890D02*
X119000Y106080D01*
X117470Y105230D02*
X118660Y106420D01*
G54D19*
X121720Y105740D03*
G54D35*
X118660Y106420D02*
X121040D01*
X121720Y105740D02*
X121040Y106420D01*
G54D19*
X122060Y125120D03*
G54D35*
X116620D02*
X122060D01*
G54D14*
X116409Y125643D02*
X121558D01*
G02X121549Y124606I502J-523D01*
G01X120895D01*
G02X119858Y122729I-1037J-652D01*
G54D19*
G01X115260Y111180D03*
X116405Y111196D02*
X115276D01*
X115260Y111180D02*
X115276Y111196D01*
X119680Y116620D03*
Y115600D03*
Y112200D03*
Y111180D03*
Y114240D03*
Y113220D03*
Y117640D03*
G54D35*
X120360Y110500D02*
Y116960D01*
X119680Y117640D02*
X120360Y116960D01*
X119680Y113220D02*
X118756Y112296D01*
X117255D01*
X119680Y112200D02*
X117576Y110096D01*
X117255D02*
X117576D01*
X117255Y108996D02*
X117496D01*
X119680Y111180D02*
X117496Y108996D01*
X117255Y108046D02*
X117906D01*
X120360Y110500D02*
X117906Y108046D01*
X117255Y114496D02*
X119424D01*
X119680Y114240D02*
X119424Y114496D01*
X119680Y115600D02*
X119684Y115596D01*
X117255D02*
X119684D01*
X119680Y116620D02*
X119604Y116696D01*
X117255D02*
X119604D01*
G54D19*
X115260Y113560D03*
X115600D01*
X116405Y113396D02*
X115764D01*
X115600Y113560D01*
X114240Y111860D03*
G54D35*
Y113560D02*
X115260Y114580D01*
X114240Y111860D02*
Y113560D01*
G54D19*
X115260Y118660D03*
G54D35*
Y114580D02*
Y118660D01*
G54D19*
X125120Y130900D03*
Y127160D03*
X124440Y96390D02*
X127160D01*
G54D27*
X130210Y103260D03*
X132750D03*
X130210Y105800D03*
X132750D03*
X130210Y108340D03*
X132750D03*
X130210Y110880D03*
X132750D03*
X130210Y113420D03*
X132750D03*
X130210Y115960D03*
X132750D03*
X130210Y118500D03*
X132750D03*
X130210Y121040D03*
X132750D03*
X130210Y123580D03*
X132750D03*
X130210Y126120D03*
X132750D03*
Y138820D03*
X130210D03*
X132750Y136280D03*
X130210D03*
X132750Y133740D03*
X130210D03*
X132750Y131200D03*
X130210D03*
X132750Y128660D03*
X130210D03*
Y141360D03*
X132750D03*
X130210Y143900D03*
X132750D03*
X130210Y146440D03*
X132750D03*
X130210Y148980D03*
X132750D03*
X130210Y151520D03*
X132750D03*
X130210Y138820D02*
X126820D01*
X130210Y115960D02*
X126820D01*
G54D35*
X132750Y110880D02*
X131480Y109610D01*
X130210Y110880D02*
X129580D01*
X128180Y109480D02*
X129580Y110880D01*
G54D19*
X128180Y103360D03*
X128520Y102340D03*
G54D35*
X128860Y102680D01*
Y109140D01*
X128180Y109480D02*
Y103360D01*
X131480Y109610D02*
X129330D01*
X128860Y109140D01*
G54D19*
X106420Y135660D03*
X109140Y137360D03*
G54D35*
Y139400D01*
X109820Y140080D01*
G54D14*
X109662Y139179D02*
X110049Y139566D01*
X109662Y139179D02*
Y137863D01*
G02X108628Y137873I-522J-503D01*
G01X116125Y154339D02*
G03X116280Y155680I-185J701D01*
G01Y156149D02*
Y155680D01*
Y156149D02*
G03X114960Y156740I-680J251D01*
G01X114136D01*
X113841Y157035D02*
X114136Y156740D01*
X102866Y139870D02*
G02X102866Y137720I0J-1075D01*
G01X102166D02*
G02X102166Y139870I0J1075D01*
G01X102866D01*
X102166Y137720D02*
X102866D01*
X107768Y140466D02*
G02X108654Y140000I0J-1075D01*
G01X109612Y140603D02*
X109009Y140000D01*
X108654D02*
X109009D01*
X108296Y138454D02*
G02X107768Y138316I-528J937D01*
G01X108628Y137873D02*
Y138122D01*
X108296Y138454D02*
X108628Y138122D01*
G54D19*
X116955Y118246D02*
X118320D01*
X116555D02*
Y119680D01*
X110840Y139060D03*
X112200Y136680D03*
X114580D03*
X115260Y138720D03*
G54D14*
X115268Y139445D02*
G02X114535Y138716I-8J-725D01*
G01X109612Y140603D02*
X114110D01*
X115268Y139445D02*
X114110Y140603D01*
G54D35*
X109820Y140080D02*
X113900D01*
X115260Y138720D02*
X113900Y140080D01*
G54D14*
X110049Y139566D02*
X113685D01*
X114535Y138716D02*
X113685Y139566D01*
G54D19*
X112880Y114580D03*
Y116960D03*
X114240Y119340D03*
X123420Y151640D03*
X126140Y156400D03*
X121380Y153000D03*
G54D14*
X103757Y155097D02*
G02X102866Y153420I-891J-602D01*
G01X102166D02*
X102866D01*
X102166D02*
G02X101243Y153943I0J1075D01*
G01X100525Y153225D02*
X101243Y153943D01*
X100525Y122175D02*
Y153225D01*
X100825Y121875D02*
X100525Y122175D01*
X102943Y121875D02*
X100825D01*
X102943D02*
Y119517D01*
X102170D01*
Y116620D02*
Y119517D01*
Y116620D02*
X100980D01*
X100699Y116339D01*
G02X100525Y109996I-12199J-2839D01*
G01Y108405D01*
X100901Y108029D01*
X102340D02*
X100901D01*
X102340Y108800D02*
Y108029D01*
X109820Y108800D02*
X102340D01*
X109820D02*
Y117470D01*
X111860D01*
Y108043D01*
X113390D02*
X111860D01*
X113390D02*
Y107780D01*
X115260D01*
X115566Y108086D02*
X115260Y107780D01*
X115566Y108086D02*
Y111554D01*
X115260Y111860D02*
X115566Y111554D01*
X115260Y111860D02*
X114965D01*
G02X113718Y112363I-725J0D01*
G01Y113769D02*
Y112363D01*
X114738Y114789D02*
X113718Y113769D01*
X114738Y114789D02*
Y118157D01*
G02X115759Y119186I522J503D01*
G01X117892D02*
X115759D01*
X117892D02*
Y117640D01*
X118955D01*
G02X120405Y117651I725J0D01*
G01X120884Y117172D02*
X120405Y117651D01*
X120884Y117172D02*
Y110286D01*
X117868Y107270D01*
X116450D02*
X117868D01*
X116450Y106420D02*
Y107270D01*
Y106420D02*
X113390D01*
Y105949D01*
X111336D01*
Y106420D02*
Y105949D01*
Y106420D02*
X107950D01*
Y107440D02*
Y106420D01*
Y107440D02*
X106994D01*
Y105964D02*
Y107440D01*
X105329Y105964D02*
X106994D01*
X105329D02*
Y107440D01*
X103837D02*
X105329D01*
X103837Y105962D02*
Y107440D01*
Y105962D02*
X101320D01*
Y105373D01*
X104313D02*
X101320D01*
X104313D02*
Y103747D01*
G02X103073Y103724I-613J-387D01*
G01X101470D02*
X103073D01*
X101470D02*
Y105962D01*
X100862D02*
X101470D01*
X100862D02*
X100525Y105625D01*
Y102673D01*
X100980Y102218D02*
X100525Y102673D01*
X100980Y102218D02*
X109140D01*
Y102409D02*
Y102218D01*
X107158Y102409D02*
X109140D01*
X107158D02*
G02X107158Y104859I0J1225D01*
G01X112736D01*
X113633Y105756D01*
X117250D01*
X118450Y106956D01*
X121232D01*
X121723Y106465D02*
X121232Y106956D01*
X121723Y106465D02*
G02X121210Y105225I-3J-725D01*
X120656Y105016I-510J515D01*
G01X120382Y104742D02*
X120656Y105016D01*
X120382Y104742D02*
G02X119858Y102409I-524J-1108D01*
G01X108800D01*
Y102218D01*
X125345D01*
X126023Y101540D01*
Y87837D01*
X126333Y87527D01*
X127987D01*
X128350Y87890D02*
X127987Y87527D01*
X128350Y101635D02*
Y87890D01*
Y101635D02*
G02X127889Y102696I170J705D01*
X127656Y103861I291J664D01*
G01Y109692D01*
X128350Y110386D01*
Y161160D01*
X127873Y161637D02*
X128350Y161160D01*
X106217Y161637D02*
X127873D01*
X106217D02*
X105943Y161363D01*
G02X103971Y155311I-2636J-2488D01*
G01X103757Y155097D01*
X107069Y152811D02*
X107769D01*
X107069D02*
G02X107069Y154961I0J1075D01*
G01X107769D01*
G02X107769Y152811I0J-1075D01*
G01X111167Y155776D02*
G02X110301Y156757I-667J284D01*
G01X110579Y157035D02*
X110301Y156757D01*
X113841Y157035D02*
X110579D01*
X113841D02*
X114136Y156740D01*
X114960D02*
X114136D01*
X114960D02*
G02X116280Y156149I640J-340D01*
G01Y155680D01*
G02X116125Y154339I-340J-640D01*
G01Y151120D02*
Y154339D01*
Y151120D02*
G02X114960Y150280I-525J-500D01*
G01X114540D02*
X114960D01*
X114540D02*
G02X113274Y150306I-640J-340D01*
G01Y151907D01*
X113606Y152239D02*
X113274Y151907D01*
X113606Y152239D02*
Y155334D01*
X113164Y155776D02*
X113606Y155334D01*
X111167Y155776D02*
X113164D01*
X102866Y139870D02*
G02X102866Y137720I0J-1075D01*
G01X102166D02*
X102866D01*
X102166D02*
G02X102166Y139870I0J1075D01*
G01X102866D01*
X107068Y140466D02*
G03X107068Y138316I0J-1075D01*
G01Y140466D02*
X107768D01*
G02X108654Y140000I0J-1075D01*
G01X109009D01*
X109612Y140603D02*
X109009Y140000D01*
X109612Y140603D02*
X114110D01*
X115268Y139445D02*
X114110Y140603D01*
X115268Y139445D02*
G02X114535Y138716I-8J-725D01*
G01X113685Y139566D01*
X110049D02*
X113685D01*
X109662Y139179D02*
X110049Y139566D01*
X109662Y139179D02*
Y137863D01*
G02X108628Y137873I-522J-503D01*
G01Y138122D01*
X108296Y138454D02*
X108628Y138122D01*
X108296Y138454D02*
G02X107768Y138316I-528J937D01*
G01X107068D02*
X107768D01*
X109365Y131673D02*
G02X110840Y131949I493J1443D01*
G01Y131623D02*
Y131949D01*
X115940Y131623D02*
X110840D01*
X115940D02*
Y131898D01*
G02X117817Y131930I918J1218D01*
G01Y128862D01*
G02X115940Y128894I-959J-1186D01*
G01Y129173D02*
Y128894D01*
Y129173D02*
X110840D01*
Y128843D01*
G02X109365Y129119I-982J-1167D01*
G01Y131673D02*
Y129119D01*
X107158Y125179D02*
G03X106334Y123047I0J-1225D01*
G01X107158Y125179D02*
X115945D01*
X116409Y125643D02*
X115945Y125179D01*
X116409Y125643D02*
X121558D01*
G02X121549Y124606I502J-523D01*
G01X120895D01*
G02X119858Y122729I-1037J-652D01*
G01X118286D01*
G02X117639Y121675I-646J-329D01*
G01X117494Y121530D01*
X108480D01*
G02X107270Y121205I-700J190D01*
X106250Y121205I-510J515D01*
X105732Y122445I-510J515D01*
G01X106334Y123047D01*
X126155Y87705D02*
X128165D01*
X126023Y87942D02*
X128350D01*
X126023Y88179D02*
X128350D01*
X126023Y88416D02*
X128350D01*
X126023Y88653D02*
X128350D01*
X126023Y88890D02*
X128350D01*
X126023Y89127D02*
X128350D01*
X126023Y89364D02*
X128350D01*
X126023Y89601D02*
X128350D01*
X126023Y89838D02*
X128350D01*
X126023Y90075D02*
X128350D01*
X126023Y90312D02*
X128350D01*
X126023Y90549D02*
X128350D01*
X126023Y90786D02*
X128350D01*
X126023Y91023D02*
X128350D01*
X126023Y91260D02*
X128350D01*
X126023Y91497D02*
X128350D01*
X126023Y91734D02*
X128350D01*
X126023Y91971D02*
X128350D01*
X126023Y92208D02*
X128350D01*
X126023Y92445D02*
X128350D01*
X126023Y92682D02*
X128350D01*
X126023Y92919D02*
X128350D01*
X126023Y93156D02*
X128350D01*
X126023Y93393D02*
X128350D01*
X126023Y93630D02*
X128350D01*
X126023Y93867D02*
X128350D01*
X126023Y94104D02*
X128350D01*
X126023Y94341D02*
X128350D01*
X126023Y94578D02*
X128350D01*
X126023Y94815D02*
X128350D01*
X126023Y95052D02*
X128350D01*
X126023Y95289D02*
X128350D01*
X126023Y95526D02*
X128350D01*
X126023Y95763D02*
X128350D01*
X126023Y96000D02*
X128350D01*
X126023Y96237D02*
X128350D01*
X126023Y96474D02*
X128350D01*
X126023Y96711D02*
X128350D01*
X126023Y96948D02*
X128350D01*
X126023Y97185D02*
X128350D01*
X126023Y97422D02*
X128350D01*
X126023Y97659D02*
X128350D01*
X126023Y97896D02*
X128350D01*
X126023Y98133D02*
X128350D01*
X126023Y98370D02*
X128350D01*
X126023Y98607D02*
X128350D01*
X126023Y98844D02*
X128350D01*
X126023Y99081D02*
X128350D01*
X126023Y99318D02*
X128350D01*
X126023Y99555D02*
X128350D01*
X126023Y99792D02*
X128350D01*
X126023Y100029D02*
X128350D01*
X126023Y100266D02*
X128350D01*
X126023Y100503D02*
X128350D01*
X126023Y100740D02*
X128350D01*
X126023Y100977D02*
X128350D01*
X126023Y101214D02*
X128350D01*
X126023Y101451D02*
X128350D01*
X125875Y101688D02*
X128203D01*
X125638Y101925D02*
X127926D01*
X125401Y102162D02*
X127817D01*
X100799Y102399D02*
X108800D01*
X109140D02*
X127797D01*
X100562Y102636D02*
X103662D01*
X103738D02*
X106448D01*
X120568D02*
X127858D01*
X100525Y102873D02*
X103163D01*
X104237D02*
X106198D01*
X120818D02*
X127643D01*
X100525Y103110D02*
X103019D01*
X104381D02*
X106051D01*
X120965D02*
X127499D01*
X100525Y103347D02*
X102975D01*
X104425D02*
X105967D01*
X121049D02*
X127455D01*
X100525Y103584D02*
X103010D01*
X104390D02*
X105934D01*
X121082D02*
X127490D01*
X100525Y103821D02*
X101470D01*
X104313D02*
X105947D01*
X121069D02*
X127620D01*
X100525Y104058D02*
X101470D01*
X104313D02*
X106009D01*
X121007D02*
X127656D01*
X100525Y104295D02*
X101470D01*
X104313D02*
X106127D01*
X120889D02*
X127656D01*
X100525Y104532D02*
X101470D01*
X104313D02*
X106325D01*
X120691D02*
X127656D01*
X100525Y104769D02*
X101470D01*
X104313D02*
X106697D01*
X120409D02*
X127656D01*
X100525Y105006D02*
X101470D01*
X104313D02*
X112883D01*
X120646D02*
X127656D01*
X100525Y105243D02*
X101470D01*
X104313D02*
X113120D01*
X122248D02*
X127656D01*
X100525Y105480D02*
X101320D01*
X101470D02*
X113357D01*
X122397D02*
X127656D01*
X100617Y105717D02*
X101320D01*
X101470D02*
X113594D01*
X122445D02*
X127656D01*
X100854Y105954D02*
X101320D01*
X101470D02*
X111336D01*
X113390D02*
X117448D01*
X122413D02*
X127656D01*
X103837Y106191D02*
X105329D01*
X106994D02*
X111336D01*
X113390D02*
X117685D01*
X122288D02*
X127656D01*
X103837Y106428D02*
X105329D01*
X106994D02*
X107950D01*
X116450D02*
X117922D01*
X121949D02*
X127656D01*
X103837Y106665D02*
X105329D01*
X106994D02*
X107950D01*
X116450D02*
X118159D01*
X121523D02*
X127656D01*
X103837Y106902D02*
X105329D01*
X106994D02*
X107950D01*
X116450D02*
X118396D01*
X121286D02*
X127656D01*
X103837Y107139D02*
X105329D01*
X106994D02*
X107950D01*
X116450D02*
X127656D01*
X103837Y107376D02*
X105329D01*
X106994D02*
X107950D01*
X117974D02*
X127656D01*
X118211Y107613D02*
X127656D01*
X113390Y107850D02*
X115330D01*
X118448D02*
X127656D01*
X100843Y108087D02*
X102340D01*
X111860D02*
X115566D01*
X118685D02*
X127656D01*
X100606Y108324D02*
X102340D01*
X111860D02*
X115566D01*
X118922D02*
X127656D01*
X100525Y108561D02*
X102340D01*
X111860D02*
X115566D01*
X119159D02*
X127656D01*
X100525Y108798D02*
X102340D01*
X111860D02*
X115566D01*
X119396D02*
X127656D01*
X100525Y109035D02*
X109820D01*
X111860D02*
X115566D01*
X119633D02*
X127656D01*
X100525Y109272D02*
X109820D01*
X111860D02*
X115566D01*
X119870D02*
X127656D01*
X100525Y109509D02*
X109820D01*
X111860D02*
X115566D01*
X120107D02*
X127656D01*
X100525Y109746D02*
X109820D01*
X111860D02*
X115566D01*
X120344D02*
X127710D01*
X100525Y109983D02*
X109820D01*
X111860D02*
X115566D01*
X120581D02*
X127947D01*
X100588Y110220D02*
X109820D01*
X111860D02*
X115566D01*
X120818D02*
X128184D01*
X100650Y110457D02*
X109820D01*
X111860D02*
X115566D01*
X120884D02*
X128350D01*
X100707Y110694D02*
X109820D01*
X111860D02*
X115566D01*
X120884D02*
X128350D01*
X100759Y110931D02*
X109820D01*
X111860D02*
X115566D01*
X120884D02*
X128350D01*
X100806Y111168D02*
X109820D01*
X111860D02*
X114024D01*
X114456D02*
X115566D01*
X120884D02*
X128350D01*
X100849Y111405D02*
X109820D01*
X111860D02*
X113676D01*
X114804D02*
X115566D01*
X120884D02*
X128350D01*
X100886Y111642D02*
X109820D01*
X111860D02*
X113549D01*
X114931D02*
X115478D01*
X120884D02*
X128350D01*
X100920Y111879D02*
X109820D01*
X111860D02*
X113515D01*
X120884D02*
X128350D01*
X100948Y112116D02*
X109820D01*
X111860D02*
X113562D01*
X120884D02*
X128350D01*
X100972Y112353D02*
X109820D01*
X111860D02*
X113708D01*
X120884D02*
X128350D01*
X100992Y112590D02*
X109820D01*
X111860D02*
X113718D01*
X120884D02*
X128350D01*
X101007Y112827D02*
X109820D01*
X111860D02*
X113718D01*
X120884D02*
X128350D01*
X101017Y113064D02*
X109820D01*
X111860D02*
X113718D01*
X120884D02*
X128350D01*
X101023Y113301D02*
X109820D01*
X111860D02*
X113718D01*
X120884D02*
X128350D01*
X101025Y113538D02*
X109820D01*
X111860D02*
X113718D01*
X120884D02*
X128350D01*
X101022Y113775D02*
X109820D01*
X111860D02*
X113724D01*
X120884D02*
X128350D01*
X101015Y114012D02*
X109820D01*
X111860D02*
X113961D01*
X120884D02*
X128350D01*
X101003Y114249D02*
X109820D01*
X111860D02*
X114198D01*
X120884D02*
X128350D01*
X100986Y114486D02*
X109820D01*
X111860D02*
X114435D01*
X120884D02*
X128350D01*
X100965Y114723D02*
X109820D01*
X111860D02*
X114672D01*
X120884D02*
X128350D01*
X100940Y114960D02*
X109820D01*
X111860D02*
X114738D01*
X120884D02*
X128350D01*
X100910Y115197D02*
X109820D01*
X111860D02*
X114738D01*
X120884D02*
X128350D01*
X100875Y115434D02*
X109820D01*
X111860D02*
X114738D01*
X120884D02*
X128350D01*
X100835Y115671D02*
X109820D01*
X111860D02*
X114738D01*
X120884D02*
X128350D01*
X100791Y115908D02*
X109820D01*
X111860D02*
X114738D01*
X120884D02*
X128350D01*
X100743Y116145D02*
X109820D01*
X111860D02*
X114738D01*
X120884D02*
X128350D01*
X100742Y116382D02*
X109820D01*
X111860D02*
X114738D01*
X120884D02*
X128350D01*
X100979Y116619D02*
X109820D01*
X111860D02*
X114738D01*
X120884D02*
X128350D01*
X102170Y116856D02*
X109820D01*
X111860D02*
X114738D01*
X120884D02*
X128350D01*
X102170Y117093D02*
X109820D01*
X111860D02*
X114738D01*
X120884D02*
X128350D01*
X102170Y117330D02*
X109820D01*
X111860D02*
X114738D01*
X120726D02*
X128350D01*
X102170Y117567D02*
X114738D01*
X120489D02*
X128350D01*
X102170Y117804D02*
X114738D01*
X117892D02*
X118974D01*
X120386D02*
X128350D01*
X102170Y118041D02*
X114738D01*
X117892D02*
X119076D01*
X120284D02*
X128350D01*
X102170Y118278D02*
X114644D01*
X117892D02*
X119336D01*
X120024D02*
X128350D01*
X102170Y118515D02*
X114550D01*
X117892D02*
X128350D01*
X102170Y118752D02*
X114541D01*
X117892D02*
X128350D01*
X102170Y118989D02*
X114614D01*
X117892D02*
X128350D01*
X102170Y119226D02*
X114807D01*
X115713D02*
X128350D01*
X102170Y119463D02*
X128350D01*
X102943Y119700D02*
X128350D01*
X102943Y119937D02*
X128350D01*
X102943Y120174D02*
X128350D01*
X102943Y120411D02*
X128350D01*
X102943Y120648D02*
X128350D01*
X102943Y120885D02*
X128350D01*
X102943Y121122D02*
X105330D01*
X106150D02*
X106350D01*
X107170D02*
X107370D01*
X108190D02*
X128350D01*
X102943Y121359D02*
X105111D01*
X108409D02*
X128350D01*
X102943Y121596D02*
X105026D01*
X117560D02*
X128350D01*
X102943Y121833D02*
X105024D01*
X118092D02*
X128350D01*
X100630Y122070D02*
X105105D01*
X118286D02*
X128350D01*
X100525Y122307D02*
X105314D01*
X118359D02*
X128350D01*
X100525Y122544D02*
X105831D01*
X118351D02*
X128350D01*
X100525Y122781D02*
X106068D01*
X120211D02*
X128350D01*
X100525Y123018D02*
X106305D01*
X120648D02*
X128350D01*
X100525Y123255D02*
X106152D01*
X120864D02*
X128350D01*
X100525Y123492D02*
X106023D01*
X120993D02*
X128350D01*
X100525Y123729D02*
X105954D01*
X121062D02*
X128350D01*
X100525Y123966D02*
X105933D01*
X121083D02*
X128350D01*
X100525Y124203D02*
X105959D01*
X121057D02*
X128350D01*
X100525Y124440D02*
X106034D01*
X120982D02*
X121809D01*
X122311D02*
X128350D01*
X100525Y124677D02*
X106169D01*
X122634D02*
X128350D01*
X100525Y124914D02*
X106397D01*
X122755D02*
X128350D01*
X100525Y125151D02*
X106898D01*
X122784D02*
X128350D01*
X100525Y125388D02*
X116154D01*
X122734D02*
X128350D01*
X100525Y125625D02*
X116391D01*
X122580D02*
X128350D01*
X100525Y125862D02*
X128350D01*
X100525Y126099D02*
X128350D01*
X100525Y126336D02*
X109130D01*
X110586D02*
X116130D01*
X117586D02*
X128350D01*
X100525Y126573D02*
X108805D01*
X110911D02*
X115805D01*
X117911D02*
X128350D01*
X100525Y126810D02*
X108603D01*
X111113D02*
X115603D01*
X118113D02*
X128350D01*
X100525Y127047D02*
X108469D01*
X111247D02*
X115469D01*
X118247D02*
X128350D01*
X100525Y127284D02*
X108384D01*
X111332D02*
X115384D01*
X118332D02*
X128350D01*
X100525Y127521D02*
X108341D01*
X111375D02*
X115341D01*
X118375D02*
X128350D01*
X100525Y127758D02*
X108335D01*
X111381D02*
X115335D01*
X118381D02*
X128350D01*
X100525Y127995D02*
X108367D01*
X111349D02*
X115367D01*
X118349D02*
X128350D01*
X100525Y128232D02*
X108438D01*
X111278D02*
X115438D01*
X118278D02*
X128350D01*
X100525Y128469D02*
X108555D01*
X111161D02*
X115555D01*
X118161D02*
X128350D01*
X100525Y128706D02*
X108733D01*
X110983D02*
X115733D01*
X117983D02*
X128350D01*
X100525Y128943D02*
X109009D01*
X110840D02*
X115940D01*
X117817D02*
X128350D01*
X100525Y129180D02*
X109365D01*
X117817D02*
X128350D01*
X100525Y129417D02*
X109365D01*
X117817D02*
X128350D01*
X100525Y129654D02*
X109365D01*
X117817D02*
X128350D01*
X100525Y129891D02*
X109365D01*
X117817D02*
X128350D01*
X100525Y130128D02*
X109365D01*
X117817D02*
X128350D01*
X100525Y130365D02*
X109365D01*
X117817D02*
X128350D01*
X100525Y130602D02*
X109365D01*
X117817D02*
X128350D01*
X100525Y130839D02*
X109365D01*
X117817D02*
X128350D01*
X100525Y131076D02*
X109365D01*
X117817D02*
X128350D01*
X100525Y131313D02*
X109365D01*
X117817D02*
X128350D01*
X100525Y131550D02*
X109365D01*
X117817D02*
X128350D01*
X100525Y131787D02*
X109110D01*
X110840D02*
X115940D01*
X117817D02*
X128350D01*
X100525Y132024D02*
X108793D01*
X110923D02*
X115793D01*
X117923D02*
X128350D01*
X100525Y132261D02*
X108595D01*
X111121D02*
X115595D01*
X118121D02*
X128350D01*
X100525Y132498D02*
X108464D01*
X111252D02*
X115464D01*
X118252D02*
X128350D01*
X100525Y132735D02*
X108381D01*
X111335D02*
X115381D01*
X118335D02*
X128350D01*
X100525Y132972D02*
X108340D01*
X111376D02*
X115340D01*
X118376D02*
X128350D01*
X100525Y133209D02*
X108336D01*
X111380D02*
X115336D01*
X118380D02*
X128350D01*
X100525Y133446D02*
X108369D01*
X111347D02*
X115369D01*
X118347D02*
X128350D01*
X100525Y133683D02*
X108442D01*
X111274D02*
X115442D01*
X118274D02*
X128350D01*
X100525Y133920D02*
X108562D01*
X111154D02*
X115562D01*
X118154D02*
X128350D01*
X100525Y134157D02*
X108744D01*
X110972D02*
X115744D01*
X117972D02*
X128350D01*
X100525Y134394D02*
X109026D01*
X110690D02*
X116026D01*
X117690D02*
X128350D01*
X100525Y134631D02*
X109684D01*
X110032D02*
X116684D01*
X117032D02*
X128350D01*
X100525Y134868D02*
X128350D01*
X100525Y135105D02*
X128350D01*
X100525Y135342D02*
X128350D01*
X100525Y135579D02*
X128350D01*
X100525Y135816D02*
X128350D01*
X100525Y136053D02*
X128350D01*
X100525Y136290D02*
X128350D01*
X100525Y136527D02*
X128350D01*
X100525Y136764D02*
X108727D01*
X109553D02*
X128350D01*
X100525Y137001D02*
X108510D01*
X109770D02*
X128350D01*
X100525Y137238D02*
X108425D01*
X109855D02*
X128350D01*
X100525Y137475D02*
X108424D01*
X109856D02*
X128350D01*
X100525Y137712D02*
X108506D01*
X109774D02*
X128350D01*
X100525Y137949D02*
X101503D01*
X103529D02*
X108628D01*
X109662D02*
X128350D01*
X100525Y138186D02*
X101280D01*
X103752D02*
X108564D01*
X109662D02*
X114770D01*
X115750D02*
X128350D01*
X100525Y138423D02*
X101157D01*
X103875D02*
X106600D01*
X108236D02*
X108327D01*
X109662D02*
X114599D01*
X115921D02*
X128350D01*
X100525Y138660D02*
X101100D01*
X103932D02*
X106280D01*
X109662D02*
X114537D01*
X115983D02*
X128350D01*
X100525Y138897D02*
X101096D01*
X103936D02*
X106113D01*
X109662D02*
X114354D01*
X115963D02*
X128350D01*
X100525Y139134D02*
X101146D01*
X103886D02*
X106024D01*
X109662D02*
X114117D01*
X115855D02*
X128350D01*
X100525Y139371D02*
X101258D01*
X103774D02*
X105993D01*
X109854D02*
X113880D01*
X115579D02*
X128350D01*
X100525Y139608D02*
X101463D01*
X103569D02*
X106015D01*
X115105D02*
X128350D01*
X100525Y139845D02*
X101936D01*
X103096D02*
X106094D01*
X114868D02*
X128350D01*
X100525Y140082D02*
X106245D01*
X108591D02*
X109091D01*
X114631D02*
X128350D01*
X100525Y140319D02*
X106525D01*
X108311D02*
X109328D01*
X114394D02*
X128350D01*
X100525Y140556D02*
X109565D01*
X114157D02*
X128350D01*
X100525Y140793D02*
X128350D01*
X100525Y141030D02*
X128350D01*
X100525Y141267D02*
X128350D01*
X100525Y141504D02*
X128350D01*
X100525Y141741D02*
X128350D01*
X100525Y141978D02*
X128350D01*
X100525Y142215D02*
X128350D01*
X100525Y142452D02*
X128350D01*
X100525Y142689D02*
X128350D01*
X100525Y142926D02*
X128350D01*
X100525Y143163D02*
X128350D01*
X100525Y143400D02*
X128350D01*
X100525Y143637D02*
X128350D01*
X100525Y143874D02*
X128350D01*
X100525Y144111D02*
X128350D01*
X100525Y144348D02*
X128350D01*
X100525Y144585D02*
X128350D01*
X100525Y144822D02*
X128350D01*
X100525Y145059D02*
X128350D01*
X100525Y145296D02*
X128350D01*
X100525Y145533D02*
X128350D01*
X100525Y145770D02*
X128350D01*
X100525Y146007D02*
X128350D01*
X100525Y146244D02*
X128350D01*
X100525Y146481D02*
X128350D01*
X100525Y146718D02*
X128350D01*
X100525Y146955D02*
X128350D01*
X100525Y147192D02*
X128350D01*
X100525Y147429D02*
X128350D01*
X100525Y147666D02*
X128350D01*
X100525Y147903D02*
X128350D01*
X100525Y148140D02*
X128350D01*
X100525Y148377D02*
X128350D01*
X100525Y148614D02*
X128350D01*
X100525Y148851D02*
X128350D01*
X100525Y149088D02*
X128350D01*
X100525Y149325D02*
X113516D01*
X114284D02*
X128350D01*
X100525Y149562D02*
X113281D01*
X114519D02*
X128350D01*
X100525Y149799D02*
X113189D01*
X114611D02*
X128350D01*
X100525Y150036D02*
X113181D01*
X114619D02*
X115170D01*
X116030D02*
X128350D01*
X100525Y150273D02*
X113256D01*
X114544D02*
X114963D01*
X116237D02*
X128350D01*
X100525Y150510D02*
X113274D01*
X116317D02*
X128350D01*
X100525Y150747D02*
X113274D01*
X116314D02*
X128350D01*
X100525Y150984D02*
X113274D01*
X116227D02*
X128350D01*
X100525Y151221D02*
X113274D01*
X116125D02*
X128350D01*
X100525Y151458D02*
X113274D01*
X116125D02*
X128350D01*
X100525Y151695D02*
X113274D01*
X116125D02*
X128350D01*
X100525Y151932D02*
X113299D01*
X116125D02*
X128350D01*
X100525Y152169D02*
X113536D01*
X116125D02*
X128350D01*
X100525Y152406D02*
X113606D01*
X116125D02*
X128350D01*
X100525Y152643D02*
X113606D01*
X116125D02*
X128350D01*
X100525Y152880D02*
X106690D01*
X108148D02*
X113606D01*
X116125D02*
X128350D01*
X100525Y153117D02*
X106318D01*
X108520D02*
X113606D01*
X116125D02*
X128350D01*
X100654Y153354D02*
X106135D01*
X108703D02*
X113606D01*
X116125D02*
X128350D01*
X100891Y153591D02*
X101584D01*
X103448D02*
X106035D01*
X108803D02*
X113606D01*
X116125D02*
X128350D01*
X101128Y153828D02*
X101323D01*
X103709D02*
X105996D01*
X108842D02*
X113606D01*
X116125D02*
X128350D01*
X103851Y154065D02*
X106009D01*
X108829D02*
X113606D01*
X116125D02*
X128350D01*
X103924Y154302D02*
X106078D01*
X108760D02*
X113606D01*
X116125D02*
X128350D01*
X103940Y154539D02*
X106215D01*
X108623D02*
X113606D01*
X116464D02*
X128350D01*
X103904Y154776D02*
X106466D01*
X108372D02*
X113606D01*
X116615D02*
X128350D01*
X103808Y155013D02*
X113606D01*
X116664D02*
X128350D01*
X103910Y155250D02*
X113606D01*
X116634D02*
X128350D01*
X104596Y155487D02*
X110056D01*
X110944D02*
X113453D01*
X116511D02*
X128350D01*
X105099Y155724D02*
X109858D01*
X111142D02*
X113216D01*
X116280D02*
X128350D01*
X105463Y155961D02*
X109782D01*
X116280D02*
X128350D01*
X105751Y156198D02*
X109788D01*
X116296D02*
X128350D01*
X105988Y156435D02*
X109880D01*
X116324D02*
X128350D01*
X106186Y156672D02*
X110111D01*
X116272D02*
X128350D01*
X106353Y156909D02*
X110453D01*
X113967D02*
X115084D01*
X116116D02*
X128350D01*
X106493Y157146D02*
X128350D01*
X106611Y157383D02*
X128350D01*
X106708Y157620D02*
X128350D01*
X106786Y157857D02*
X128350D01*
X106847Y158094D02*
X128350D01*
X106891Y158331D02*
X128350D01*
X106919Y158568D02*
X128350D01*
X106931Y158805D02*
X128350D01*
X106928Y159042D02*
X128350D01*
X106909Y159279D02*
X128350D01*
X106875Y159516D02*
X128350D01*
X106824Y159753D02*
X128350D01*
X106756Y159990D02*
X128350D01*
X106670Y160227D02*
X128350D01*
X106565Y160464D02*
X128350D01*
X106439Y160701D02*
X128350D01*
X106288Y160938D02*
X128350D01*
X106109Y161175D02*
X128335D01*
X105992Y161412D02*
X128098D01*
G54D17*
X132750Y147710D02*
X127670D01*
X132750D02*
G02X134020Y146440I0J-1270D01*
G01X132750Y129930D02*
X127670D01*
X132750D02*
G03X134020Y131200I0J1270D01*
G01X132750Y147710D02*
Y146440D01*
X134020D02*
X132750D01*
Y143900D01*
X134020D01*
Y146440D02*
Y143900D01*
X132750Y129930D02*
Y131200D01*
X134020D01*
X132750D02*
Y133740D01*
X134020Y131200D02*
Y133740D01*
Y143900D02*
Y133740D01*
X132750D02*
X134020D01*
X127670Y142630D02*
X131480D01*
X132750Y143900D02*
X131480Y142630D01*
X127670Y135010D02*
X131480D01*
X132750Y133740D02*
X131480Y135010D01*
G54D22*
X117500Y164000D03*
Y85000D03*
G54D27*
X119857Y123953D03*
X117317D03*
X114777D03*
X112237D03*
X109697D03*
X107157D03*
X119857Y103633D03*
X117317D03*
X114777D03*
X112237D03*
X109697D03*
X107157D03*
G54D28*
X150980Y95010D03*
Y99410D03*
X145480Y99910D03*
Y94510D03*
G54D19*
X150130Y142393D03*
Y143893D03*
Y145393D03*
Y146893D03*
X154253Y144648D03*
G54D25*
X142167Y154491D02*
X142867D01*
X147067Y153891D02*
X147767D01*
X142167Y138791D02*
X142867D01*
X147067Y139391D02*
X147767D01*
G54D30*
X149858Y127676D03*
Y133116D03*
G54D27*
X154588Y130396D03*
X152588D03*
X150588D03*
X156588D03*
G54D30*
X156858Y133116D03*
Y127676D03*
G54D11*
X141944Y104192D02*
Y104892D01*
X142444D01*
Y104192D01*
X141944D01*
X142039D02*
Y104892D01*
X142134Y104192D02*
Y104892D01*
X142229Y104192D02*
Y104892D01*
X142324Y104192D02*
Y104892D01*
X142419Y104192D02*
Y104892D01*
X143344Y104192D02*
Y104892D01*
X143844D01*
Y104192D01*
X143344D01*
X143439D02*
Y104892D01*
X143534Y104192D02*
Y104892D01*
X143629Y104192D02*
Y104892D01*
X143724Y104192D02*
Y104892D01*
X143819Y104192D02*
Y104892D01*
G54D45*
X152355Y106996D03*
G54D20*
X156405Y108996D02*
X157255D01*
X156405Y110096D02*
X157255D01*
X156405Y111196D02*
X157255D01*
X156405Y112296D02*
X157255D01*
X156405Y113396D02*
X157255D01*
X156405Y114496D02*
X157255D01*
G54D42*
X146155Y106796D02*
Y107196D01*
G54D47*
X141355Y120696D02*
X141755D01*
G54D20*
X156405Y108046D02*
X157255D01*
X156405Y115596D02*
X157255D01*
G54D43*
X156555Y118246D02*
X156955D01*
G54D20*
X156405Y116696D02*
X157255D01*
G54D45*
X141205Y106996D02*
X142805D01*
G54D19*
X150160Y149600D03*
X154920Y151300D03*
X155600Y156400D03*
Y150620D03*
X155940Y155040D03*
G54D17*
X154920Y151300D02*
Y155720D01*
X155600Y156400D01*
G54D35*
Y150620D02*
Y154700D01*
X155940Y155040D01*
G54D19*
X150500Y156060D03*
X153900Y149940D03*
G54D17*
Y151640D01*
X154240Y151980D01*
X150500Y156060D02*
X150840Y156400D01*
G54D14*
X147769Y154961D02*
G02X147769Y152811I0J-1075D01*
G01X147069Y154961D02*
X147769D01*
X147069Y152811D02*
X147769D01*
X147068Y140466D02*
G03X147068Y138316I0J-1075D01*
G01Y140466D02*
X147768D01*
X147068Y138316D02*
X147768D01*
X154540Y150280D02*
X154960D01*
X154540D02*
G02X153274Y150306I-640J-340D01*
G01X153606Y152239D02*
X153274Y151907D01*
Y150306D02*
Y151907D01*
X151167Y155776D02*
X153164D01*
X153606Y152239D02*
Y155334D01*
X153164Y155776D02*
X153606Y155334D01*
G54D17*
X150840Y156400D02*
X153560D01*
X154240Y151980D02*
Y155720D01*
X153560Y156400D01*
G54D14*
X156125Y151120D02*
G02X154960Y150280I-525J-500D01*
G01X156125Y151120D02*
Y154339D01*
X157817Y131930D02*
Y128862D01*
X155940Y131623D02*
Y131898D01*
G02X157817Y131930I918J1218D01*
G01Y128862D02*
G02X155940Y128894I-959J-1186D01*
G01Y129173D02*
Y128894D01*
Y131623D02*
X150840D01*
Y131949D01*
X155940Y129173D02*
X150840D01*
Y128843D01*
Y131949D02*
G03X149365Y131673I-982J1167D01*
G01Y129119D01*
G03X150840Y128843I493J-1443D01*
G54D19*
G01X156858Y133116D02*
X159000D01*
X156858D02*
X154580D01*
X156858D02*
Y135320D01*
X149858Y133116D02*
X152200D01*
X149858D02*
X147440D01*
X149858D02*
Y135320D01*
Y127676D02*
X147440D01*
X149858D02*
X152200D01*
X149858D02*
Y125800D01*
X156858Y127676D02*
X154580D01*
X156858D02*
X159000D01*
X156588Y130396D02*
X158660D01*
G54D14*
X146806Y94512D02*
G02X144156Y94512I-1325J0D01*
X146806Y94512I1325J0D01*
G01X152307Y95008D02*
G02X149657Y95008I-1325J0D01*
X152307Y95008I1325J0D01*
G54D19*
G01X150980Y95010D02*
X153220D01*
X150980D02*
X148800D01*
X150980D02*
Y96900D01*
Y95010D02*
Y93160D01*
X152355Y106996D02*
Y108460D01*
Y106996D02*
Y105570D01*
G54D22*
X141355Y120696D02*
Y122740D01*
X141755Y120696D02*
X143700D01*
X142805Y106996D02*
X144210D01*
X142805D02*
Y105910D01*
X141205Y106996D02*
Y105910D01*
Y106996D02*
Y108800D01*
G54D17*
X146155Y106796D02*
Y105740D01*
G54D19*
X143700Y103360D03*
G54D35*
X143594Y104442D02*
X143700Y104336D01*
Y103360D01*
X142194Y104542D02*
X140980D01*
G54D19*
X147157Y103633D02*
X145400D01*
X147157D02*
Y105400D01*
X149697Y103633D02*
Y105740D01*
X147157Y103633D02*
X149697D01*
X147157Y123953D02*
Y125800D01*
Y123953D02*
X145060D01*
X140980Y105740D03*
X142000D03*
X143020D03*
X144040Y107100D03*
Y106080D03*
X143360Y121720D03*
Y120700D03*
Y119680D03*
X142000Y123080D03*
X140980D03*
Y122060D03*
X142000D03*
X140980Y109310D03*
X142000D03*
X140980Y108290D03*
X142000D03*
G54D14*
X153841Y157035D02*
X150579D01*
X150301Y156757D02*
G03X151167Y155776I199J-697D01*
G01X150579Y157035D02*
X150301Y156757D01*
X147069Y154961D02*
G03X147069Y152811I0J-1075D01*
G01X146806Y99912D02*
G02X144156Y99912I-1325J0D01*
X146806Y99912I1325J0D01*
G01X152307Y99408D02*
G02X149657Y99408I-1325J0D01*
X152307Y99408I1325J0D01*
G54D19*
G01X162400Y92820D03*
Y99960D03*
X159000D03*
Y92820D03*
X152540Y99960D03*
Y92820D03*
X147100Y91120D03*
X140980Y100980D03*
Y93500D03*
X152540Y91120D03*
X159000D03*
X164780D03*
Y100980D03*
X152540D03*
X159000D03*
X148120D03*
Y93500D03*
G54D14*
X165120Y101660D02*
X140980D01*
X165120D02*
X165460Y101320D01*
Y87720D01*
X165267Y87527D02*
X165460Y87720D01*
X146273Y87527D02*
X165267D01*
X146082Y87718D02*
X146273Y87527D01*
X146082Y87718D02*
G03X140974Y92826I-2777J2331D01*
G01X140525Y93275D02*
X140974Y92826D01*
X140525Y101205D02*
Y93275D01*
Y101205D02*
X140980Y101660D01*
X146806Y99912D02*
G02X144156Y99912I-1325J0D01*
X146806Y99912I1325J0D01*
G01Y94512D02*
G02X144156Y94512I-1325J0D01*
X146806Y94512I1325J0D01*
G01X152307Y99408D02*
G02X149657Y99408I-1325J0D01*
X152307Y99408I1325J0D01*
G01Y95008D02*
G02X149657Y95008I-1325J0D01*
X152307Y95008I1325J0D01*
G01X146095Y87705D02*
X165445D01*
X146255Y87942D02*
X165460D01*
X146410Y88179D02*
X165460D01*
X146541Y88416D02*
X165460D01*
X146650Y88653D02*
X165460D01*
X146740Y88890D02*
X165460D01*
X146811Y89127D02*
X165460D01*
X146865Y89364D02*
X165460D01*
X146902Y89601D02*
X165460D01*
X146924Y89838D02*
X165460D01*
X146930Y90075D02*
X165460D01*
X146920Y90312D02*
X165460D01*
X146895Y90549D02*
X165460D01*
X146854Y90786D02*
X165460D01*
X146797Y91023D02*
X165460D01*
X146722Y91260D02*
X165460D01*
X146628Y91497D02*
X165460D01*
X146515Y91734D02*
X165460D01*
X146379Y91971D02*
X165460D01*
X146217Y92208D02*
X165460D01*
X146025Y92445D02*
X165460D01*
X145797Y92682D02*
X165460D01*
X140881Y92919D02*
X141091D01*
X145519D02*
X165460D01*
X140644Y93156D02*
X141438D01*
X145172D02*
X165460D01*
X140525Y93393D02*
X141906D01*
X144704D02*
X144771D01*
X146191D02*
X165460D01*
X140525Y93630D02*
X142742D01*
X143868D02*
X144492D01*
X146470D02*
X165460D01*
X140525Y93867D02*
X144324D01*
X146638D02*
X150308D01*
X151656D02*
X165460D01*
X140525Y94104D02*
X144220D01*
X146742D02*
X150013D01*
X151951D02*
X165460D01*
X140525Y94341D02*
X144167D01*
X146795D02*
X149837D01*
X152127D02*
X165460D01*
X140525Y94578D02*
X144158D01*
X146804D02*
X149729D01*
X152235D02*
X165460D01*
X140525Y94815D02*
X144191D01*
X146771D02*
X149671D01*
X152293D02*
X165460D01*
X140525Y95052D02*
X144271D01*
X146691D02*
X149658D01*
X152306D02*
X165460D01*
X140525Y95289D02*
X144408D01*
X146554D02*
X149687D01*
X152277D02*
X165460D01*
X140525Y95526D02*
X144628D01*
X146334D02*
X149762D01*
X152202D02*
X165460D01*
X140525Y95763D02*
X145044D01*
X145918D02*
X149893D01*
X152071D02*
X165460D01*
X140525Y96000D02*
X150104D01*
X151860D02*
X165460D01*
X140525Y96237D02*
X150487D01*
X151477D02*
X165460D01*
X140525Y96474D02*
X165460D01*
X140525Y96711D02*
X165460D01*
X140525Y96948D02*
X165460D01*
X140525Y97185D02*
X165460D01*
X140525Y97422D02*
X165460D01*
X140525Y97659D02*
X165460D01*
X140525Y97896D02*
X165460D01*
X140525Y98133D02*
X150621D01*
X151343D02*
X165460D01*
X140525Y98370D02*
X150158D01*
X151806D02*
X165460D01*
X140525Y98607D02*
X145252D01*
X145710D02*
X149927D01*
X152037D02*
X165460D01*
X140525Y98844D02*
X144697D01*
X146265D02*
X149783D01*
X152181D02*
X165460D01*
X140525Y99081D02*
X144449D01*
X146513D02*
X149698D01*
X152266D02*
X165460D01*
X140525Y99318D02*
X144297D01*
X146665D02*
X149660D01*
X152304D02*
X165460D01*
X140525Y99555D02*
X144205D01*
X146757D02*
X149665D01*
X152299D02*
X165460D01*
X140525Y99792D02*
X144161D01*
X146801D02*
X149714D01*
X152250D02*
X165460D01*
X140525Y100029D02*
X144161D01*
X146801D02*
X149812D01*
X152152D02*
X165460D01*
X140525Y100266D02*
X144204D01*
X146758D02*
X149972D01*
X151992D02*
X165460D01*
X140525Y100503D02*
X144295D01*
X146667D02*
X150236D01*
X151728D02*
X165460D01*
X140525Y100740D02*
X144447D01*
X146515D02*
X165460D01*
X140525Y100977D02*
X144693D01*
X146269D02*
X165460D01*
X140534Y101214D02*
X145235D01*
X145727D02*
X165460D01*
X140771Y101451D02*
X165329D01*
G54D35*
X157317Y123953D02*
Y123437D01*
X155600Y122740D02*
X156047Y123187D01*
X157317Y123437D02*
X156280Y122400D01*
G54D19*
X157640D03*
G54D35*
X157300Y122060D01*
G54D14*
X159858Y122729D02*
X158286D01*
G02X157639Y121675I-646J-329D01*
G01X157494Y121530D01*
G54D19*
X145740Y121720D03*
X147780D03*
X146760D03*
G54D14*
X147270Y121205D02*
G02X146250Y121205I-510J515D01*
G01X157494Y121530D02*
X148480D01*
G02X147270Y121205I-700J190D01*
G54D35*
G01X157300Y122060D02*
X148120D01*
X147780Y121720D02*
X148120Y122060D01*
X146760Y121720D02*
X147440Y122400D01*
X156280D02*
X147440D01*
X155600Y122740D02*
X146760D01*
X145740Y121720D02*
X146760Y122740D01*
G54D14*
X145732Y122445D02*
G03X146250Y121205I8J-725D01*
G01X146334Y123047D02*
G02X147158Y125179I824J907D01*
G01X145732Y122445D02*
X146334Y123047D01*
G54D35*
X156047Y123187D02*
Y124547D01*
X156620Y125120D02*
X156047Y124547D01*
G54D19*
X156858Y127676D02*
Y125866D01*
G54D14*
X147158Y125179D02*
X155945D01*
X156409Y125643D02*
X155945Y125179D01*
G54D19*
X160700Y105740D03*
X159680Y105400D03*
G54D35*
X160360Y106080D02*
X160700Y105740D01*
X157317Y103633D02*
Y103717D01*
X159000Y105400D01*
X159680D02*
X159000D01*
X152237Y103633D02*
X153834Y105230D01*
X154777Y103633D02*
X156034Y104890D01*
X157810D01*
X153834Y105230D02*
X157470D01*
X160360Y106080D02*
X159000D01*
X157810Y104890D02*
X159000Y106080D01*
X157470Y105230D02*
X158660Y106420D01*
G54D19*
X161720Y105740D03*
G54D35*
X158660Y106420D02*
X161040D01*
X161720Y105740D02*
X161040Y106420D01*
G54D19*
X162060Y125120D03*
G54D35*
X156620D02*
X162060D01*
G54D14*
X156409Y125643D02*
X161558D01*
G02X161549Y124606I502J-523D01*
G01X160895D01*
G02X159858Y122729I-1037J-652D01*
G54D19*
G01X155260Y111180D03*
X156405Y111196D02*
X155276D01*
X155260Y111180D02*
X155276Y111196D01*
X159680Y116620D03*
Y115600D03*
Y112200D03*
Y111180D03*
Y114240D03*
Y113220D03*
Y117640D03*
G54D35*
X160360Y110500D02*
Y116960D01*
X159680Y117640D02*
X160360Y116960D01*
X159680Y113220D02*
X158756Y112296D01*
X157255D01*
X159680Y112200D02*
X157576Y110096D01*
X157255D02*
X157576D01*
X157255Y108996D02*
X157496D01*
X159680Y111180D02*
X157496Y108996D01*
X157255Y108046D02*
X157906D01*
X160360Y110500D02*
X157906Y108046D01*
X157255Y114496D02*
X159424D01*
X159680Y114240D02*
X159424Y114496D01*
X159680Y115600D02*
X159684Y115596D01*
X157255D02*
X159684D01*
X159680Y116620D02*
X159604Y116696D01*
X157255D02*
X159604D01*
G54D19*
X155260Y113560D03*
X155600D01*
X156405Y113396D02*
X155764D01*
X155600Y113560D01*
X154240Y111860D03*
G54D35*
Y113560D02*
X155260Y114580D01*
X154240Y111860D02*
Y113560D01*
G54D19*
X155260Y118660D03*
G54D35*
Y114580D02*
Y118660D01*
G54D19*
X165120Y130900D03*
Y127160D03*
X164440Y96390D02*
X167160D01*
G54D27*
X170210Y103260D03*
X172750D03*
X170210Y105800D03*
X172750D03*
X170210Y108340D03*
X172750D03*
X170210Y110880D03*
X172750D03*
X170210Y113420D03*
X172750D03*
X170210Y115960D03*
X172750D03*
X170210Y118500D03*
X172750D03*
X170210Y121040D03*
X172750D03*
X170210Y123580D03*
X172750D03*
X170210Y126120D03*
X172750D03*
Y138820D03*
X170210D03*
X172750Y136280D03*
X170210D03*
X172750Y133740D03*
X170210D03*
X172750Y131200D03*
X170210D03*
X172750Y128660D03*
X170210D03*
Y141360D03*
X172750D03*
X170210Y143900D03*
X172750D03*
X170210Y146440D03*
X172750D03*
X170210Y148980D03*
X172750D03*
X170210Y151520D03*
X172750D03*
X170210Y138820D02*
X166820D01*
X170210Y115960D02*
X166820D01*
G54D35*
X172750Y110880D02*
X171480Y109610D01*
X170210Y110880D02*
X169580D01*
X168180Y109480D02*
X169580Y110880D01*
G54D19*
X168180Y103360D03*
X168520Y102340D03*
G54D35*
X168860Y102680D01*
Y109140D01*
X168180Y109480D02*
Y103360D01*
X171480Y109610D02*
X169330D01*
X168860Y109140D01*
G54D19*
X146420Y135660D03*
X149140Y137360D03*
G54D35*
Y139400D01*
X149820Y140080D01*
G54D14*
X149662Y139179D02*
X150049Y139566D01*
X149662Y139179D02*
Y137863D01*
G02X148628Y137873I-522J-503D01*
G01X156125Y154339D02*
G03X156280Y155680I-185J701D01*
G01Y156149D02*
Y155680D01*
Y156149D02*
G03X154960Y156740I-680J251D01*
G01X154136D01*
X153841Y157035D02*
X154136Y156740D01*
X142866Y139870D02*
G02X142866Y137720I0J-1075D01*
G01X142166D02*
G02X142166Y139870I0J1075D01*
G01X142866D01*
X142166Y137720D02*
X142866D01*
X147768Y140466D02*
G02X148654Y140000I0J-1075D01*
G01X149612Y140603D02*
X149009Y140000D01*
X148654D02*
X149009D01*
X148296Y138454D02*
G02X147768Y138316I-528J937D01*
G01X148628Y137873D02*
Y138122D01*
X148296Y138454D02*
X148628Y138122D01*
G54D19*
X156955Y118246D02*
X158320D01*
X156555D02*
Y119680D01*
X150840Y139060D03*
X152200Y136680D03*
X154580D03*
X155260Y138720D03*
G54D14*
X155268Y139445D02*
G02X154535Y138716I-8J-725D01*
G01X149612Y140603D02*
X154110D01*
X155268Y139445D02*
X154110Y140603D01*
G54D35*
X149820Y140080D02*
X153900D01*
X155260Y138720D02*
X153900Y140080D01*
G54D14*
X150049Y139566D02*
X153685D01*
X154535Y138716D02*
X153685Y139566D01*
G54D19*
X152880Y114580D03*
Y116960D03*
X154240Y119340D03*
X163420Y151640D03*
X166140Y156400D03*
X161380Y153000D03*
G54D14*
X143757Y155097D02*
G02X142866Y153420I-891J-602D01*
G01X142166D02*
X142866D01*
X142166D02*
G02X141243Y153943I0J1075D01*
G01X140525Y153225D02*
X141243Y153943D01*
X140525Y122175D02*
Y153225D01*
X140825Y121875D02*
X140525Y122175D01*
X142943Y121875D02*
X140825D01*
X142943D02*
Y119517D01*
X142170D01*
Y116620D02*
Y119517D01*
Y116620D02*
X140980D01*
X140699Y116339D01*
G02X140525Y109996I-12199J-2839D01*
G01Y108405D01*
X140901Y108029D01*
X142340D02*
X140901D01*
X142340Y108800D02*
Y108029D01*
X149820Y108800D02*
X142340D01*
X149820D02*
Y117470D01*
X151860D01*
Y108043D01*
X153390D02*
X151860D01*
X153390D02*
Y107780D01*
X155260D01*
X155566Y108086D02*
X155260Y107780D01*
X155566Y108086D02*
Y111554D01*
X155260Y111860D02*
X155566Y111554D01*
X155260Y111860D02*
X154965D01*
G02X153718Y112363I-725J0D01*
G01Y113769D02*
Y112363D01*
X154738Y114789D02*
X153718Y113769D01*
X154738Y114789D02*
Y118157D01*
G02X155759Y119186I522J503D01*
G01X157892D02*
X155759D01*
X157892D02*
Y117640D01*
X158955D01*
G02X160405Y117651I725J0D01*
G01X160884Y117172D02*
X160405Y117651D01*
X160884Y117172D02*
Y110286D01*
X157868Y107270D01*
X156450D02*
X157868D01*
X156450Y106420D02*
Y107270D01*
Y106420D02*
X153390D01*
Y105949D01*
X151336D01*
Y106420D02*
Y105949D01*
Y106420D02*
X147950D01*
Y107440D02*
Y106420D01*
Y107440D02*
X146994D01*
Y105964D02*
Y107440D01*
X145329Y105964D02*
X146994D01*
X145329D02*
Y107440D01*
X143837D02*
X145329D01*
X143837Y105962D02*
Y107440D01*
Y105962D02*
X141320D01*
Y105373D01*
X144313D02*
X141320D01*
X144313D02*
Y103747D01*
G02X143073Y103724I-613J-387D01*
G01X141470D02*
X143073D01*
X141470D02*
Y105962D01*
X140862D02*
X141470D01*
X140862D02*
X140525Y105625D01*
Y102673D01*
X140980Y102218D02*
X140525Y102673D01*
X140980Y102218D02*
X149140D01*
Y102409D02*
Y102218D01*
X147158Y102409D02*
X149140D01*
X147158D02*
G02X147158Y104859I0J1225D01*
G01X152736D01*
X153633Y105756D01*
X157250D01*
X158450Y106956D01*
X161232D01*
X161723Y106465D02*
X161232Y106956D01*
X161723Y106465D02*
G02X161210Y105225I-3J-725D01*
X160656Y105016I-510J515D01*
G01X160382Y104742D02*
X160656Y105016D01*
X160382Y104742D02*
G02X159858Y102409I-524J-1108D01*
G01X148800D01*
Y102218D01*
X165345D01*
X166023Y101540D01*
Y87837D01*
X166333Y87527D01*
X167987D01*
X168350Y87890D02*
X167987Y87527D01*
X168350Y101635D02*
Y87890D01*
Y101635D02*
G02X167889Y102696I170J705D01*
X167656Y103861I291J664D01*
G01Y109692D01*
X168350Y110386D01*
Y161160D01*
X167873Y161637D02*
X168350Y161160D01*
X146217Y161637D02*
X167873D01*
X146217D02*
X145943Y161363D01*
G02X143971Y155311I-2636J-2488D01*
G01X143757Y155097D01*
X147069Y152811D02*
X147769D01*
X147069D02*
G02X147069Y154961I0J1075D01*
G01X147769D01*
G02X147769Y152811I0J-1075D01*
G01X151167Y155776D02*
G02X150301Y156757I-667J284D01*
G01X150579Y157035D02*
X150301Y156757D01*
X153841Y157035D02*
X150579D01*
X153841D02*
X154136Y156740D01*
X154960D02*
X154136D01*
X154960D02*
G02X156280Y156149I640J-340D01*
G01Y155680D01*
G02X156125Y154339I-340J-640D01*
G01Y151120D02*
Y154339D01*
Y151120D02*
G02X154960Y150280I-525J-500D01*
G01X154540D02*
X154960D01*
X154540D02*
G02X153274Y150306I-640J-340D01*
G01Y151907D01*
X153606Y152239D02*
X153274Y151907D01*
X153606Y152239D02*
Y155334D01*
X153164Y155776D02*
X153606Y155334D01*
X151167Y155776D02*
X153164D01*
X142866Y139870D02*
G02X142866Y137720I0J-1075D01*
G01X142166D02*
X142866D01*
X142166D02*
G02X142166Y139870I0J1075D01*
G01X142866D01*
X147068Y140466D02*
G03X147068Y138316I0J-1075D01*
G01Y140466D02*
X147768D01*
G02X148654Y140000I0J-1075D01*
G01X149009D01*
X149612Y140603D02*
X149009Y140000D01*
X149612Y140603D02*
X154110D01*
X155268Y139445D02*
X154110Y140603D01*
X155268Y139445D02*
G02X154535Y138716I-8J-725D01*
G01X153685Y139566D01*
X150049D02*
X153685D01*
X149662Y139179D02*
X150049Y139566D01*
X149662Y139179D02*
Y137863D01*
G02X148628Y137873I-522J-503D01*
G01Y138122D01*
X148296Y138454D02*
X148628Y138122D01*
X148296Y138454D02*
G02X147768Y138316I-528J937D01*
G01X147068D02*
X147768D01*
X149365Y131673D02*
G02X150840Y131949I493J1443D01*
G01Y131623D02*
Y131949D01*
X155940Y131623D02*
X150840D01*
X155940D02*
Y131898D01*
G02X157817Y131930I918J1218D01*
G01Y128862D01*
G02X155940Y128894I-959J-1186D01*
G01Y129173D02*
Y128894D01*
Y129173D02*
X150840D01*
Y128843D01*
G02X149365Y129119I-982J-1167D01*
G01Y131673D02*
Y129119D01*
X147158Y125179D02*
G03X146334Y123047I0J-1225D01*
G01X147158Y125179D02*
X155945D01*
X156409Y125643D02*
X155945Y125179D01*
X156409Y125643D02*
X161558D01*
G02X161549Y124606I502J-523D01*
G01X160895D01*
G02X159858Y122729I-1037J-652D01*
G01X158286D01*
G02X157639Y121675I-646J-329D01*
G01X157494Y121530D01*
X148480D01*
G02X147270Y121205I-700J190D01*
X146250Y121205I-510J515D01*
X145732Y122445I-510J515D01*
G01X146334Y123047D01*
X166155Y87705D02*
X168165D01*
X166023Y87942D02*
X168350D01*
X166023Y88179D02*
X168350D01*
X166023Y88416D02*
X168350D01*
X166023Y88653D02*
X168350D01*
X166023Y88890D02*
X168350D01*
X166023Y89127D02*
X168350D01*
X166023Y89364D02*
X168350D01*
X166023Y89601D02*
X168350D01*
X166023Y89838D02*
X168350D01*
X166023Y90075D02*
X168350D01*
X166023Y90312D02*
X168350D01*
X166023Y90549D02*
X168350D01*
X166023Y90786D02*
X168350D01*
X166023Y91023D02*
X168350D01*
X166023Y91260D02*
X168350D01*
X166023Y91497D02*
X168350D01*
X166023Y91734D02*
X168350D01*
X166023Y91971D02*
X168350D01*
X166023Y92208D02*
X168350D01*
X166023Y92445D02*
X168350D01*
X166023Y92682D02*
X168350D01*
X166023Y92919D02*
X168350D01*
X166023Y93156D02*
X168350D01*
X166023Y93393D02*
X168350D01*
X166023Y93630D02*
X168350D01*
X166023Y93867D02*
X168350D01*
X166023Y94104D02*
X168350D01*
X166023Y94341D02*
X168350D01*
X166023Y94578D02*
X168350D01*
X166023Y94815D02*
X168350D01*
X166023Y95052D02*
X168350D01*
X166023Y95289D02*
X168350D01*
X166023Y95526D02*
X168350D01*
X166023Y95763D02*
X168350D01*
X166023Y96000D02*
X168350D01*
X166023Y96237D02*
X168350D01*
X166023Y96474D02*
X168350D01*
X166023Y96711D02*
X168350D01*
X166023Y96948D02*
X168350D01*
X166023Y97185D02*
X168350D01*
X166023Y97422D02*
X168350D01*
X166023Y97659D02*
X168350D01*
X166023Y97896D02*
X168350D01*
X166023Y98133D02*
X168350D01*
X166023Y98370D02*
X168350D01*
X166023Y98607D02*
X168350D01*
X166023Y98844D02*
X168350D01*
X166023Y99081D02*
X168350D01*
X166023Y99318D02*
X168350D01*
X166023Y99555D02*
X168350D01*
X166023Y99792D02*
X168350D01*
X166023Y100029D02*
X168350D01*
X166023Y100266D02*
X168350D01*
X166023Y100503D02*
X168350D01*
X166023Y100740D02*
X168350D01*
X166023Y100977D02*
X168350D01*
X166023Y101214D02*
X168350D01*
X166023Y101451D02*
X168350D01*
X165875Y101688D02*
X168203D01*
X165638Y101925D02*
X167926D01*
X165401Y102162D02*
X167817D01*
X140799Y102399D02*
X148800D01*
X149140D02*
X167797D01*
X140562Y102636D02*
X143662D01*
X143738D02*
X146448D01*
X160568D02*
X167858D01*
X140525Y102873D02*
X143163D01*
X144237D02*
X146198D01*
X160818D02*
X167643D01*
X140525Y103110D02*
X143019D01*
X144381D02*
X146051D01*
X160965D02*
X167499D01*
X140525Y103347D02*
X142975D01*
X144425D02*
X145967D01*
X161049D02*
X167455D01*
X140525Y103584D02*
X143010D01*
X144390D02*
X145934D01*
X161082D02*
X167490D01*
X140525Y103821D02*
X141470D01*
X144313D02*
X145947D01*
X161069D02*
X167620D01*
X140525Y104058D02*
X141470D01*
X144313D02*
X146009D01*
X161007D02*
X167656D01*
X140525Y104295D02*
X141470D01*
X144313D02*
X146127D01*
X160889D02*
X167656D01*
X140525Y104532D02*
X141470D01*
X144313D02*
X146325D01*
X160691D02*
X167656D01*
X140525Y104769D02*
X141470D01*
X144313D02*
X146697D01*
X160409D02*
X167656D01*
X140525Y105006D02*
X141470D01*
X144313D02*
X152883D01*
X160646D02*
X167656D01*
X140525Y105243D02*
X141470D01*
X144313D02*
X153120D01*
X162248D02*
X167656D01*
X140525Y105480D02*
X141320D01*
X141470D02*
X153357D01*
X162397D02*
X167656D01*
X140617Y105717D02*
X141320D01*
X141470D02*
X153594D01*
X162445D02*
X167656D01*
X140854Y105954D02*
X141320D01*
X141470D02*
X151336D01*
X153390D02*
X157448D01*
X162413D02*
X167656D01*
X143837Y106191D02*
X145329D01*
X146994D02*
X151336D01*
X153390D02*
X157685D01*
X162288D02*
X167656D01*
X143837Y106428D02*
X145329D01*
X146994D02*
X147950D01*
X156450D02*
X157922D01*
X161949D02*
X167656D01*
X143837Y106665D02*
X145329D01*
X146994D02*
X147950D01*
X156450D02*
X158159D01*
X161523D02*
X167656D01*
X143837Y106902D02*
X145329D01*
X146994D02*
X147950D01*
X156450D02*
X158396D01*
X161286D02*
X167656D01*
X143837Y107139D02*
X145329D01*
X146994D02*
X147950D01*
X156450D02*
X167656D01*
X143837Y107376D02*
X145329D01*
X146994D02*
X147950D01*
X157974D02*
X167656D01*
X158211Y107613D02*
X167656D01*
X153390Y107850D02*
X155330D01*
X158448D02*
X167656D01*
X140843Y108087D02*
X142340D01*
X151860D02*
X155566D01*
X158685D02*
X167656D01*
X140606Y108324D02*
X142340D01*
X151860D02*
X155566D01*
X158922D02*
X167656D01*
X140525Y108561D02*
X142340D01*
X151860D02*
X155566D01*
X159159D02*
X167656D01*
X140525Y108798D02*
X142340D01*
X151860D02*
X155566D01*
X159396D02*
X167656D01*
X140525Y109035D02*
X149820D01*
X151860D02*
X155566D01*
X159633D02*
X167656D01*
X140525Y109272D02*
X149820D01*
X151860D02*
X155566D01*
X159870D02*
X167656D01*
X140525Y109509D02*
X149820D01*
X151860D02*
X155566D01*
X160107D02*
X167656D01*
X140525Y109746D02*
X149820D01*
X151860D02*
X155566D01*
X160344D02*
X167710D01*
X140525Y109983D02*
X149820D01*
X151860D02*
X155566D01*
X160581D02*
X167947D01*
X140588Y110220D02*
X149820D01*
X151860D02*
X155566D01*
X160818D02*
X168184D01*
X140650Y110457D02*
X149820D01*
X151860D02*
X155566D01*
X160884D02*
X168350D01*
X140707Y110694D02*
X149820D01*
X151860D02*
X155566D01*
X160884D02*
X168350D01*
X140759Y110931D02*
X149820D01*
X151860D02*
X155566D01*
X160884D02*
X168350D01*
X140806Y111168D02*
X149820D01*
X151860D02*
X154024D01*
X154456D02*
X155566D01*
X160884D02*
X168350D01*
X140849Y111405D02*
X149820D01*
X151860D02*
X153676D01*
X154804D02*
X155566D01*
X160884D02*
X168350D01*
X140886Y111642D02*
X149820D01*
X151860D02*
X153549D01*
X154931D02*
X155478D01*
X160884D02*
X168350D01*
X140920Y111879D02*
X149820D01*
X151860D02*
X153515D01*
X160884D02*
X168350D01*
X140948Y112116D02*
X149820D01*
X151860D02*
X153562D01*
X160884D02*
X168350D01*
X140972Y112353D02*
X149820D01*
X151860D02*
X153708D01*
X160884D02*
X168350D01*
X140992Y112590D02*
X149820D01*
X151860D02*
X153718D01*
X160884D02*
X168350D01*
X141007Y112827D02*
X149820D01*
X151860D02*
X153718D01*
X160884D02*
X168350D01*
X141017Y113064D02*
X149820D01*
X151860D02*
X153718D01*
X160884D02*
X168350D01*
X141023Y113301D02*
X149820D01*
X151860D02*
X153718D01*
X160884D02*
X168350D01*
X141025Y113538D02*
X149820D01*
X151860D02*
X153718D01*
X160884D02*
X168350D01*
X141022Y113775D02*
X149820D01*
X151860D02*
X153724D01*
X160884D02*
X168350D01*
X141015Y114012D02*
X149820D01*
X151860D02*
X153961D01*
X160884D02*
X168350D01*
X141003Y114249D02*
X149820D01*
X151860D02*
X154198D01*
X160884D02*
X168350D01*
X140986Y114486D02*
X149820D01*
X151860D02*
X154435D01*
X160884D02*
X168350D01*
X140965Y114723D02*
X149820D01*
X151860D02*
X154672D01*
X160884D02*
X168350D01*
X140940Y114960D02*
X149820D01*
X151860D02*
X154738D01*
X160884D02*
X168350D01*
X140910Y115197D02*
X149820D01*
X151860D02*
X154738D01*
X160884D02*
X168350D01*
X140875Y115434D02*
X149820D01*
X151860D02*
X154738D01*
X160884D02*
X168350D01*
X140835Y115671D02*
X149820D01*
X151860D02*
X154738D01*
X160884D02*
X168350D01*
X140791Y115908D02*
X149820D01*
X151860D02*
X154738D01*
X160884D02*
X168350D01*
X140743Y116145D02*
X149820D01*
X151860D02*
X154738D01*
X160884D02*
X168350D01*
X140742Y116382D02*
X149820D01*
X151860D02*
X154738D01*
X160884D02*
X168350D01*
X140979Y116619D02*
X149820D01*
X151860D02*
X154738D01*
X160884D02*
X168350D01*
X142170Y116856D02*
X149820D01*
X151860D02*
X154738D01*
X160884D02*
X168350D01*
X142170Y117093D02*
X149820D01*
X151860D02*
X154738D01*
X160884D02*
X168350D01*
X142170Y117330D02*
X149820D01*
X151860D02*
X154738D01*
X160726D02*
X168350D01*
X142170Y117567D02*
X154738D01*
X160489D02*
X168350D01*
X142170Y117804D02*
X154738D01*
X157892D02*
X158974D01*
X160386D02*
X168350D01*
X142170Y118041D02*
X154738D01*
X157892D02*
X159076D01*
X160284D02*
X168350D01*
X142170Y118278D02*
X154644D01*
X157892D02*
X159336D01*
X160024D02*
X168350D01*
X142170Y118515D02*
X154550D01*
X157892D02*
X168350D01*
X142170Y118752D02*
X154541D01*
X157892D02*
X168350D01*
X142170Y118989D02*
X154614D01*
X157892D02*
X168350D01*
X142170Y119226D02*
X154807D01*
X155713D02*
X168350D01*
X142170Y119463D02*
X168350D01*
X142943Y119700D02*
X168350D01*
X142943Y119937D02*
X168350D01*
X142943Y120174D02*
X168350D01*
X142943Y120411D02*
X168350D01*
X142943Y120648D02*
X168350D01*
X142943Y120885D02*
X168350D01*
X142943Y121122D02*
X145330D01*
X146150D02*
X146350D01*
X147170D02*
X147370D01*
X148190D02*
X168350D01*
X142943Y121359D02*
X145111D01*
X148409D02*
X168350D01*
X142943Y121596D02*
X145026D01*
X157560D02*
X168350D01*
X142943Y121833D02*
X145024D01*
X158092D02*
X168350D01*
X140630Y122070D02*
X145105D01*
X158286D02*
X168350D01*
X140525Y122307D02*
X145314D01*
X158359D02*
X168350D01*
X140525Y122544D02*
X145831D01*
X158351D02*
X168350D01*
X140525Y122781D02*
X146068D01*
X160211D02*
X168350D01*
X140525Y123018D02*
X146305D01*
X160648D02*
X168350D01*
X140525Y123255D02*
X146152D01*
X160864D02*
X168350D01*
X140525Y123492D02*
X146023D01*
X160993D02*
X168350D01*
X140525Y123729D02*
X145954D01*
X161062D02*
X168350D01*
X140525Y123966D02*
X145933D01*
X161083D02*
X168350D01*
X140525Y124203D02*
X145959D01*
X161057D02*
X168350D01*
X140525Y124440D02*
X146034D01*
X160982D02*
X161809D01*
X162311D02*
X168350D01*
X140525Y124677D02*
X146169D01*
X162634D02*
X168350D01*
X140525Y124914D02*
X146397D01*
X162755D02*
X168350D01*
X140525Y125151D02*
X146898D01*
X162784D02*
X168350D01*
X140525Y125388D02*
X156154D01*
X162734D02*
X168350D01*
X140525Y125625D02*
X156391D01*
X162580D02*
X168350D01*
X140525Y125862D02*
X168350D01*
X140525Y126099D02*
X168350D01*
X140525Y126336D02*
X149130D01*
X150586D02*
X156130D01*
X157586D02*
X168350D01*
X140525Y126573D02*
X148805D01*
X150911D02*
X155805D01*
X157911D02*
X168350D01*
X140525Y126810D02*
X148603D01*
X151113D02*
X155603D01*
X158113D02*
X168350D01*
X140525Y127047D02*
X148469D01*
X151247D02*
X155469D01*
X158247D02*
X168350D01*
X140525Y127284D02*
X148384D01*
X151332D02*
X155384D01*
X158332D02*
X168350D01*
X140525Y127521D02*
X148341D01*
X151375D02*
X155341D01*
X158375D02*
X168350D01*
X140525Y127758D02*
X148335D01*
X151381D02*
X155335D01*
X158381D02*
X168350D01*
X140525Y127995D02*
X148367D01*
X151349D02*
X155367D01*
X158349D02*
X168350D01*
X140525Y128232D02*
X148438D01*
X151278D02*
X155438D01*
X158278D02*
X168350D01*
X140525Y128469D02*
X148555D01*
X151161D02*
X155555D01*
X158161D02*
X168350D01*
X140525Y128706D02*
X148733D01*
X150983D02*
X155733D01*
X157983D02*
X168350D01*
X140525Y128943D02*
X149009D01*
X150840D02*
X155940D01*
X157817D02*
X168350D01*
X140525Y129180D02*
X149365D01*
X157817D02*
X168350D01*
X140525Y129417D02*
X149365D01*
X157817D02*
X168350D01*
X140525Y129654D02*
X149365D01*
X157817D02*
X168350D01*
X140525Y129891D02*
X149365D01*
X157817D02*
X168350D01*
X140525Y130128D02*
X149365D01*
X157817D02*
X168350D01*
X140525Y130365D02*
X149365D01*
X157817D02*
X168350D01*
X140525Y130602D02*
X149365D01*
X157817D02*
X168350D01*
X140525Y130839D02*
X149365D01*
X157817D02*
X168350D01*
X140525Y131076D02*
X149365D01*
X157817D02*
X168350D01*
X140525Y131313D02*
X149365D01*
X157817D02*
X168350D01*
X140525Y131550D02*
X149365D01*
X157817D02*
X168350D01*
X140525Y131787D02*
X149110D01*
X150840D02*
X155940D01*
X157817D02*
X168350D01*
X140525Y132024D02*
X148793D01*
X150923D02*
X155793D01*
X157923D02*
X168350D01*
X140525Y132261D02*
X148595D01*
X151121D02*
X155595D01*
X158121D02*
X168350D01*
X140525Y132498D02*
X148464D01*
X151252D02*
X155464D01*
X158252D02*
X168350D01*
X140525Y132735D02*
X148381D01*
X151335D02*
X155381D01*
X158335D02*
X168350D01*
X140525Y132972D02*
X148340D01*
X151376D02*
X155340D01*
X158376D02*
X168350D01*
X140525Y133209D02*
X148336D01*
X151380D02*
X155336D01*
X158380D02*
X168350D01*
X140525Y133446D02*
X148369D01*
X151347D02*
X155369D01*
X158347D02*
X168350D01*
X140525Y133683D02*
X148442D01*
X151274D02*
X155442D01*
X158274D02*
X168350D01*
X140525Y133920D02*
X148562D01*
X151154D02*
X155562D01*
X158154D02*
X168350D01*
X140525Y134157D02*
X148744D01*
X150972D02*
X155744D01*
X157972D02*
X168350D01*
X140525Y134394D02*
X149026D01*
X150690D02*
X156026D01*
X157690D02*
X168350D01*
X140525Y134631D02*
X149684D01*
X150032D02*
X156684D01*
X157032D02*
X168350D01*
X140525Y134868D02*
X168350D01*
X140525Y135105D02*
X168350D01*
X140525Y135342D02*
X168350D01*
X140525Y135579D02*
X168350D01*
X140525Y135816D02*
X168350D01*
X140525Y136053D02*
X168350D01*
X140525Y136290D02*
X168350D01*
X140525Y136527D02*
X168350D01*
X140525Y136764D02*
X148727D01*
X149553D02*
X168350D01*
X140525Y137001D02*
X148510D01*
X149770D02*
X168350D01*
X140525Y137238D02*
X148425D01*
X149855D02*
X168350D01*
X140525Y137475D02*
X148424D01*
X149856D02*
X168350D01*
X140525Y137712D02*
X148506D01*
X149774D02*
X168350D01*
X140525Y137949D02*
X141503D01*
X143529D02*
X148628D01*
X149662D02*
X168350D01*
X140525Y138186D02*
X141280D01*
X143752D02*
X148564D01*
X149662D02*
X154770D01*
X155750D02*
X168350D01*
X140525Y138423D02*
X141157D01*
X143875D02*
X146600D01*
X148236D02*
X148327D01*
X149662D02*
X154599D01*
X155921D02*
X168350D01*
X140525Y138660D02*
X141100D01*
X143932D02*
X146280D01*
X149662D02*
X154537D01*
X155983D02*
X168350D01*
X140525Y138897D02*
X141096D01*
X143936D02*
X146113D01*
X149662D02*
X154354D01*
X155963D02*
X168350D01*
X140525Y139134D02*
X141146D01*
X143886D02*
X146024D01*
X149662D02*
X154117D01*
X155855D02*
X168350D01*
X140525Y139371D02*
X141258D01*
X143774D02*
X145993D01*
X149854D02*
X153880D01*
X155579D02*
X168350D01*
X140525Y139608D02*
X141463D01*
X143569D02*
X146015D01*
X155105D02*
X168350D01*
X140525Y139845D02*
X141936D01*
X143096D02*
X146094D01*
X154868D02*
X168350D01*
X140525Y140082D02*
X146245D01*
X148591D02*
X149091D01*
X154631D02*
X168350D01*
X140525Y140319D02*
X146525D01*
X148311D02*
X149328D01*
X154394D02*
X168350D01*
X140525Y140556D02*
X149565D01*
X154157D02*
X168350D01*
X140525Y140793D02*
X168350D01*
X140525Y141030D02*
X168350D01*
X140525Y141267D02*
X168350D01*
X140525Y141504D02*
X168350D01*
X140525Y141741D02*
X168350D01*
X140525Y141978D02*
X168350D01*
X140525Y142215D02*
X168350D01*
X140525Y142452D02*
X168350D01*
X140525Y142689D02*
X168350D01*
X140525Y142926D02*
X168350D01*
X140525Y143163D02*
X168350D01*
X140525Y143400D02*
X168350D01*
X140525Y143637D02*
X168350D01*
X140525Y143874D02*
X168350D01*
X140525Y144111D02*
X168350D01*
X140525Y144348D02*
X168350D01*
X140525Y144585D02*
X168350D01*
X140525Y144822D02*
X168350D01*
X140525Y145059D02*
X168350D01*
X140525Y145296D02*
X168350D01*
X140525Y145533D02*
X168350D01*
X140525Y145770D02*
X168350D01*
X140525Y146007D02*
X168350D01*
X140525Y146244D02*
X168350D01*
X140525Y146481D02*
X168350D01*
X140525Y146718D02*
X168350D01*
X140525Y146955D02*
X168350D01*
X140525Y147192D02*
X168350D01*
X140525Y147429D02*
X168350D01*
X140525Y147666D02*
X168350D01*
X140525Y147903D02*
X168350D01*
X140525Y148140D02*
X168350D01*
X140525Y148377D02*
X168350D01*
X140525Y148614D02*
X168350D01*
X140525Y148851D02*
X168350D01*
X140525Y149088D02*
X168350D01*
X140525Y149325D02*
X153516D01*
X154284D02*
X168350D01*
X140525Y149562D02*
X153281D01*
X154519D02*
X168350D01*
X140525Y149799D02*
X153189D01*
X154611D02*
X168350D01*
X140525Y150036D02*
X153181D01*
X154619D02*
X155170D01*
X156030D02*
X168350D01*
X140525Y150273D02*
X153256D01*
X154544D02*
X154963D01*
X156237D02*
X168350D01*
X140525Y150510D02*
X153274D01*
X156317D02*
X168350D01*
X140525Y150747D02*
X153274D01*
X156314D02*
X168350D01*
X140525Y150984D02*
X153274D01*
X156227D02*
X168350D01*
X140525Y151221D02*
X153274D01*
X156125D02*
X168350D01*
X140525Y151458D02*
X153274D01*
X156125D02*
X168350D01*
X140525Y151695D02*
X153274D01*
X156125D02*
X168350D01*
X140525Y151932D02*
X153299D01*
X156125D02*
X168350D01*
X140525Y152169D02*
X153536D01*
X156125D02*
X168350D01*
X140525Y152406D02*
X153606D01*
X156125D02*
X168350D01*
X140525Y152643D02*
X153606D01*
X156125D02*
X168350D01*
X140525Y152880D02*
X146690D01*
X148148D02*
X153606D01*
X156125D02*
X168350D01*
X140525Y153117D02*
X146318D01*
X148520D02*
X153606D01*
X156125D02*
X168350D01*
X140654Y153354D02*
X146135D01*
X148703D02*
X153606D01*
X156125D02*
X168350D01*
X140891Y153591D02*
X141584D01*
X143448D02*
X146035D01*
X148803D02*
X153606D01*
X156125D02*
X168350D01*
X141128Y153828D02*
X141323D01*
X143709D02*
X145996D01*
X148842D02*
X153606D01*
X156125D02*
X168350D01*
X143851Y154065D02*
X146009D01*
X148829D02*
X153606D01*
X156125D02*
X168350D01*
X143924Y154302D02*
X146078D01*
X148760D02*
X153606D01*
X156125D02*
X168350D01*
X143940Y154539D02*
X146215D01*
X148623D02*
X153606D01*
X156464D02*
X168350D01*
X143904Y154776D02*
X146466D01*
X148372D02*
X153606D01*
X156615D02*
X168350D01*
X143808Y155013D02*
X153606D01*
X156664D02*
X168350D01*
X143910Y155250D02*
X153606D01*
X156634D02*
X168350D01*
X144596Y155487D02*
X150056D01*
X150944D02*
X153453D01*
X156511D02*
X168350D01*
X145099Y155724D02*
X149858D01*
X151142D02*
X153216D01*
X156280D02*
X168350D01*
X145463Y155961D02*
X149782D01*
X156280D02*
X168350D01*
X145751Y156198D02*
X149788D01*
X156296D02*
X168350D01*
X145988Y156435D02*
X149880D01*
X156324D02*
X168350D01*
X146186Y156672D02*
X150111D01*
X156272D02*
X168350D01*
X146353Y156909D02*
X150453D01*
X153967D02*
X155084D01*
X156116D02*
X168350D01*
X146493Y157146D02*
X168350D01*
X146611Y157383D02*
X168350D01*
X146708Y157620D02*
X168350D01*
X146786Y157857D02*
X168350D01*
X146847Y158094D02*
X168350D01*
X146891Y158331D02*
X168350D01*
X146919Y158568D02*
X168350D01*
X146931Y158805D02*
X168350D01*
X146928Y159042D02*
X168350D01*
X146909Y159279D02*
X168350D01*
X146875Y159516D02*
X168350D01*
X146824Y159753D02*
X168350D01*
X146756Y159990D02*
X168350D01*
X146670Y160227D02*
X168350D01*
X146565Y160464D02*
X168350D01*
X146439Y160701D02*
X168350D01*
X146288Y160938D02*
X168350D01*
X146109Y161175D02*
X168335D01*
X145992Y161412D02*
X168098D01*
G54D17*
X172750Y147710D02*
X167670D01*
X172750D02*
G02X174020Y146440I0J-1270D01*
G01X172750Y129930D02*
X167670D01*
X172750D02*
G03X174020Y131200I0J1270D01*
G01X172750Y147710D02*
Y146440D01*
X174020D02*
X172750D01*
Y143900D01*
X174020D01*
Y146440D02*
Y143900D01*
X172750Y129930D02*
Y131200D01*
X174020D01*
X172750D02*
Y133740D01*
X174020Y131200D02*
Y133740D01*
Y143900D02*
Y133740D01*
X172750D02*
X174020D01*
X167670Y142630D02*
X171480D01*
X172750Y143900D02*
X171480Y142630D01*
X167670Y135010D02*
X171480D01*
X172750Y133740D02*
X171480Y135010D01*
G54D22*
X157500Y164000D03*
Y85000D03*
G54D27*
X159857Y123953D03*
X157317D03*
X154777D03*
X152237D03*
X149697D03*
X147157D03*
X159857Y103633D03*
X157317D03*
X154777D03*
X152237D03*
X149697D03*
X147157D03*
G54D22*
X170000Y80000D03*
G54D15*
X171800D02*
G02X168200Y80000I-1800J0D01*
X171800Y80000I1800J0D01*
G01X0Y0D02*
M02*
